G04*
G04 #@! TF.GenerationSoftware,Altium Limited,Altium Designer,20.0.2 (26)*
G04*
G04 Layer_Physical_Order=2*
G04 Layer_Color=16711680*
%FSLAX25Y25*%
%MOIN*%
G70*
G01*
G75*
%ADD13C,0.01000*%
%ADD14R,0.02756X0.03543*%
%ADD15R,0.03543X0.02756*%
%ADD19R,0.03543X0.03150*%
%ADD22R,0.03150X0.03543*%
%ADD23R,0.03150X0.01772*%
%ADD24R,0.04528X0.02362*%
%ADD25R,0.06693X0.04331*%
%ADD42C,0.01500*%
%ADD45C,0.03000*%
%ADD46C,0.01800*%
%ADD47R,0.05906X0.05906*%
%ADD48C,0.05906*%
%ADD49O,0.03937X0.06299*%
%ADD50C,0.04724*%
%ADD51C,0.03000*%
%ADD52R,0.03740X0.06890*%
%ADD53R,0.12598X0.06890*%
G36*
X167120Y174231D02*
X168263Y173925D01*
X169357Y173472D01*
X170383Y172880D01*
X171322Y172159D01*
X172159Y171322D01*
X172880Y170383D01*
X173472Y169357D01*
X173925Y168264D01*
X174231Y167120D01*
X174386Y165946D01*
Y165354D01*
Y11811D01*
Y11219D01*
X174231Y10045D01*
X173925Y8902D01*
X173472Y7808D01*
X172880Y6783D01*
X172159Y5844D01*
X171322Y5006D01*
X170383Y4286D01*
X169357Y3694D01*
X168264Y3241D01*
X167120Y2934D01*
X165946Y2780D01*
X158739D01*
X158640Y3280D01*
X159559Y3661D01*
X159795Y3797D01*
X160040Y3918D01*
X161072Y4607D01*
X161277Y4787D01*
X161493Y4953D01*
X162370Y5830D01*
X162536Y6046D01*
X162716Y6251D01*
X163405Y7283D01*
X163526Y7527D01*
X163662Y7763D01*
X164137Y8910D01*
X164208Y9173D01*
X164295Y9431D01*
X164537Y10648D01*
X164555Y10920D01*
X164591Y11191D01*
Y12431D01*
X164555Y12702D01*
X164537Y12974D01*
X164295Y14191D01*
X164208Y14449D01*
X164137Y14712D01*
X163662Y15859D01*
X163526Y16095D01*
X163405Y16339D01*
X162716Y17371D01*
X162536Y17576D01*
X162370Y17792D01*
X161493Y18669D01*
X161276Y18835D01*
X161072Y19015D01*
X160040Y19704D01*
X159795Y19825D01*
X159559Y19961D01*
X158413Y20436D01*
X158150Y20507D01*
X157891Y20594D01*
X156675Y20836D01*
X156402Y20854D01*
X156132Y20890D01*
X154891D01*
X154621Y20854D01*
X154349Y20836D01*
X153132Y20594D01*
X152874Y20507D01*
X152611Y20436D01*
X151464Y19961D01*
X151228Y19825D01*
X150984Y19704D01*
X149952Y19015D01*
X149747Y18835D01*
X149531Y18669D01*
X148653Y17792D01*
X148487Y17576D01*
X148308Y17371D01*
X147618Y16339D01*
X147498Y16095D01*
X147361Y15858D01*
X146887Y14712D01*
X146816Y14449D01*
X146728Y14191D01*
X146486Y12974D01*
X146468Y12702D01*
X146433Y12431D01*
Y11191D01*
X146468Y10920D01*
X146486Y10648D01*
X146728Y9431D01*
X146816Y9173D01*
X146887Y8910D01*
X147361Y7763D01*
X147498Y7527D01*
X147618Y7283D01*
X148308Y6251D01*
X148487Y6046D01*
X148653Y5830D01*
X149531Y4953D01*
X149747Y4787D01*
X149952Y4607D01*
X150984Y3918D01*
X151228Y3797D01*
X151464Y3661D01*
X152384Y3280D01*
X152285Y2780D01*
X24881D01*
X24781Y3280D01*
X25701Y3661D01*
X25937Y3797D01*
X26182Y3918D01*
X27213Y4607D01*
X27418Y4787D01*
X27635Y4953D01*
X28512Y5830D01*
X28678Y6046D01*
X28858Y6251D01*
X29547Y7283D01*
X29668Y7527D01*
X29804Y7763D01*
X30279Y8910D01*
X30349Y9173D01*
X30437Y9431D01*
X30679Y10648D01*
X30697Y10920D01*
X30732Y11191D01*
Y12431D01*
X30697Y12702D01*
X30679Y12974D01*
X30437Y14191D01*
X30349Y14449D01*
X30279Y14712D01*
X29804Y15859D01*
X29668Y16095D01*
X29547Y16339D01*
X28858Y17371D01*
X28678Y17576D01*
X28512Y17792D01*
X27635Y18669D01*
X27418Y18835D01*
X27213Y19015D01*
X26182Y19704D01*
X25937Y19825D01*
X25701Y19961D01*
X24555Y20436D01*
X24291Y20507D01*
X24033Y20594D01*
X22816Y20836D01*
X22544Y20854D01*
X22274Y20890D01*
X21033D01*
X20763Y20854D01*
X20491Y20836D01*
X19274Y20594D01*
X19016Y20507D01*
X18752Y20436D01*
X17606Y19961D01*
X17370Y19825D01*
X17125Y19704D01*
X16094Y19015D01*
X15889Y18835D01*
X15673Y18669D01*
X14795Y17792D01*
X14629Y17576D01*
X14449Y17371D01*
X13760Y16339D01*
X13640Y16095D01*
X13503Y15858D01*
X13028Y14712D01*
X12958Y14449D01*
X12870Y14191D01*
X12628Y12974D01*
X12610Y12702D01*
X12575Y12431D01*
Y11191D01*
X12610Y10920D01*
X12628Y10648D01*
X12870Y9431D01*
X12958Y9173D01*
X13028Y8910D01*
X13503Y7763D01*
X13640Y7527D01*
X13760Y7283D01*
X14449Y6251D01*
X14629Y6046D01*
X14795Y5830D01*
X15673Y4953D01*
X15889Y4787D01*
X16094Y4607D01*
X17125Y3918D01*
X17370Y3797D01*
X17606Y3661D01*
X18526Y3280D01*
X18426Y2780D01*
X11219D01*
X10045Y2934D01*
X8902Y3241D01*
X7808Y3694D01*
X6783Y4286D01*
X5844Y5006D01*
X5006Y5843D01*
X4286Y6783D01*
X3694Y7808D01*
X3241Y8902D01*
X2934Y10045D01*
X2780Y11219D01*
Y11811D01*
Y165354D01*
Y165946D01*
X2934Y167120D01*
X3241Y168263D01*
X3694Y169357D01*
X4286Y170383D01*
X5006Y171322D01*
X5843Y172159D01*
X6783Y172880D01*
X7808Y173472D01*
X8902Y173925D01*
X10045Y174231D01*
X11219Y174386D01*
X18426D01*
X18526Y173886D01*
X17606Y173505D01*
X17370Y173368D01*
X17125Y173248D01*
X16094Y172558D01*
X15889Y172379D01*
X15673Y172213D01*
X14795Y171335D01*
X14629Y171119D01*
X14449Y170914D01*
X13760Y169882D01*
X13640Y169638D01*
X13503Y169402D01*
X13028Y168255D01*
X12958Y167992D01*
X12870Y167734D01*
X12628Y166517D01*
X12610Y166245D01*
X12575Y165975D01*
Y164734D01*
X12610Y164464D01*
X12628Y164192D01*
X12870Y162975D01*
X12958Y162716D01*
X13028Y162453D01*
X13503Y161307D01*
X13640Y161071D01*
X13760Y160826D01*
X14449Y159794D01*
X14629Y159590D01*
X14795Y159373D01*
X15673Y158496D01*
X15889Y158330D01*
X16094Y158150D01*
X17125Y157461D01*
X17370Y157340D01*
X17606Y157204D01*
X18752Y156729D01*
X19016Y156658D01*
X19274Y156571D01*
X20491Y156329D01*
X20763Y156311D01*
X21033Y156275D01*
X22274D01*
X22544Y156311D01*
X22816Y156329D01*
X24033Y156571D01*
X24292Y156659D01*
X24555Y156729D01*
X25701Y157204D01*
X25937Y157340D01*
X26182Y157461D01*
X27213Y158150D01*
X27418Y158330D01*
X27635Y158496D01*
X28512Y159373D01*
X28678Y159590D01*
X28858Y159794D01*
X29547Y160826D01*
X29668Y161071D01*
X29804Y161307D01*
X30279Y162453D01*
X30349Y162716D01*
X30437Y162975D01*
X30679Y164192D01*
X30697Y164464D01*
X30732Y164734D01*
Y165975D01*
X30697Y166245D01*
X30679Y166517D01*
X30437Y167734D01*
X30349Y167992D01*
X30279Y168255D01*
X29804Y169402D01*
X29668Y169638D01*
X29547Y169882D01*
X28858Y170914D01*
X28678Y171119D01*
X28512Y171335D01*
X27635Y172213D01*
X27418Y172379D01*
X27213Y172558D01*
X26182Y173248D01*
X25937Y173368D01*
X25701Y173505D01*
X24781Y173886D01*
X24881Y174386D01*
X152285D01*
X152384Y173886D01*
X151464Y173505D01*
X151228Y173368D01*
X150984Y173248D01*
X149952Y172558D01*
X149747Y172379D01*
X149531Y172213D01*
X148653Y171335D01*
X148487Y171119D01*
X148308Y170914D01*
X147618Y169882D01*
X147498Y169638D01*
X147361Y169402D01*
X146887Y168255D01*
X146816Y167992D01*
X146728Y167734D01*
X146486Y166517D01*
X146468Y166245D01*
X146433Y165975D01*
Y164734D01*
X146468Y164464D01*
X146486Y164192D01*
X146724Y162996D01*
X146726Y162971D01*
X146395Y162496D01*
X144163D01*
Y158831D01*
Y155165D01*
X147760D01*
Y159753D01*
X148238Y159898D01*
X148308Y159794D01*
X148487Y159590D01*
X148653Y159373D01*
X149531Y158496D01*
X149747Y158330D01*
X149952Y158150D01*
X150984Y157461D01*
X151228Y157340D01*
X151464Y157204D01*
X152611Y156729D01*
X152874Y156658D01*
X153132Y156571D01*
X154349Y156329D01*
X154621Y156311D01*
X154891Y156275D01*
X156132D01*
X156403Y156311D01*
X156675Y156329D01*
X157891Y156571D01*
X158150Y156659D01*
X158413Y156729D01*
X159559Y157204D01*
X159795Y157340D01*
X160040Y157461D01*
X161072Y158150D01*
X161277Y158330D01*
X161493Y158496D01*
X162370Y159373D01*
X162536Y159590D01*
X162716Y159794D01*
X163405Y160826D01*
X163526Y161071D01*
X163662Y161307D01*
X164137Y162453D01*
X164208Y162716D01*
X164295Y162975D01*
X164537Y164192D01*
X164555Y164464D01*
X164591Y164734D01*
Y165975D01*
X164555Y166245D01*
X164537Y166517D01*
X164295Y167734D01*
X164208Y167992D01*
X164137Y168255D01*
X163662Y169402D01*
X163526Y169638D01*
X163405Y169882D01*
X162716Y170914D01*
X162536Y171119D01*
X162370Y171335D01*
X161493Y172213D01*
X161276Y172379D01*
X161072Y172558D01*
X160040Y173248D01*
X159795Y173368D01*
X159559Y173505D01*
X158640Y173886D01*
X158739Y174386D01*
X165946D01*
X167120Y174231D01*
D02*
G37*
%LPC*%
G36*
X73590Y171666D02*
X72867Y171571D01*
X72310Y171340D01*
X72291Y171337D01*
X72276Y171326D01*
X72194Y171292D01*
X72139Y171250D01*
X72126Y171244D01*
X71780Y170994D01*
X71450Y170785D01*
X71117Y170601D01*
X70780Y170443D01*
X70440Y170310D01*
X70095Y170202D01*
X69746Y170118D01*
X69390Y170057D01*
X69196Y170038D01*
X67198D01*
Y170076D01*
X62448Y170076D01*
X62386Y170550D01*
Y170776D01*
X60561D01*
Y167504D01*
X59311D01*
Y166254D01*
X56236D01*
Y164492D01*
X56177D01*
Y162470D01*
X59055D01*
X61933D01*
Y163879D01*
X61994Y163939D01*
X62468Y163891D01*
X62616Y163725D01*
Y161221D01*
X62783Y160380D01*
Y158649D01*
X67139D01*
Y160380D01*
X67306Y161221D01*
Y165348D01*
X69196D01*
X69390Y165328D01*
X69746Y165268D01*
X70095Y165184D01*
X70440Y165076D01*
X70780Y164943D01*
X71117Y164785D01*
X71450Y164601D01*
X71780Y164392D01*
X72126Y164142D01*
X72139Y164136D01*
X72194Y164093D01*
X72276Y164060D01*
X72291Y164049D01*
X72310Y164046D01*
X72867Y163815D01*
X73590Y163719D01*
X74313Y163815D01*
X74986Y164093D01*
X75564Y164537D01*
X76008Y165116D01*
X76287Y165789D01*
X76382Y166512D01*
Y168874D01*
X76287Y169597D01*
X76008Y170270D01*
X75564Y170849D01*
X74986Y171292D01*
X74313Y171571D01*
X73590Y171666D01*
D02*
G37*
G36*
X58061Y170776D02*
X56236D01*
Y168754D01*
X58061D01*
Y170776D01*
D02*
G37*
G36*
X129321Y167823D02*
X127496D01*
Y165801D01*
X129321D01*
Y167823D01*
D02*
G37*
G36*
X102134Y171666D02*
X101411Y171571D01*
X100738Y171292D01*
X100160Y170849D01*
X99716Y170270D01*
X99437Y169597D01*
X99342Y168874D01*
Y166512D01*
X99437Y165789D01*
X99716Y165116D01*
X100160Y164537D01*
X100738Y164093D01*
X101411Y163815D01*
X102134Y163719D01*
X102857Y163815D01*
X103530Y164093D01*
X104109Y164537D01*
X104552Y165116D01*
X104831Y165789D01*
X104926Y166512D01*
Y168874D01*
X104831Y169597D01*
X104552Y170270D01*
X104109Y170849D01*
X103530Y171292D01*
X102857Y171571D01*
X102134Y171666D01*
D02*
G37*
G36*
X118331Y161835D02*
X116211D01*
Y158140D01*
X118331D01*
Y161835D01*
D02*
G37*
G36*
X113711D02*
X111591D01*
Y158140D01*
X113711D01*
Y161835D01*
D02*
G37*
G36*
X61933Y159970D02*
X60305D01*
Y157949D01*
X61933D01*
Y159970D01*
D02*
G37*
G36*
X57805D02*
X56177D01*
Y157949D01*
X57805D01*
Y159970D01*
D02*
G37*
G36*
X133646Y167823D02*
X131821D01*
Y164551D01*
X130571D01*
Y163301D01*
X127496D01*
Y161279D01*
X129961D01*
X130401Y161135D01*
X130401Y160780D01*
Y152645D01*
X133290D01*
X137694Y148240D01*
X138256Y147865D01*
X138767Y147763D01*
Y145235D01*
X147060D01*
Y147479D01*
X154075D01*
X154515Y147335D01*
X154515Y146979D01*
Y139830D01*
X162021D01*
Y146672D01*
X162521Y146879D01*
X163981Y145419D01*
X164058Y145318D01*
X164159Y145156D01*
X164248Y144983D01*
X164324Y144797D01*
X164387Y144595D01*
X164437Y144377D01*
X164473Y144143D01*
X164494Y143890D01*
X164498Y143697D01*
X164483Y143583D01*
X164612Y142603D01*
X164990Y141690D01*
X165591Y140906D01*
X166375Y140305D01*
X167288Y139927D01*
X168268Y139797D01*
X169247Y139927D01*
X170160Y140305D01*
X170944Y140906D01*
X171546Y141690D01*
X171924Y142603D01*
X172053Y143583D01*
X171924Y144562D01*
X171546Y145475D01*
X170944Y146259D01*
X170160Y146861D01*
X169247Y147239D01*
X168268Y147368D01*
X168154Y147353D01*
X167960Y147357D01*
X167708Y147378D01*
X167473Y147413D01*
X167255Y147463D01*
X167054Y147527D01*
X166867Y147603D01*
X166694Y147691D01*
X166533Y147793D01*
X166432Y147870D01*
X163863Y150438D01*
X163301Y150814D01*
X162638Y150946D01*
X147060D01*
Y151166D01*
X141815D01*
X141648Y151199D01*
X139638D01*
X135741Y155096D01*
Y157866D01*
X136254Y158209D01*
X137308Y159263D01*
X137308Y159263D01*
X137567Y159651D01*
X138067Y159499D01*
Y155165D01*
X141663D01*
Y158831D01*
Y162496D01*
X138458D01*
Y167123D01*
X133708Y167123D01*
X133646Y167597D01*
Y167823D01*
D02*
G37*
G36*
X97409Y160331D02*
X96583Y160222D01*
X95814Y159904D01*
X95154Y159397D01*
X94647Y158736D01*
X94328Y157967D01*
X94220Y157142D01*
X94328Y156316D01*
X94647Y155547D01*
X95154Y154887D01*
X95814Y154380D01*
X96583Y154061D01*
X97409Y153952D01*
X98234Y154061D01*
X99003Y154380D01*
X99664Y154887D01*
X100171Y155547D01*
X100489Y156316D01*
X100598Y157142D01*
X100489Y157967D01*
X100171Y158736D01*
X99664Y159397D01*
X99003Y159904D01*
X98234Y160222D01*
X97409Y160331D01*
D02*
G37*
G36*
X78315D02*
X77490Y160222D01*
X76720Y159904D01*
X76060Y159397D01*
X75553Y158736D01*
X75235Y157967D01*
X75126Y157142D01*
X75235Y156316D01*
X75553Y155547D01*
X76060Y154887D01*
X76720Y154380D01*
X77490Y154061D01*
X78315Y153952D01*
X79141Y154061D01*
X79910Y154380D01*
X80570Y154887D01*
X81077Y155547D01*
X81396Y156316D01*
X81504Y157142D01*
X81396Y157967D01*
X81077Y158736D01*
X80570Y159397D01*
X79910Y159904D01*
X79141Y160222D01*
X78315Y160331D01*
D02*
G37*
G36*
X126686Y161135D02*
X121346D01*
Y154880D01*
X118831Y152365D01*
X118331Y152572D01*
Y155640D01*
X116211D01*
Y151945D01*
X117704D01*
X117911Y151445D01*
X109591Y143126D01*
X106140D01*
X105987Y143095D01*
X100578D01*
Y141399D01*
X99563D01*
X99540Y141422D01*
X99648Y141816D01*
X99828Y141945D01*
X99909D01*
Y143770D01*
X96638D01*
X93366D01*
Y141945D01*
X93592D01*
X94066Y141883D01*
X94066Y141445D01*
Y137133D01*
X95429D01*
X95733Y136678D01*
X100064Y132347D01*
X100576Y132004D01*
X101181Y131884D01*
X102590D01*
X102739Y131869D01*
X102806Y131857D01*
X102864Y131843D01*
X102903Y131831D01*
X102921Y131824D01*
X102947Y131806D01*
X103004Y131782D01*
X103433Y131495D01*
X103509Y131480D01*
X104178Y130890D01*
X112586Y122482D01*
Y118196D01*
Y115047D01*
Y111897D01*
X113380D01*
Y107638D01*
X112918Y107447D01*
X105970Y114395D01*
X105539Y114683D01*
X105032Y114784D01*
X100060D01*
X98525Y116319D01*
X98670Y116798D01*
X98830Y116830D01*
X99591Y117338D01*
X100100Y118099D01*
X100278Y118996D01*
X100100Y119894D01*
X99591Y120654D01*
X99512Y120707D01*
X99485Y120742D01*
X99438Y120812D01*
X99399Y120880D01*
X99367Y120947D01*
X99482Y121228D01*
X99525Y121294D01*
X99623Y121398D01*
X99680Y121444D01*
X100209D01*
Y126587D01*
X95854D01*
X95854Y126587D01*
Y126587D01*
X95546Y126969D01*
X95359Y127249D01*
X94598Y127757D01*
X93701Y127936D01*
X92803Y127757D01*
X92120Y127301D01*
X91810Y127249D01*
X91553D01*
X91422Y127446D01*
X90661Y127954D01*
X89764Y128132D01*
X88866Y127954D01*
X88106Y127446D01*
X87801Y126989D01*
X87199D01*
X86894Y127446D01*
X86134Y127954D01*
X85236Y128132D01*
X84339Y127954D01*
X83578Y127446D01*
X83504Y127336D01*
X83446Y127287D01*
X83380Y127240D01*
X83317Y127202D01*
X83254Y127172D01*
X83193Y127147D01*
X83130Y127129D01*
X83065Y127115D01*
X83047Y127113D01*
X82480D01*
X81973Y127012D01*
X81543Y126725D01*
X81256Y126295D01*
X81238Y126207D01*
X81144Y126113D01*
X76687D01*
X54995Y147805D01*
X54565Y148092D01*
X54058Y148193D01*
X42102D01*
X40149Y150146D01*
Y150372D01*
X40048Y150880D01*
X39761Y151310D01*
X38121Y152950D01*
X37691Y153237D01*
X37183Y153338D01*
X18036D01*
X17529Y153237D01*
X17099Y152950D01*
X11594Y147445D01*
X11491Y147378D01*
X11351Y147309D01*
X11173Y147241D01*
X10956Y147180D01*
X10701Y147127D01*
X10420Y147087D01*
X9714Y147039D01*
X9414Y147037D01*
X9291Y147053D01*
X8312Y146924D01*
X7399Y146546D01*
X6615Y145944D01*
X6013Y145160D01*
X5635Y144247D01*
X5506Y143268D01*
X5635Y142288D01*
X6013Y141375D01*
X6615Y140591D01*
X7399Y139990D01*
X8312Y139612D01*
X9291Y139483D01*
X10271Y139612D01*
X11184Y139990D01*
X11968Y140591D01*
X12569Y141375D01*
X12947Y142288D01*
X13077Y143268D01*
X13060Y143390D01*
X13063Y143691D01*
X13111Y144396D01*
X13151Y144678D01*
X13204Y144932D01*
X13265Y145149D01*
X13332Y145327D01*
X13402Y145468D01*
X13469Y145571D01*
X18585Y150687D01*
X33712D01*
X33948Y150246D01*
X33857Y150110D01*
X33679Y149213D01*
X33857Y148315D01*
X34365Y147554D01*
X35126Y147046D01*
X36024Y146868D01*
X36153Y146893D01*
X36230Y146886D01*
X36309Y146873D01*
X36380Y146855D01*
X36446Y146833D01*
X36507Y146806D01*
X36565Y146775D01*
X36620Y146738D01*
X36634Y146727D01*
X38307Y145055D01*
X38115Y144593D01*
X23874D01*
X23754Y144619D01*
X23605Y144669D01*
X23431Y144747D01*
X23235Y144857D01*
X23018Y145000D01*
X22790Y145170D01*
X22257Y145635D01*
X22043Y145846D01*
X21968Y145944D01*
X21184Y146546D01*
X20271Y146924D01*
X19291Y147053D01*
X18312Y146924D01*
X17399Y146546D01*
X16615Y145944D01*
X16013Y145160D01*
X15635Y144247D01*
X15506Y143268D01*
X15635Y142288D01*
X16013Y141375D01*
X16615Y140591D01*
X17399Y139990D01*
X18312Y139612D01*
X19291Y139483D01*
X20271Y139612D01*
X21184Y139990D01*
X21968Y140591D01*
X22043Y140689D01*
X22257Y140900D01*
X22790Y141365D01*
X23018Y141536D01*
X23235Y141678D01*
X23431Y141788D01*
X23605Y141867D01*
X23754Y141917D01*
X23874Y141942D01*
X46644D01*
X46911Y141442D01*
X46652Y141055D01*
X46474Y140157D01*
X46652Y139260D01*
X47161Y138499D01*
X47921Y137991D01*
X48819Y137812D01*
X49716Y137991D01*
X50477Y138499D01*
X50569Y138636D01*
X50576Y138639D01*
X50613Y138652D01*
X50670Y138667D01*
X50735Y138678D01*
X50826Y138687D01*
X52014D01*
X57468Y133233D01*
Y132207D01*
X57442Y132079D01*
X57468Y131951D01*
Y126857D01*
Y123708D01*
Y120558D01*
X59982D01*
X64266Y116274D01*
Y113056D01*
X59982Y108772D01*
X57468D01*
Y105401D01*
Y102251D01*
Y97655D01*
X57437Y97502D01*
Y96137D01*
X52880Y91580D01*
X48987D01*
Y87617D01*
X55115D01*
Y89345D01*
X60135Y94365D01*
X60478Y94877D01*
X60598Y95482D01*
Y95922D01*
X62067D01*
X62359Y95630D01*
X62477Y95477D01*
X62508Y95431D01*
X62530Y95392D01*
X62540Y95372D01*
X62547Y95345D01*
X62572Y95292D01*
X62646Y94920D01*
X63155Y94159D01*
X63916Y93650D01*
X64813Y93472D01*
X65710Y93650D01*
X66220Y93991D01*
X66720Y93723D01*
Y91035D01*
X63549Y87865D01*
X61590D01*
X61462Y87839D01*
X57846D01*
Y83877D01*
X63973D01*
Y85214D01*
X64098D01*
X64606Y85315D01*
X65036Y85602D01*
X68594Y89161D01*
X71076D01*
Y94304D01*
X67170D01*
X66902Y94804D01*
X66979Y94920D01*
X67158Y95817D01*
X66979Y96714D01*
X66471Y97475D01*
X65710Y97983D01*
X64813Y98162D01*
X64462Y98092D01*
X64418Y98095D01*
X64406Y98101D01*
X64365Y98123D01*
X64319Y98154D01*
X64244Y98215D01*
X63840Y98619D01*
X63327Y98962D01*
X62722Y99082D01*
X62217D01*
Y102251D01*
Y106537D01*
X66964Y111284D01*
X67307Y111797D01*
X67427Y112402D01*
Y116929D01*
X67307Y117534D01*
X66964Y118047D01*
X62217Y122793D01*
Y126857D01*
Y131089D01*
X62679Y131281D01*
X75595Y118365D01*
X75604Y118353D01*
X75632Y118308D01*
X75653Y118266D01*
X75668Y118224D01*
X75679Y118180D01*
X75686Y118132D01*
X75688Y118077D01*
X75685Y118012D01*
X75670Y117904D01*
X75673Y117848D01*
X75608Y117520D01*
X75786Y116622D01*
X76295Y115861D01*
X76679Y115604D01*
Y115104D01*
X76295Y114847D01*
X75786Y114086D01*
X75608Y113189D01*
X75634Y113059D01*
X75626Y112983D01*
X75613Y112904D01*
X75595Y112832D01*
X75573Y112766D01*
X75546Y112706D01*
X75515Y112648D01*
X75479Y112592D01*
X75468Y112578D01*
X73866Y110977D01*
X73579Y110547D01*
X73478Y110039D01*
Y94304D01*
X72625D01*
Y89161D01*
X76981D01*
Y94304D01*
X76129D01*
Y109490D01*
X77342Y110704D01*
X77356Y110715D01*
X77412Y110751D01*
X77469Y110782D01*
X77530Y110809D01*
X77596Y110831D01*
X77668Y110849D01*
X77746Y110863D01*
X77823Y110870D01*
X77953Y110844D01*
X78850Y111022D01*
X79611Y111531D01*
X80119Y112292D01*
X80298Y113189D01*
X80119Y114086D01*
X79611Y114847D01*
X79226Y115104D01*
Y115604D01*
X79611Y115861D01*
X80119Y116622D01*
X80298Y117520D01*
X80119Y118417D01*
X79611Y119178D01*
X78850Y119686D01*
X78419Y119772D01*
X78346Y119802D01*
X78214Y119826D01*
X78111Y119852D01*
X78014Y119881D01*
X77926Y119914D01*
X77844Y119950D01*
X77768Y119990D01*
X77697Y120033D01*
X77632Y120079D01*
X77620Y120089D01*
X76509Y121200D01*
X76700Y121662D01*
X84338D01*
X87055Y118945D01*
X94541Y111459D01*
Y110433D01*
X94642Y109926D01*
X94929Y109496D01*
X95261Y109164D01*
X95270Y109153D01*
X95317Y109087D01*
X95361Y109015D01*
X95402Y108938D01*
X95439Y108855D01*
X95470Y108776D01*
X95525Y108583D01*
X95529Y108544D01*
X95279Y108151D01*
X95212Y108083D01*
X91129D01*
Y108035D01*
X90691Y107646D01*
X90506Y107658D01*
X90438Y107761D01*
X89677Y108269D01*
X88779Y108447D01*
X87882Y108269D01*
X87121Y107761D01*
X86613Y107000D01*
X86435Y106102D01*
X86505Y105748D01*
X86103Y105208D01*
X85972Y105196D01*
X84284Y106884D01*
X83772Y107226D01*
X83167Y107346D01*
X82416D01*
X82361Y107354D01*
X82295Y107367D01*
X82250Y107380D01*
X82237Y107385D01*
X82204Y107413D01*
X82005Y107711D01*
X81244Y108220D01*
X80347Y108398D01*
X79450Y108220D01*
X78689Y107711D01*
X78180Y106951D01*
X78002Y106053D01*
X78180Y105156D01*
X78689Y104395D01*
X79450Y103887D01*
X79543Y103868D01*
Y101856D01*
X82618D01*
Y100606D01*
X83868D01*
Y97335D01*
X85693D01*
Y97560D01*
X85755Y98035D01*
X90505D01*
Y98723D01*
X91129D01*
Y97822D01*
X96272D01*
Y98420D01*
X97394D01*
X103677Y92136D01*
X104190Y91794D01*
X104795Y91674D01*
X114046D01*
X128735Y76985D01*
Y74543D01*
X128729Y74494D01*
X128716Y74413D01*
X128701Y74349D01*
X128693Y74320D01*
X128657Y74296D01*
X128148Y73535D01*
X127970Y72638D01*
X128148Y71740D01*
X128657Y70980D01*
X129418Y70471D01*
X130315Y70293D01*
X131212Y70471D01*
X131973Y70980D01*
X132482Y71740D01*
X132660Y72638D01*
X132482Y73535D01*
X131973Y74296D01*
X131937Y74320D01*
X131928Y74349D01*
X131914Y74413D01*
X131902Y74484D01*
X131895Y74568D01*
Y76431D01*
X132357Y76622D01*
X149018Y59961D01*
Y58872D01*
X149119Y58365D01*
X149407Y57935D01*
X152241Y55100D01*
Y52269D01*
X152342Y51762D01*
X152629Y51332D01*
X155569Y48393D01*
X155999Y48105D01*
X156506Y48004D01*
X163700D01*
X164207Y48105D01*
X164637Y48393D01*
X165788Y49544D01*
X165789Y49544D01*
X165892Y49611D01*
X166026Y49675D01*
X166195Y49735D01*
X166400Y49785D01*
X166641Y49824D01*
X166906Y49849D01*
X167581Y49852D01*
X167962Y49827D01*
X168004Y49832D01*
X168268Y49797D01*
X169247Y49926D01*
X170160Y50305D01*
X170944Y50906D01*
X171546Y51690D01*
X171924Y52603D01*
X172053Y53583D01*
X171924Y54562D01*
X171546Y55475D01*
X170944Y56259D01*
X170160Y56861D01*
X169247Y57239D01*
X168268Y57368D01*
X167288Y57239D01*
X166375Y56861D01*
X165591Y56259D01*
X164990Y55475D01*
X164612Y54562D01*
X164524Y53896D01*
X164508Y53841D01*
X164495Y53678D01*
X164483Y53583D01*
X164486Y53560D01*
X164474Y53417D01*
X164432Y53048D01*
X164317Y52385D01*
X164252Y52127D01*
X164179Y51900D01*
X164104Y51714D01*
X164029Y51568D01*
X163963Y51467D01*
X163151Y50655D01*
X161382D01*
X161135Y51155D01*
X161546Y51690D01*
X161924Y52603D01*
X162053Y53583D01*
X161924Y54562D01*
X161546Y55475D01*
X160944Y56259D01*
X160160Y56861D01*
X159247Y57239D01*
X158268Y57368D01*
X158145Y57352D01*
X157845Y57354D01*
X157139Y57402D01*
X156858Y57442D01*
X156603Y57495D01*
X156386Y57556D01*
X156208Y57624D01*
X156068Y57693D01*
X155965Y57760D01*
X153469Y60256D01*
Y61256D01*
X153368Y61763D01*
X153639Y62257D01*
X153685D01*
X153805Y62232D01*
X153954Y62182D01*
X154128Y62103D01*
X154324Y61993D01*
X154541Y61851D01*
X154769Y61680D01*
X155302Y61215D01*
X155516Y61004D01*
X155591Y60906D01*
X156375Y60305D01*
X157288Y59926D01*
X158268Y59798D01*
X159247Y59926D01*
X160160Y60305D01*
X160944Y60906D01*
X161546Y61690D01*
X161924Y62603D01*
X162012Y63271D01*
X162540Y63450D01*
X162878Y63112D01*
X163308Y62825D01*
X163815Y62724D01*
X163936D01*
X164039Y62704D01*
X164142Y62670D01*
X164245Y62620D01*
X164353Y62550D01*
X164465Y62457D01*
X164582Y62337D01*
X164704Y62187D01*
X164827Y62007D01*
X164937Y61817D01*
X164990Y61690D01*
X165591Y60906D01*
X166375Y60305D01*
X167288Y59926D01*
X168268Y59798D01*
X169247Y59926D01*
X170160Y60305D01*
X170944Y60906D01*
X171546Y61690D01*
X171924Y62603D01*
X172053Y63583D01*
X171924Y64562D01*
X171546Y65475D01*
X170944Y66259D01*
X170160Y66861D01*
X169247Y67239D01*
X168268Y67368D01*
X167288Y67239D01*
X166375Y66861D01*
X165591Y66259D01*
X165548Y66203D01*
X165457Y66121D01*
X165246Y65950D01*
X165042Y65803D01*
X164845Y65679D01*
X164655Y65578D01*
X164473Y65499D01*
X164300Y65439D01*
X160967Y68773D01*
X160537Y69060D01*
X160029Y69161D01*
X156221D01*
X155714Y69060D01*
X155284Y68773D01*
X153782Y67270D01*
X153095D01*
X136977Y83388D01*
X137168Y83850D01*
X138617D01*
X138766Y83835D01*
X138833Y83823D01*
X138891Y83809D01*
X138930Y83797D01*
X138948Y83789D01*
X138974Y83772D01*
X139031Y83748D01*
X139457Y83463D01*
X140354Y83285D01*
X141252Y83463D01*
X142013Y83972D01*
X142521Y84733D01*
X142699Y85630D01*
X142521Y86527D01*
X142013Y87288D01*
X141252Y87796D01*
X140354Y87975D01*
X139457Y87796D01*
X138696Y87288D01*
X138556Y87078D01*
X138539Y87065D01*
X138531Y87056D01*
X138501Y87045D01*
X138450Y87031D01*
X138391Y87020D01*
X138297Y87011D01*
X136614D01*
X116541Y107084D01*
Y111897D01*
X117335D01*
Y115047D01*
Y118196D01*
Y121346D01*
Y124717D01*
X114821D01*
X106609Y132929D01*
X106577Y132971D01*
X106548Y133017D01*
X106676Y133661D01*
X106497Y134559D01*
X105989Y135320D01*
X105228Y135828D01*
X104331Y136006D01*
X103433Y135828D01*
X102673Y135320D01*
X102534Y135112D01*
X102518Y135099D01*
X102510Y135091D01*
X102510Y135091D01*
X102479Y135079D01*
X102428Y135065D01*
X102369Y135054D01*
X102275Y135045D01*
X101836D01*
X99209Y137671D01*
Y138239D01*
X100578D01*
Y137165D01*
X108871D01*
Y139965D01*
X110246D01*
X110851Y140085D01*
X111364Y140428D01*
X123581Y152645D01*
X126686D01*
Y161135D01*
D02*
G37*
G36*
X109571Y154425D02*
X105974D01*
Y152010D01*
X109571D01*
Y154425D01*
D02*
G37*
G36*
X103474D02*
X99878D01*
Y152010D01*
X103474D01*
Y154425D01*
D02*
G37*
G36*
X113711Y155640D02*
X111591D01*
Y151945D01*
X113711D01*
Y155640D01*
D02*
G37*
G36*
X109571Y149510D02*
X105974D01*
Y147095D01*
X109571D01*
Y149510D01*
D02*
G37*
G36*
X103474D02*
X99878D01*
Y148094D01*
X97888D01*
Y146270D01*
X99909D01*
Y147095D01*
X103474D01*
Y149510D01*
D02*
G37*
G36*
X95388Y148094D02*
X93366D01*
Y146270D01*
X95388D01*
Y148094D01*
D02*
G37*
G36*
X169518Y137884D02*
Y134833D01*
X172570D01*
X172157Y135828D01*
X171443Y136758D01*
X170513Y137472D01*
X169518Y137884D01*
D02*
G37*
G36*
X167018D02*
X166022Y137472D01*
X165092Y136758D01*
X164378Y135828D01*
X163966Y134833D01*
X167018D01*
Y137884D01*
D02*
G37*
G36*
X10541Y137570D02*
Y134518D01*
X13593D01*
X13181Y135513D01*
X12467Y136443D01*
X11537Y137157D01*
X10541Y137570D01*
D02*
G37*
G36*
X8041D02*
X7046Y137157D01*
X6116Y136443D01*
X5402Y135513D01*
X4989Y134518D01*
X8041D01*
Y137570D01*
D02*
G37*
G36*
X158268Y137368D02*
X157288Y137239D01*
X156375Y136861D01*
X155591Y136259D01*
X154990Y135475D01*
X154612Y134562D01*
X154483Y133583D01*
X154499Y133460D01*
X154497Y133160D01*
X154449Y132454D01*
X154408Y132173D01*
X154355Y131918D01*
X154294Y131701D01*
X154227Y131523D01*
X154157Y131383D01*
X154090Y131280D01*
X153078Y130267D01*
X152790Y129837D01*
X152690Y129330D01*
Y124076D01*
X151424Y122810D01*
X130273D01*
X129815Y123269D01*
X129804Y123283D01*
X129771Y123335D01*
X129743Y123389D01*
X129719Y123444D01*
X129701Y123504D01*
X129686Y123570D01*
X129677Y123643D01*
X129672Y123725D01*
X129674Y123781D01*
X129707Y123950D01*
X129529Y124848D01*
X129020Y125608D01*
X128260Y126117D01*
X127362Y126295D01*
X126465Y126117D01*
X125704Y125608D01*
X125658Y125540D01*
X125631Y125519D01*
X125560Y125472D01*
X125491Y125433D01*
X125423Y125401D01*
X125356Y125376D01*
X125288Y125357D01*
X125219Y125343D01*
X125202Y125341D01*
X124606D01*
X124099Y125240D01*
X123669Y124953D01*
X123459Y124743D01*
X121646D01*
X121518Y124717D01*
X118885D01*
Y121346D01*
Y118196D01*
Y115047D01*
Y111897D01*
X123635D01*
Y112257D01*
X124435D01*
X124773Y111919D01*
X124778Y111912D01*
X124830Y111842D01*
X124879Y111767D01*
X124926Y111685D01*
X124970Y111597D01*
X125007Y111512D01*
X125088Y111284D01*
X125122Y111160D01*
X125141Y111121D01*
X125196Y110848D01*
X125704Y110087D01*
X126465Y109579D01*
X127362Y109400D01*
X128260Y109579D01*
X129020Y110087D01*
X129529Y110848D01*
X129707Y111745D01*
X129681Y111880D01*
X129688Y111960D01*
X129701Y112039D01*
X129718Y112110D01*
X129740Y112175D01*
X129767Y112236D01*
X129798Y112293D01*
X129834Y112348D01*
X129845Y112362D01*
X132242Y114760D01*
X152015D01*
X152690Y114085D01*
Y107835D01*
X152790Y107328D01*
X153078Y106898D01*
X154090Y105886D01*
X154157Y105783D01*
X154227Y105642D01*
X154294Y105464D01*
X154355Y105247D01*
X154408Y104993D01*
X154449Y104711D01*
X154497Y104006D01*
X154499Y103705D01*
X154483Y103583D01*
X154612Y102603D01*
X154990Y101690D01*
X155591Y100906D01*
X156375Y100305D01*
X157288Y99927D01*
X158268Y99797D01*
X159247Y99927D01*
X160160Y100305D01*
X160944Y100906D01*
X161546Y101690D01*
X161924Y102603D01*
X162053Y103583D01*
X161924Y104562D01*
X161546Y105475D01*
X160944Y106259D01*
X160160Y106861D01*
X159247Y107239D01*
X158268Y107368D01*
X158145Y107352D01*
X157845Y107354D01*
X157139Y107402D01*
X156858Y107442D01*
X156603Y107495D01*
X156386Y107556D01*
X156208Y107624D01*
X156068Y107693D01*
X155965Y107760D01*
X155340Y108385D01*
Y110468D01*
X155840Y110715D01*
X156375Y110305D01*
X157288Y109926D01*
X158268Y109798D01*
X159247Y109926D01*
X160160Y110305D01*
X160944Y110906D01*
X161546Y111690D01*
X161924Y112603D01*
X162053Y113583D01*
X161924Y114562D01*
X161546Y115475D01*
X160944Y116259D01*
X160160Y116861D01*
X159247Y117239D01*
X158989Y117273D01*
X158950Y117289D01*
X158508Y117374D01*
X157742Y117551D01*
X157128Y117737D01*
X156896Y117825D01*
X156700Y117912D01*
X156550Y117993D01*
X156456Y118056D01*
X155716Y118797D01*
X156180Y119261D01*
X156280Y119327D01*
X156426Y119402D01*
X156614Y119479D01*
X156842Y119553D01*
X157093Y119618D01*
X158154Y119789D01*
X158261Y119799D01*
X158268Y119798D01*
X158305Y119802D01*
X158566Y119826D01*
X158631Y119845D01*
X159247Y119927D01*
X160160Y120305D01*
X160944Y120906D01*
X161546Y121690D01*
X161924Y122603D01*
X162053Y123583D01*
X161924Y124562D01*
X161546Y125475D01*
X160944Y126259D01*
X160160Y126861D01*
X159247Y127239D01*
X158268Y127368D01*
X157288Y127239D01*
X156375Y126861D01*
X155840Y126450D01*
X155340Y126697D01*
Y128781D01*
X155965Y129405D01*
X156068Y129472D01*
X156208Y129542D01*
X156386Y129609D01*
X156603Y129670D01*
X156858Y129723D01*
X157139Y129763D01*
X157845Y129811D01*
X158145Y129814D01*
X158268Y129797D01*
X159247Y129927D01*
X160160Y130305D01*
X160944Y130906D01*
X161546Y131690D01*
X161924Y132603D01*
X162053Y133583D01*
X161924Y134562D01*
X161546Y135475D01*
X160944Y136259D01*
X160160Y136861D01*
X159247Y137239D01*
X158268Y137368D01*
D02*
G37*
G36*
X131115Y136331D02*
X116917D01*
Y127842D01*
X131115D01*
Y136331D01*
D02*
G37*
G36*
X106815Y127287D02*
X105187D01*
Y125266D01*
X106815D01*
Y127287D01*
D02*
G37*
G36*
X102687D02*
X101059D01*
Y125266D01*
X102687D01*
Y127287D01*
D02*
G37*
G36*
X19291Y137053D02*
X18312Y136924D01*
X17399Y136546D01*
X16615Y135944D01*
X16013Y135160D01*
X15635Y134247D01*
X15506Y133268D01*
X15635Y132288D01*
X16013Y131375D01*
X16615Y130591D01*
X17399Y129990D01*
X18312Y129612D01*
X19291Y129483D01*
X19414Y129499D01*
X19714Y129497D01*
X20420Y129449D01*
X20701Y129408D01*
X20956Y129355D01*
X21173Y129294D01*
X21351Y129227D01*
X21492Y129157D01*
X21594Y129090D01*
X25275Y125409D01*
X25084Y124948D01*
X23798D01*
X23682Y124971D01*
X23523Y125021D01*
X23331Y125099D01*
X23110Y125207D01*
X22877Y125338D01*
X21971Y125956D01*
X21638Y126216D01*
X21567Y126252D01*
X21184Y126546D01*
X20271Y126924D01*
X19291Y127053D01*
X18312Y126924D01*
X17399Y126546D01*
X16615Y125944D01*
X16013Y125160D01*
X15635Y124247D01*
X15506Y123268D01*
X15635Y122288D01*
X16013Y121375D01*
X16615Y120591D01*
X17399Y119990D01*
X18312Y119612D01*
X19291Y119483D01*
X20271Y119612D01*
X21184Y119990D01*
X21968Y120591D01*
X22214Y120912D01*
X22269Y120958D01*
X22509Y121256D01*
X22730Y121506D01*
X22941Y121719D01*
X23141Y121896D01*
X23327Y122037D01*
X23499Y122145D01*
X23653Y122222D01*
X23788Y122270D01*
X23907Y122296D01*
X23910Y122297D01*
X25792D01*
X25984Y121835D01*
X21594Y117445D01*
X21492Y117378D01*
X21351Y117309D01*
X21173Y117241D01*
X20956Y117180D01*
X20701Y117127D01*
X20420Y117087D01*
X19714Y117039D01*
X19414Y117037D01*
X19291Y117053D01*
X18312Y116924D01*
X17399Y116546D01*
X16615Y115944D01*
X16013Y115160D01*
X15635Y114247D01*
X15506Y113268D01*
X15635Y112288D01*
X16013Y111375D01*
X16615Y110591D01*
X17399Y109990D01*
X18312Y109612D01*
X19291Y109483D01*
X20271Y109612D01*
X21184Y109990D01*
X21968Y110591D01*
X22569Y111375D01*
X22584Y111410D01*
X23084Y111311D01*
Y109801D01*
X21049Y107766D01*
X20958Y107705D01*
X20808Y107623D01*
X20610Y107533D01*
X20389Y107447D01*
X18973Y107052D01*
X18539Y106960D01*
X18539D01*
X18517Y106951D01*
X18312Y106924D01*
X17399Y106546D01*
X16615Y105944D01*
X16013Y105160D01*
X15635Y104247D01*
X15506Y103268D01*
X15635Y102288D01*
X16013Y101375D01*
X16615Y100591D01*
X17399Y99990D01*
X18312Y99612D01*
X19291Y99483D01*
X20271Y99612D01*
X21184Y99990D01*
X21968Y100591D01*
X22569Y101375D01*
X22948Y102288D01*
X23076Y103268D01*
X22974Y104046D01*
X22974Y104066D01*
X22966Y104107D01*
X22948Y104247D01*
X22930Y104289D01*
X22904Y104425D01*
X22860Y104735D01*
X22840Y105013D01*
X22840Y105260D01*
X22859Y105474D01*
X22893Y105654D01*
X22939Y105804D01*
X22994Y105925D01*
X23057Y106025D01*
X23062Y106030D01*
X25347Y108315D01*
X25634Y108745D01*
X25735Y109252D01*
Y115291D01*
X28803Y118360D01*
X43939D01*
X44562Y117737D01*
X44573Y117723D01*
X44609Y117667D01*
X44641Y117609D01*
X44667Y117549D01*
X44690Y117483D01*
X44708Y117411D01*
X44721Y117332D01*
X44728Y117256D01*
X44702Y117126D01*
X44881Y116229D01*
X45389Y115468D01*
X46150Y114959D01*
X47047Y114781D01*
X47945Y114959D01*
X48706Y115468D01*
X49214Y116229D01*
X49249Y116405D01*
X49334Y116632D01*
X49373Y116720D01*
X49481Y116925D01*
X49523Y116993D01*
X49643Y117158D01*
X53043Y120558D01*
X55918D01*
Y123708D01*
Y126857D01*
Y130007D01*
Y133379D01*
X51169D01*
Y133018D01*
X49213D01*
X48705Y132917D01*
X48275Y132630D01*
X47658Y132013D01*
X47644Y132002D01*
X47588Y131965D01*
X47531Y131934D01*
X47470Y131908D01*
X47404Y131885D01*
X47332Y131867D01*
X47254Y131854D01*
X47177Y131847D01*
X47047Y131873D01*
X46150Y131694D01*
X45389Y131186D01*
X44881Y130425D01*
X44702Y129528D01*
X44725Y129413D01*
X44718Y129349D01*
X44704Y129269D01*
X44685Y129195D01*
X44662Y129128D01*
X44634Y129066D01*
X44602Y129007D01*
X44565Y128951D01*
X44554Y128937D01*
X42364Y126748D01*
X27686D01*
X23469Y130965D01*
X23402Y131068D01*
X23332Y131208D01*
X23265Y131386D01*
X23204Y131603D01*
X23151Y131858D01*
X23110Y132139D01*
X23063Y132845D01*
X23060Y133145D01*
X23076Y133268D01*
X22948Y134247D01*
X22569Y135160D01*
X21968Y135944D01*
X21184Y136546D01*
X20271Y136924D01*
X19291Y137053D01*
D02*
G37*
G36*
X172570Y132333D02*
X168268D01*
X163966D01*
X164378Y131337D01*
X165092Y130407D01*
X166022Y129693D01*
X166622Y129445D01*
X166666Y129280D01*
X166687Y129146D01*
Y128019D01*
X166666Y127886D01*
X166622Y127721D01*
X166022Y127472D01*
X165092Y126758D01*
X164378Y125828D01*
X163966Y124833D01*
X168268D01*
X172570D01*
X172157Y125828D01*
X171443Y126758D01*
X170513Y127472D01*
X169913Y127721D01*
X169869Y127886D01*
X169848Y128019D01*
Y129146D01*
X169869Y129280D01*
X169913Y129445D01*
X170513Y129693D01*
X171443Y130407D01*
X172157Y131337D01*
X172570Y132333D01*
D02*
G37*
G36*
X13593Y132018D02*
X9291D01*
X4989D01*
X5402Y131022D01*
X6116Y130092D01*
X7046Y129378D01*
X7646Y129130D01*
X7690Y128965D01*
X7711Y128831D01*
Y127704D01*
X7690Y127571D01*
X7646Y127406D01*
X7046Y127157D01*
X6116Y126444D01*
X5402Y125513D01*
X4989Y124518D01*
X9291D01*
X13593D01*
X13181Y125513D01*
X12467Y126444D01*
X11537Y127157D01*
X10937Y127406D01*
X10893Y127571D01*
X10872Y127704D01*
Y128831D01*
X10893Y128965D01*
X10937Y129130D01*
X11537Y129378D01*
X12467Y130092D01*
X13181Y131022D01*
X13593Y132018D01*
D02*
G37*
G36*
X106815Y122766D02*
X105187D01*
Y120744D01*
X106815D01*
Y122766D01*
D02*
G37*
G36*
X102687D02*
X101059D01*
Y120744D01*
X102687D01*
Y122766D01*
D02*
G37*
G36*
X172570Y122333D02*
X168268D01*
X163966D01*
X164378Y121337D01*
X165092Y120407D01*
X166022Y119693D01*
X166622Y119445D01*
X166666Y119280D01*
X166687Y119146D01*
Y118019D01*
X166666Y117886D01*
X166622Y117721D01*
X166022Y117472D01*
X165092Y116758D01*
X164378Y115828D01*
X163966Y114833D01*
X168268D01*
X172570D01*
X172157Y115828D01*
X171443Y116758D01*
X170513Y117472D01*
X169913Y117721D01*
X169869Y117886D01*
X169848Y118019D01*
Y119146D01*
X169869Y119280D01*
X169913Y119445D01*
X170513Y119693D01*
X171443Y120407D01*
X172157Y121337D01*
X172570Y122333D01*
D02*
G37*
G36*
X13593Y122018D02*
X9291D01*
X4989D01*
X5402Y121022D01*
X6116Y120092D01*
X7046Y119378D01*
X7646Y119130D01*
X7690Y118965D01*
X7711Y118831D01*
Y117704D01*
X7690Y117571D01*
X7646Y117406D01*
X7046Y117157D01*
X6116Y116444D01*
X5402Y115513D01*
X4989Y114518D01*
X9291D01*
X13593D01*
X13181Y115513D01*
X12467Y116444D01*
X11537Y117157D01*
X10937Y117406D01*
X10893Y117571D01*
X10872Y117704D01*
Y118831D01*
X10893Y118965D01*
X10937Y119130D01*
X11537Y119378D01*
X12467Y120092D01*
X13181Y121022D01*
X13593Y122018D01*
D02*
G37*
G36*
X172570Y112333D02*
X168268D01*
X163966D01*
X164378Y111337D01*
X165092Y110407D01*
X166022Y109693D01*
X166622Y109445D01*
X166666Y109280D01*
X166687Y109146D01*
Y108019D01*
X166666Y107886D01*
X166622Y107721D01*
X166022Y107472D01*
X165092Y106758D01*
X164378Y105828D01*
X163966Y104833D01*
X168268D01*
X172570D01*
X172157Y105828D01*
X171443Y106758D01*
X170513Y107472D01*
X169913Y107721D01*
X169869Y107886D01*
X169848Y108019D01*
Y109146D01*
X169869Y109280D01*
X169913Y109445D01*
X170513Y109693D01*
X171443Y110407D01*
X172157Y111337D01*
X172570Y112333D01*
D02*
G37*
G36*
X13593Y112018D02*
X9291D01*
X4989D01*
X5402Y111022D01*
X6116Y110092D01*
X7046Y109378D01*
X7646Y109130D01*
X7690Y108965D01*
X7711Y108831D01*
Y107704D01*
X7690Y107571D01*
X7646Y107406D01*
X7046Y107157D01*
X6116Y106444D01*
X5402Y105513D01*
X4989Y104518D01*
X9291D01*
X13593D01*
X13181Y105513D01*
X12467Y106444D01*
X11537Y107157D01*
X10937Y107406D01*
X10893Y107571D01*
X10872Y107704D01*
Y108831D01*
X10893Y108965D01*
X10937Y109130D01*
X11537Y109378D01*
X12467Y110092D01*
X13181Y111022D01*
X13593Y112018D01*
D02*
G37*
G36*
X172570Y102333D02*
X169518D01*
Y99281D01*
X170513Y99693D01*
X171443Y100407D01*
X172157Y101337D01*
X172570Y102333D01*
D02*
G37*
G36*
X167018D02*
X163966D01*
X164378Y101337D01*
X165092Y100407D01*
X166022Y99693D01*
X167018Y99281D01*
Y102333D01*
D02*
G37*
G36*
X81368Y99356D02*
X79543D01*
Y97335D01*
X81368D01*
Y99356D01*
D02*
G37*
G36*
X47244Y113172D02*
X46347Y112993D01*
X45586Y112485D01*
X45077Y111724D01*
X44899Y110827D01*
X44925Y110697D01*
X44918Y110621D01*
X44904Y110542D01*
X44886Y110470D01*
X44864Y110404D01*
X44837Y110343D01*
X44806Y110286D01*
X44770Y110230D01*
X44759Y110216D01*
X41549Y107007D01*
X41262Y106577D01*
X41161Y106069D01*
Y103535D01*
X32220Y94593D01*
X23874D01*
X23754Y94619D01*
X23605Y94669D01*
X23431Y94747D01*
X23235Y94857D01*
X23018Y95000D01*
X22790Y95170D01*
X22257Y95635D01*
X22043Y95846D01*
X21968Y95944D01*
X21184Y96546D01*
X20271Y96924D01*
X19291Y97053D01*
X18312Y96924D01*
X17399Y96546D01*
X16615Y95944D01*
X16013Y95160D01*
X15635Y94247D01*
X15506Y93268D01*
X15635Y92288D01*
X16013Y91375D01*
X16615Y90591D01*
X17399Y89990D01*
X18312Y89612D01*
X19291Y89483D01*
X20271Y89612D01*
X21184Y89990D01*
X21968Y90591D01*
X22043Y90689D01*
X22257Y90900D01*
X22790Y91365D01*
X23018Y91536D01*
X23235Y91678D01*
X23431Y91788D01*
X23605Y91867D01*
X23754Y91917D01*
X23874Y91942D01*
X31925D01*
X32116Y91480D01*
X25229Y84593D01*
X23874D01*
X23754Y84619D01*
X23605Y84669D01*
X23431Y84747D01*
X23235Y84857D01*
X23018Y85000D01*
X22790Y85170D01*
X22257Y85635D01*
X22043Y85846D01*
X21968Y85944D01*
X21184Y86546D01*
X20271Y86924D01*
X19291Y87053D01*
X18312Y86924D01*
X17399Y86546D01*
X16615Y85944D01*
X16013Y85160D01*
X15635Y84247D01*
X15506Y83268D01*
X15635Y82288D01*
X16013Y81375D01*
X16615Y80591D01*
X17399Y79990D01*
X18312Y79612D01*
X19291Y79483D01*
X20271Y79612D01*
X21184Y79990D01*
X21968Y80591D01*
X22043Y80689D01*
X22257Y80900D01*
X22790Y81365D01*
X23018Y81536D01*
X23235Y81678D01*
X23431Y81788D01*
X23605Y81867D01*
X23754Y81917D01*
X23874Y81942D01*
X24470D01*
X24662Y81480D01*
X20980Y77798D01*
X20891Y77739D01*
X20740Y77656D01*
X20541Y77563D01*
X20316Y77473D01*
X18888Y77045D01*
X18460Y76943D01*
X18312Y76924D01*
X17399Y76546D01*
X16615Y75944D01*
X16013Y75160D01*
X15635Y74247D01*
X15506Y73268D01*
X15635Y72288D01*
X16013Y71375D01*
X16615Y70591D01*
X17399Y69990D01*
X18312Y69612D01*
X19291Y69483D01*
X20271Y69612D01*
X21184Y69990D01*
X21968Y70591D01*
X22387Y71138D01*
X22887Y70968D01*
Y68659D01*
X21639Y67412D01*
X21536Y67345D01*
X21397Y67276D01*
X21221Y67211D01*
X21007Y67152D01*
X20756Y67103D01*
X20479Y67067D01*
X19780Y67031D01*
X19432Y67034D01*
X19291Y67053D01*
X18312Y66924D01*
X17399Y66546D01*
X16615Y65944D01*
X16013Y65160D01*
X15635Y64247D01*
X15506Y63268D01*
X15635Y62288D01*
X16013Y61375D01*
X16615Y60591D01*
X17399Y59990D01*
X18312Y59612D01*
X19291Y59483D01*
X20271Y59612D01*
X21184Y59990D01*
X21968Y60591D01*
X22569Y61375D01*
X22948Y62288D01*
X23076Y63268D01*
X23063Y63369D01*
X23070Y63625D01*
X23130Y64337D01*
X23174Y64623D01*
X23231Y64880D01*
X23295Y65100D01*
X23364Y65281D01*
X23435Y65422D01*
X23502Y65525D01*
X25150Y67173D01*
X25437Y67603D01*
X25538Y68110D01*
Y76062D01*
X43820Y94344D01*
X44685D01*
X45192Y94445D01*
X45622Y94732D01*
X46633Y95743D01*
X46647Y95754D01*
X46703Y95791D01*
X46761Y95822D01*
X46822Y95848D01*
X46887Y95871D01*
X46959Y95889D01*
X47038Y95902D01*
X47114Y95909D01*
X47244Y95883D01*
X48142Y96062D01*
X48461Y96276D01*
X48530Y96303D01*
X48643Y96376D01*
X48738Y96430D01*
X48830Y96477D01*
X48919Y96516D01*
X49006Y96548D01*
X49091Y96573D01*
X49173Y96593D01*
X49255Y96606D01*
X49268Y96608D01*
X51169D01*
Y95952D01*
X55918D01*
Y99102D01*
Y102251D01*
Y105401D01*
Y108772D01*
X53043D01*
X51853Y109962D01*
X51815Y110153D01*
X51528Y110583D01*
X50729Y111381D01*
X50299Y111669D01*
X49792Y111770D01*
X49526D01*
X49513Y111771D01*
X49468Y111782D01*
X49433Y111795D01*
X49404Y111809D01*
X49378Y111826D01*
X49352Y111848D01*
X49323Y111878D01*
X49291Y111919D01*
X49237Y112004D01*
X49191Y112054D01*
X48902Y112485D01*
X48142Y112993D01*
X47244Y113172D01*
D02*
G37*
G36*
X13593Y102018D02*
X9291D01*
X4989D01*
X5402Y101022D01*
X6116Y100092D01*
X7046Y99378D01*
X7646Y99130D01*
X7690Y98965D01*
X7711Y98831D01*
Y97704D01*
X7690Y97571D01*
X7646Y97406D01*
X7046Y97157D01*
X6116Y96443D01*
X5402Y95513D01*
X4989Y94518D01*
X9291D01*
X13593D01*
X13181Y95513D01*
X12467Y96443D01*
X11537Y97157D01*
X10937Y97406D01*
X10893Y97571D01*
X10872Y97704D01*
Y98831D01*
X10893Y98965D01*
X10937Y99130D01*
X11537Y99378D01*
X12467Y100092D01*
X13181Y101022D01*
X13593Y102018D01*
D02*
G37*
G36*
X168268Y97368D02*
X167288Y97239D01*
X166375Y96861D01*
X165591Y96259D01*
X164990Y95475D01*
X164612Y94562D01*
X164483Y93583D01*
X164612Y92603D01*
X164990Y91690D01*
X165591Y90906D01*
X166375Y90305D01*
X167288Y89926D01*
X168268Y89798D01*
X169247Y89926D01*
X170160Y90305D01*
X170944Y90906D01*
X171546Y91690D01*
X171924Y92603D01*
X172053Y93583D01*
X171924Y94562D01*
X171546Y95475D01*
X170944Y96259D01*
X170160Y96861D01*
X169247Y97239D01*
X168268Y97368D01*
D02*
G37*
G36*
X158268D02*
X157288Y97239D01*
X156375Y96861D01*
X155591Y96259D01*
X154990Y95475D01*
X154612Y94562D01*
X154483Y93583D01*
X154612Y92603D01*
X154990Y91690D01*
X155591Y90906D01*
X156375Y90305D01*
X157288Y89926D01*
X158268Y89798D01*
X159247Y89926D01*
X160160Y90305D01*
X160944Y90906D01*
X161546Y91690D01*
X161924Y92603D01*
X162053Y93583D01*
X161924Y94562D01*
X161546Y95475D01*
X160944Y96259D01*
X160160Y96861D01*
X159247Y97239D01*
X158268Y97368D01*
D02*
G37*
G36*
X13593Y92018D02*
X9291D01*
X4989D01*
X5402Y91022D01*
X6116Y90092D01*
X7046Y89378D01*
X7646Y89130D01*
X7690Y88965D01*
X7711Y88831D01*
Y87704D01*
X7690Y87571D01*
X7646Y87406D01*
X7046Y87157D01*
X6116Y86443D01*
X5402Y85513D01*
X4989Y84518D01*
X9291D01*
X13593D01*
X13181Y85513D01*
X12467Y86443D01*
X11537Y87157D01*
X10937Y87406D01*
X10893Y87571D01*
X10872Y87704D01*
Y88831D01*
X10893Y88965D01*
X10937Y89130D01*
X11537Y89378D01*
X12467Y90092D01*
X13181Y91022D01*
X13593Y92018D01*
D02*
G37*
G36*
X168268Y87368D02*
X167288Y87239D01*
X166375Y86861D01*
X165591Y86259D01*
X164990Y85475D01*
X164612Y84562D01*
X164483Y83583D01*
X164612Y82603D01*
X164990Y81690D01*
X165591Y80906D01*
X166375Y80305D01*
X167288Y79927D01*
X168268Y79798D01*
X169247Y79927D01*
X170160Y80305D01*
X170944Y80906D01*
X171546Y81690D01*
X171924Y82603D01*
X172053Y83583D01*
X171924Y84562D01*
X171546Y85475D01*
X170944Y86259D01*
X170160Y86861D01*
X169247Y87239D01*
X168268Y87368D01*
D02*
G37*
G36*
X158268D02*
X157288Y87239D01*
X156375Y86861D01*
X155591Y86259D01*
X154990Y85475D01*
X154612Y84562D01*
X154483Y83583D01*
X154612Y82603D01*
X154990Y81690D01*
X155591Y80906D01*
X156375Y80305D01*
X157288Y79927D01*
X158268Y79798D01*
X159247Y79927D01*
X160160Y80305D01*
X160944Y80906D01*
X161546Y81690D01*
X161924Y82603D01*
X162053Y83583D01*
X161924Y84562D01*
X161546Y85475D01*
X160944Y86259D01*
X160160Y86861D01*
X159247Y87239D01*
X158268Y87368D01*
D02*
G37*
G36*
X55115Y84099D02*
X48987D01*
Y80137D01*
X50726D01*
Y77572D01*
X48216D01*
Y76719D01*
X47465D01*
X47447Y76721D01*
X47382Y76735D01*
X47319Y76753D01*
X47257Y76778D01*
X47195Y76809D01*
X47132Y76846D01*
X47066Y76893D01*
X47007Y76942D01*
X46934Y77052D01*
X46173Y77560D01*
X45276Y77739D01*
X44378Y77560D01*
X43617Y77052D01*
X43109Y76291D01*
X42930Y75394D01*
X43109Y74496D01*
X43617Y73735D01*
X44378Y73227D01*
X45276Y73049D01*
X46173Y73227D01*
X46934Y73735D01*
X47007Y73845D01*
X47066Y73894D01*
X47132Y73941D01*
X47195Y73979D01*
X47257Y74010D01*
X47319Y74034D01*
X47382Y74053D01*
X47447Y74066D01*
X47465Y74068D01*
X48216D01*
Y73216D01*
X53359D01*
Y76183D01*
X53377Y76272D01*
Y80137D01*
X55115D01*
Y84099D01*
D02*
G37*
G36*
X13593Y82018D02*
X9291D01*
X4989D01*
X5402Y81022D01*
X6116Y80092D01*
X7046Y79378D01*
X7646Y79130D01*
X7690Y78965D01*
X7711Y78831D01*
Y77704D01*
X7690Y77571D01*
X7646Y77406D01*
X7046Y77157D01*
X6116Y76443D01*
X5402Y75513D01*
X4989Y74518D01*
X9291D01*
X13593D01*
X13181Y75513D01*
X12467Y76443D01*
X11537Y77157D01*
X10937Y77406D01*
X10893Y77571D01*
X10872Y77704D01*
Y78831D01*
X10893Y78965D01*
X10937Y79130D01*
X11537Y79378D01*
X12467Y80092D01*
X13181Y81022D01*
X13593Y82018D01*
D02*
G37*
G36*
X168268Y77368D02*
X167288Y77239D01*
X166375Y76861D01*
X165591Y76259D01*
X164990Y75475D01*
X164612Y74562D01*
X164483Y73583D01*
X164612Y72603D01*
X164990Y71690D01*
X165591Y70906D01*
X166375Y70305D01*
X167288Y69927D01*
X168268Y69797D01*
X169247Y69927D01*
X170160Y70305D01*
X170944Y70906D01*
X171546Y71690D01*
X171924Y72603D01*
X172053Y73583D01*
X171924Y74562D01*
X171546Y75475D01*
X170944Y76259D01*
X170160Y76861D01*
X169247Y77239D01*
X168268Y77368D01*
D02*
G37*
G36*
X158268D02*
X157288Y77239D01*
X156375Y76861D01*
X155591Y76259D01*
X154990Y75475D01*
X154612Y74562D01*
X154483Y73583D01*
X154612Y72603D01*
X154990Y71690D01*
X155591Y70906D01*
X156375Y70305D01*
X157288Y69927D01*
X158268Y69797D01*
X159247Y69927D01*
X160160Y70305D01*
X160944Y70906D01*
X161546Y71690D01*
X161924Y72603D01*
X162053Y73583D01*
X161924Y74562D01*
X161546Y75475D01*
X160944Y76259D01*
X160160Y76861D01*
X159247Y77239D01*
X158268Y77368D01*
D02*
G37*
G36*
X53359Y71666D02*
X48216D01*
Y70814D01*
X47835D01*
X47327Y70713D01*
X46897Y70425D01*
X31065Y54593D01*
X23044D01*
Y57020D01*
X15539D01*
Y49515D01*
X23044D01*
Y51942D01*
X31614D01*
X32121Y52043D01*
X32551Y52330D01*
X47754Y67533D01*
X48216Y67342D01*
Y67310D01*
X53359D01*
Y71666D01*
D02*
G37*
G36*
X13593Y72018D02*
X9291D01*
X4989D01*
X5402Y71022D01*
X6116Y70092D01*
X7046Y69378D01*
X7646Y69130D01*
X7690Y68965D01*
X7711Y68831D01*
Y67704D01*
X7690Y67571D01*
X7646Y67406D01*
X7046Y67157D01*
X6116Y66443D01*
X5402Y65513D01*
X4989Y64518D01*
X9291D01*
X13593D01*
X13181Y65513D01*
X12467Y66443D01*
X11537Y67157D01*
X10937Y67406D01*
X10893Y67571D01*
X10872Y67704D01*
Y68831D01*
X10893Y68965D01*
X10937Y69130D01*
X11537Y69378D01*
X12467Y70092D01*
X13181Y71022D01*
X13593Y72018D01*
D02*
G37*
G36*
Y62018D02*
X9291D01*
X4989D01*
X5402Y61022D01*
X6116Y60092D01*
X7046Y59378D01*
X7646Y59130D01*
X7690Y58965D01*
X7711Y58831D01*
Y57704D01*
X7690Y57571D01*
X7646Y57406D01*
X7046Y57157D01*
X6116Y56443D01*
X5402Y55513D01*
X4989Y54518D01*
X9291D01*
X13593D01*
X13181Y55513D01*
X12467Y56443D01*
X11537Y57157D01*
X10937Y57406D01*
X10893Y57571D01*
X10872Y57704D01*
Y58831D01*
X10893Y58965D01*
X10937Y59130D01*
X11537Y59378D01*
X12467Y60092D01*
X13181Y61022D01*
X13593Y62018D01*
D02*
G37*
G36*
Y52018D02*
X10541D01*
Y48966D01*
X11537Y49378D01*
X12467Y50092D01*
X13181Y51022D01*
X13593Y52018D01*
D02*
G37*
G36*
X8041D02*
X4989D01*
X5402Y51022D01*
X6116Y50092D01*
X7046Y49378D01*
X8041Y48966D01*
Y52018D01*
D02*
G37*
%LPD*%
G36*
X72603Y164803D02*
X72238Y165067D01*
X71866Y165303D01*
X71487Y165512D01*
X71103Y165692D01*
X70711Y165845D01*
X70314Y165971D01*
X69910Y166068D01*
X69499Y166137D01*
X69082Y166179D01*
X68659Y166193D01*
Y169193D01*
X69082Y169207D01*
X69499Y169248D01*
X69910Y169318D01*
X70314Y169415D01*
X70711Y169540D01*
X71103Y169693D01*
X71487Y169874D01*
X71866Y170083D01*
X72238Y170319D01*
X72603Y170583D01*
Y164803D01*
D02*
G37*
G36*
X165858Y147282D02*
X166067Y147122D01*
X166290Y146982D01*
X166527Y146861D01*
X166777Y146758D01*
X167042Y146676D01*
X167320Y146612D01*
X167612Y146567D01*
X167918Y146542D01*
X168238Y146535D01*
X165315Y143612D01*
X165309Y143932D01*
X165283Y144238D01*
X165239Y144530D01*
X165175Y144808D01*
X165092Y145073D01*
X164990Y145324D01*
X164869Y145560D01*
X164728Y145783D01*
X164569Y145992D01*
X164390Y146188D01*
X165663Y147460D01*
X165858Y147282D01*
D02*
G37*
G36*
X37527Y149046D02*
X37541Y148900D01*
X37564Y148760D01*
X37598Y148625D01*
X37642Y148496D01*
X37696Y148372D01*
X37760Y148253D01*
X37835Y148140D01*
X37919Y148032D01*
X38014Y147930D01*
X37306Y147223D01*
X37204Y147317D01*
X37097Y147401D01*
X36983Y147476D01*
X36865Y147540D01*
X36741Y147594D01*
X36611Y147638D01*
X36476Y147672D01*
X36336Y147696D01*
X36190Y147709D01*
X36039Y147713D01*
X37523Y149198D01*
X37527Y149046D01*
D02*
G37*
G36*
X12955Y146225D02*
X12816Y146063D01*
X12692Y145873D01*
X12583Y145653D01*
X12489Y145404D01*
X12411Y145126D01*
X12347Y144819D01*
X12299Y144482D01*
X12247Y143721D01*
X12244Y143297D01*
X9321Y146220D01*
X9745Y146223D01*
X10506Y146275D01*
X10842Y146324D01*
X11150Y146387D01*
X11428Y146466D01*
X11677Y146560D01*
X11896Y146669D01*
X12087Y146793D01*
X12248Y146932D01*
X12955Y146225D01*
D02*
G37*
G36*
X21702Y145037D02*
X22277Y144536D01*
X22549Y144332D01*
X22811Y144159D01*
X23064Y144018D01*
X23306Y143909D01*
X23538Y143830D01*
X23761Y143783D01*
X23973Y143768D01*
Y142768D01*
X23761Y142752D01*
X23538Y142705D01*
X23306Y142627D01*
X23064Y142517D01*
X22811Y142376D01*
X22549Y142204D01*
X22277Y142000D01*
X21702Y141498D01*
X21400Y141201D01*
Y145335D01*
X21702Y145037D01*
D02*
G37*
G36*
X49876Y141232D02*
X49953Y141187D01*
X50040Y141147D01*
X50138Y141113D01*
X50246Y141083D01*
X50365Y141060D01*
X50495Y141041D01*
X50787Y141020D01*
X50948Y141017D01*
X51075Y139517D01*
X50914Y139514D01*
X50625Y139487D01*
X50497Y139464D01*
X50381Y139435D01*
X50275Y139399D01*
X50181Y139356D01*
X50097Y139307D01*
X50025Y139251D01*
X49964Y139188D01*
X49811Y141283D01*
X49876Y141232D01*
D02*
G37*
G36*
X103407Y132480D02*
X103341Y132525D01*
X103265Y132564D01*
X103178Y132600D01*
X103080Y132630D01*
X102972Y132656D01*
X102852Y132677D01*
X102581Y132705D01*
X102430Y132712D01*
X102267Y132715D01*
X102036Y134215D01*
X102198Y134218D01*
X102485Y134246D01*
X102612Y134270D01*
X102727Y134301D01*
X102831Y134340D01*
X102923Y134385D01*
X103004Y134437D01*
X103073Y134496D01*
X103131Y134562D01*
X103407Y132480D01*
D02*
G37*
G36*
X105724Y133078D02*
X105717Y132993D01*
X105726Y132903D01*
X105749Y132809D01*
X105787Y132712D01*
X105840Y132611D01*
X105907Y132506D01*
X105989Y132396D01*
X106086Y132283D01*
X106197Y132167D01*
X105095Y131147D01*
X104900Y131341D01*
X103910Y132214D01*
X103858Y132238D01*
X105745Y133160D01*
X105724Y133078D01*
D02*
G37*
G36*
X84165Y124737D02*
X84056Y124842D01*
X83943Y124935D01*
X83827Y125018D01*
X83707Y125089D01*
X83585Y125150D01*
X83459Y125199D01*
X83329Y125238D01*
X83197Y125265D01*
X83061Y125282D01*
X82922Y125287D01*
Y126287D01*
X83061Y126293D01*
X83197Y126309D01*
X83329Y126337D01*
X83459Y126375D01*
X83585Y126425D01*
X83707Y126485D01*
X83827Y126557D01*
X83943Y126639D01*
X84056Y126733D01*
X84165Y126837D01*
Y124737D01*
D02*
G37*
G36*
X90664Y124588D02*
X90551Y124495D01*
X90449Y124398D01*
X90360Y124294D01*
X90282Y124185D01*
X90216Y124071D01*
X90162Y123952D01*
X90121Y123827D01*
X90091Y123696D01*
X90073Y123560D01*
X90067Y123418D01*
X89067Y123559D01*
X89062Y123695D01*
X89047Y123830D01*
X89023Y123964D01*
X88989Y124096D01*
X88946Y124227D01*
X88893Y124357D01*
X88829Y124486D01*
X88757Y124613D01*
X88674Y124739D01*
X88582Y124863D01*
X90664Y124588D01*
D02*
G37*
G36*
X94601Y124391D02*
X94488Y124298D01*
X94386Y124201D01*
X94297Y124097D01*
X94219Y123989D01*
X94153Y123874D01*
X94099Y123755D01*
X94058Y123630D01*
X94028Y123499D01*
X94010Y123363D01*
X94004Y123222D01*
X93004Y123362D01*
X92999Y123498D01*
X92985Y123634D01*
X92960Y123767D01*
X92926Y123899D01*
X92883Y124030D01*
X92830Y124160D01*
X92766Y124289D01*
X92694Y124416D01*
X92611Y124542D01*
X92519Y124666D01*
X94601Y124391D01*
D02*
G37*
G36*
X98482Y121292D02*
X98488Y121153D01*
X98504Y121018D01*
X98531Y120885D01*
X98568Y120755D01*
X98616Y120627D01*
X98675Y120503D01*
X98745Y120381D01*
X98825Y120262D01*
X98916Y120146D01*
X99018Y120032D01*
X96919Y120101D01*
X97026Y120206D01*
X97122Y120316D01*
X97206Y120429D01*
X97279Y120545D01*
X97341Y120666D01*
X97392Y120791D01*
X97432Y120919D01*
X97460Y121051D01*
X97477Y121187D01*
X97482Y121327D01*
X98482Y121292D01*
D02*
G37*
G36*
X77034Y119514D02*
X77139Y119429D01*
X77250Y119351D01*
X77367Y119280D01*
X77490Y119215D01*
X77618Y119158D01*
X77753Y119108D01*
X77894Y119065D01*
X78041Y119029D01*
X78194Y119000D01*
X76477Y117790D01*
X76498Y117934D01*
X76505Y118072D01*
X76499Y118207D01*
X76481Y118337D01*
X76449Y118464D01*
X76405Y118585D01*
X76347Y118703D01*
X76277Y118816D01*
X76193Y118925D01*
X76097Y119030D01*
X76935Y119607D01*
X77034Y119514D01*
D02*
G37*
G36*
X77938Y111689D02*
X77786Y111686D01*
X77641Y111672D01*
X77500Y111648D01*
X77365Y111614D01*
X77236Y111570D01*
X77112Y111516D01*
X76993Y111452D01*
X76880Y111378D01*
X76772Y111293D01*
X76670Y111199D01*
X75963Y111906D01*
X76057Y112008D01*
X76142Y112116D01*
X76216Y112229D01*
X76280Y112348D01*
X76334Y112472D01*
X76378Y112601D01*
X76412Y112736D01*
X76436Y112877D01*
X76449Y113023D01*
X76453Y113174D01*
X77938Y111689D01*
D02*
G37*
G36*
X96411Y110604D02*
X96520Y110521D01*
X96633Y110451D01*
X96751Y110394D01*
X96872Y110350D01*
X96998Y110320D01*
X97127Y110302D01*
X97261Y110298D01*
X97399Y110307D01*
X97541Y110329D01*
X96358Y108595D01*
X96327Y108747D01*
X96244Y109035D01*
X96193Y109169D01*
X96134Y109298D01*
X96069Y109421D01*
X95997Y109537D01*
X95919Y109648D01*
X95833Y109752D01*
X95741Y109851D01*
X96306Y110700D01*
X96411Y110604D01*
D02*
G37*
G36*
X110315Y103756D02*
X110123Y103294D01*
X106617D01*
X106601Y103296D01*
X106525Y103310D01*
X106449Y103329D01*
X106372Y103355D01*
X106293Y103387D01*
X106212Y103427D01*
X106128Y103475D01*
X106043Y103531D01*
X105937Y103609D01*
X105872Y103639D01*
X105425Y103938D01*
X104528Y104117D01*
X103630Y103938D01*
X102869Y103430D01*
X102361Y102669D01*
X102182Y101772D01*
X102361Y100874D01*
X102869Y100113D01*
X102960Y100053D01*
Y99553D01*
X102869Y99493D01*
X102361Y98732D01*
X102330Y98577D01*
X101852Y98432D01*
X99166Y101118D01*
X98654Y101460D01*
X98049Y101580D01*
X96272D01*
Y102178D01*
X91129D01*
Y101883D01*
X90505D01*
Y103178D01*
X88334D01*
X88016Y103523D01*
X88425Y103828D01*
X88779Y103757D01*
X89677Y103936D01*
X90438Y104444D01*
X90470Y104492D01*
X90479Y104499D01*
X90553Y104547D01*
X90626Y104586D01*
X90629Y104587D01*
X90914Y104483D01*
X90988Y104437D01*
X91042Y104387D01*
X91118Y104285D01*
X91129Y104264D01*
Y103728D01*
X96272D01*
Y106606D01*
X96713Y106841D01*
X96937Y106692D01*
X97835Y106513D01*
X98732Y106692D01*
X99493Y107200D01*
X100001Y107961D01*
X100180Y108858D01*
X100001Y109756D01*
X99910Y109892D01*
X100146Y110333D01*
X103738D01*
X110315Y103756D01*
D02*
G37*
G36*
X90018Y106970D02*
X90124Y106872D01*
X90234Y106786D01*
X90348Y106711D01*
X90466Y106648D01*
X90589Y106596D01*
X90717Y106556D01*
X90848Y106527D01*
X90984Y106510D01*
X91125Y106504D01*
X91055Y105504D01*
X90917Y105499D01*
X90782Y105483D01*
X90649Y105457D01*
X90517Y105421D01*
X90389Y105374D01*
X90263Y105317D01*
X90138Y105249D01*
X90016Y105171D01*
X89897Y105083D01*
X89780Y104984D01*
X89917Y107080D01*
X90018Y106970D01*
D02*
G37*
G36*
X81653Y106810D02*
X81719Y106748D01*
X81796Y106694D01*
X81886Y106647D01*
X81988Y106607D01*
X82101Y106574D01*
X82226Y106549D01*
X82363Y106531D01*
X82513Y106520D01*
X82674Y106516D01*
X82331Y105016D01*
X82167Y105014D01*
X81744Y104984D01*
X81625Y104966D01*
X81421Y104919D01*
X81335Y104889D01*
X81261Y104855D01*
X81198Y104818D01*
X81599Y106879D01*
X81653Y106810D01*
D02*
G37*
G36*
X105576Y102861D02*
X105702Y102779D01*
X105829Y102706D01*
X105958Y102643D01*
X106088Y102590D01*
X106219Y102546D01*
X106351Y102512D01*
X106485Y102488D01*
X106620Y102473D01*
X106756Y102469D01*
X106897Y101469D01*
X106755Y101462D01*
X106619Y101445D01*
X106489Y101415D01*
X106363Y101373D01*
X106244Y101319D01*
X106130Y101253D01*
X106021Y101176D01*
X105918Y101086D01*
X105820Y100985D01*
X105727Y100871D01*
X105452Y102953D01*
X105576Y102861D01*
D02*
G37*
G36*
X114434Y97091D02*
X114242Y96629D01*
X107242D01*
X106884Y96988D01*
X106874Y97000D01*
X106847Y97044D01*
X106826Y97086D01*
X106811Y97128D01*
X106800Y97171D01*
X106793Y97220D01*
X106791Y97275D01*
X106795Y97339D01*
X106810Y97446D01*
X106807Y97504D01*
X106873Y97835D01*
X106694Y98732D01*
X106186Y99493D01*
X106096Y99553D01*
Y100053D01*
X106186Y100113D01*
X106333Y100335D01*
X106360Y100356D01*
X106431Y100443D01*
X106480Y100494D01*
X106526Y100534D01*
X106571Y100566D01*
X106615Y100592D01*
X106660Y100612D01*
X106709Y100628D01*
X106764Y100641D01*
X106780Y100643D01*
X110882D01*
X114434Y97091D01*
D02*
G37*
G36*
X105982Y97418D02*
X105975Y97280D01*
X105980Y97145D01*
X105999Y97015D01*
X106030Y96889D01*
X106075Y96767D01*
X106132Y96649D01*
X106202Y96536D01*
X106285Y96427D01*
X106382Y96322D01*
X105543Y95747D01*
X105444Y95839D01*
X105339Y95925D01*
X105228Y96003D01*
X105111Y96074D01*
X104988Y96139D01*
X104859Y96196D01*
X104725Y96246D01*
X104584Y96289D01*
X104437Y96325D01*
X104284Y96355D01*
X106002Y97562D01*
X105982Y97418D01*
D02*
G37*
G36*
X63612Y97678D02*
X63835Y97496D01*
X63941Y97426D01*
X64044Y97368D01*
X64144Y97325D01*
X64241Y97295D01*
X64334Y97278D01*
X64425Y97276D01*
X64511Y97286D01*
X63338Y95545D01*
X63320Y95616D01*
X63291Y95692D01*
X63252Y95774D01*
X63202Y95861D01*
X63141Y95952D01*
X62987Y96151D01*
X62895Y96258D01*
X62677Y96486D01*
X63495Y97790D01*
X63612Y97678D01*
D02*
G37*
G36*
X139432Y84447D02*
X139367Y84491D01*
X139291Y84531D01*
X139204Y84566D01*
X139106Y84596D01*
X138998Y84622D01*
X138878Y84643D01*
X138607Y84671D01*
X138456Y84678D01*
X138293Y84680D01*
X138059Y86180D01*
X138220Y86184D01*
X138508Y86212D01*
X138634Y86236D01*
X138750Y86267D01*
X138853Y86305D01*
X138945Y86351D01*
X139026Y86403D01*
X139095Y86462D01*
X139153Y86528D01*
X139432Y84447D01*
D02*
G37*
G36*
X131068Y74676D02*
X131092Y74385D01*
X131113Y74256D01*
X131140Y74138D01*
X131173Y74031D01*
X131212Y73934D01*
X131257Y73848D01*
X131308Y73773D01*
X131365Y73709D01*
X129265D01*
X129322Y73773D01*
X129373Y73848D01*
X129418Y73934D01*
X129457Y74031D01*
X129490Y74138D01*
X129517Y74256D01*
X129538Y74385D01*
X129553Y74525D01*
X129565Y74837D01*
X131065D01*
X131068Y74676D01*
D02*
G37*
G36*
X165668Y62183D02*
X165517Y62443D01*
X165358Y62675D01*
X165192Y62880D01*
X165018Y63058D01*
X164837Y63208D01*
X164648Y63331D01*
X164451Y63427D01*
X164246Y63495D01*
X164034Y63536D01*
X163815Y63550D01*
Y64550D01*
X164052Y64561D01*
X164290Y64597D01*
X164529Y64656D01*
X164770Y64738D01*
X165011Y64843D01*
X165254Y64973D01*
X165497Y65125D01*
X165742Y65302D01*
X165988Y65501D01*
X166235Y65724D01*
X165668Y62183D01*
D02*
G37*
G36*
X156159Y61516D02*
X155857Y61813D01*
X155282Y62315D01*
X155010Y62519D01*
X154748Y62691D01*
X154496Y62832D01*
X154253Y62942D01*
X154021Y63020D01*
X153798Y63067D01*
X153586Y63083D01*
Y64083D01*
X153798Y64098D01*
X154021Y64145D01*
X154253Y64224D01*
X154496Y64333D01*
X154748Y64474D01*
X155010Y64647D01*
X155282Y64850D01*
X155857Y65352D01*
X156159Y65650D01*
Y61516D01*
D02*
G37*
G36*
X155472Y57108D02*
X155663Y56984D01*
X155882Y56875D01*
X156131Y56781D01*
X156409Y56702D01*
X156717Y56639D01*
X157053Y56590D01*
X157814Y56538D01*
X158238Y56535D01*
X155315Y53612D01*
X155312Y54036D01*
X155260Y54797D01*
X155212Y55134D01*
X155148Y55441D01*
X155069Y55719D01*
X154976Y55968D01*
X154867Y56188D01*
X154743Y56378D01*
X154604Y56540D01*
X155311Y57247D01*
X155472Y57108D01*
D02*
G37*
G36*
X168016Y50641D02*
X167606Y50668D01*
X166867Y50664D01*
X166538Y50634D01*
X166237Y50585D01*
X165962Y50517D01*
X165714Y50430D01*
X165493Y50324D01*
X165299Y50199D01*
X165132Y50055D01*
X164479Y50817D01*
X164613Y50971D01*
X164735Y51157D01*
X164846Y51374D01*
X164947Y51623D01*
X165036Y51903D01*
X165115Y52215D01*
X165240Y52932D01*
X165286Y53338D01*
X165321Y53776D01*
X168016Y50641D01*
D02*
G37*
G36*
X158238Y130630D02*
X157814Y130627D01*
X157053Y130575D01*
X156717Y130527D01*
X156409Y130463D01*
X156131Y130385D01*
X155882Y130291D01*
X155663Y130182D01*
X155472Y130058D01*
X155311Y129919D01*
X154604Y130626D01*
X154743Y130787D01*
X154867Y130977D01*
X154976Y131197D01*
X155069Y131446D01*
X155148Y131724D01*
X155212Y132032D01*
X155260Y132368D01*
X155312Y133129D01*
X155315Y133553D01*
X158238Y130630D01*
D02*
G37*
G36*
X126246Y122948D02*
X126142Y123056D01*
X126034Y123152D01*
X125922Y123238D01*
X125806Y123311D01*
X125686Y123374D01*
X125562Y123425D01*
X125434Y123465D01*
X125302Y123493D01*
X125166Y123510D01*
X125027Y123516D01*
X125073Y124516D01*
X125211Y124521D01*
X125347Y124537D01*
X125480Y124564D01*
X125610Y124601D01*
X125738Y124648D01*
X125863Y124707D01*
X125986Y124776D01*
X126106Y124855D01*
X126223Y124945D01*
X126338Y125046D01*
X126246Y122948D01*
D02*
G37*
G36*
X128856Y123713D02*
X128864Y123568D01*
X128882Y123429D01*
X128911Y123295D01*
X128952Y123166D01*
X129003Y123042D01*
X129065Y122924D01*
X129138Y122810D01*
X129222Y122702D01*
X129317Y122599D01*
X128574Y121928D01*
X128472Y122022D01*
X128365Y122107D01*
X128253Y122183D01*
X128134Y122249D01*
X128010Y122306D01*
X127880Y122353D01*
X127745Y122392D01*
X127604Y122421D01*
X127457Y122441D01*
X127304Y122451D01*
X128860Y123862D01*
X128856Y123713D01*
D02*
G37*
G36*
X158492Y120639D02*
X158053Y120599D01*
X156926Y120417D01*
X156614Y120337D01*
X156333Y120245D01*
X156085Y120144D01*
X155868Y120032D01*
X155683Y119910D01*
X155529Y119778D01*
X154760Y120423D01*
X154905Y120591D01*
X155030Y120785D01*
X155135Y121006D01*
X155221Y121254D01*
X155288Y121528D01*
X155335Y121829D01*
X155363Y122156D01*
X155371Y122511D01*
X155359Y122892D01*
X155329Y123299D01*
X158492Y120639D01*
D02*
G37*
G36*
X126291Y118832D02*
X126181Y118936D01*
X126069Y119030D01*
X125953Y119112D01*
X125833Y119184D01*
X125711Y119244D01*
X125585Y119294D01*
X125455Y119332D01*
X125323Y119360D01*
X125187Y119376D01*
X125048Y119382D01*
X125048Y120382D01*
X125187Y120387D01*
X125323Y120404D01*
X125455Y120431D01*
X125585Y120470D01*
X125711Y120519D01*
X125833Y120580D01*
X125953Y120651D01*
X126069Y120734D01*
X126181Y120827D01*
X126291Y120932D01*
X126291Y118832D01*
D02*
G37*
G36*
X129383Y117027D02*
X129289Y116926D01*
X129204Y116819D01*
X129129Y116706D01*
X129063Y116588D01*
X129006Y116464D01*
X128958Y116334D01*
X128920Y116198D01*
X128891Y116057D01*
X128872Y115910D01*
X128861Y115758D01*
X127448Y117311D01*
X127597Y117308D01*
X127742Y117316D01*
X127881Y117334D01*
X128015Y117364D01*
X128144Y117404D01*
X128268Y117455D01*
X128387Y117518D01*
X128500Y117591D01*
X128608Y117675D01*
X128711Y117770D01*
X129383Y117027D01*
D02*
G37*
G36*
X126338Y114718D02*
X126223Y114819D01*
X126106Y114909D01*
X125986Y114988D01*
X125863Y115057D01*
X125738Y115115D01*
X125610Y115163D01*
X125480Y115200D01*
X125347Y115227D01*
X125211Y115243D01*
X125073Y115248D01*
X125027Y116248D01*
X125166Y116254D01*
X125302Y116271D01*
X125434Y116299D01*
X125562Y116339D01*
X125686Y116390D01*
X125806Y116452D01*
X125922Y116526D01*
X126034Y116611D01*
X126142Y116708D01*
X126246Y116816D01*
X126338Y114718D01*
D02*
G37*
G36*
X155953Y117411D02*
X156128Y117294D01*
X156339Y117180D01*
X156585Y117070D01*
X156865Y116964D01*
X157532Y116763D01*
X158339Y116576D01*
X158795Y116488D01*
X155374Y114168D01*
X155442Y114554D01*
X155486Y114916D01*
X155506Y115254D01*
X155502Y115569D01*
X155473Y115860D01*
X155420Y116128D01*
X155344Y116372D01*
X155242Y116593D01*
X155117Y116790D01*
X154968Y116963D01*
X155813Y117532D01*
X155953Y117411D01*
D02*
G37*
G36*
X129349Y113034D02*
X129255Y112932D01*
X129170Y112824D01*
X129096Y112711D01*
X129032Y112592D01*
X128978Y112468D01*
X128935Y112339D01*
X128901Y112204D01*
X128878Y112064D01*
X128865Y111918D01*
X128862Y111767D01*
X127371Y113245D01*
X127522Y113250D01*
X127668Y113264D01*
X127809Y113288D01*
X127944Y113322D01*
X128073Y113366D01*
X128197Y113421D01*
X128316Y113485D01*
X128429Y113559D01*
X128537Y113644D01*
X128639Y113738D01*
X129349Y113034D01*
D02*
G37*
G36*
X125857Y113425D02*
X125967Y113342D01*
X126079Y113274D01*
X126195Y113219D01*
X126315Y113179D01*
X126438Y113153D01*
X126565Y113142D01*
X126695Y113144D01*
X126828Y113161D01*
X126965Y113192D01*
X125908Y111377D01*
X125866Y111528D01*
X125767Y111811D01*
X125708Y111944D01*
X125645Y112071D01*
X125576Y112192D01*
X125501Y112307D01*
X125421Y112416D01*
X125335Y112518D01*
X125244Y112615D01*
X125751Y113522D01*
X125857Y113425D01*
D02*
G37*
G36*
X155472Y107108D02*
X155663Y106984D01*
X155882Y106875D01*
X156131Y106781D01*
X156409Y106702D01*
X156717Y106639D01*
X157053Y106590D01*
X157814Y106538D01*
X158238Y106535D01*
X155315Y103612D01*
X155312Y104036D01*
X155260Y104797D01*
X155212Y105134D01*
X155148Y105441D01*
X155069Y105719D01*
X154976Y105968D01*
X154867Y106188D01*
X154743Y106378D01*
X154604Y106540D01*
X155311Y107247D01*
X155472Y107108D01*
D02*
G37*
G36*
X22247Y132814D02*
X22299Y132053D01*
X22347Y131717D01*
X22411Y131409D01*
X22490Y131131D01*
X22583Y130882D01*
X22692Y130663D01*
X22816Y130472D01*
X22955Y130311D01*
X22248Y129604D01*
X22087Y129743D01*
X21896Y129867D01*
X21677Y129976D01*
X21428Y130069D01*
X21150Y130148D01*
X20842Y130212D01*
X20506Y130260D01*
X19745Y130312D01*
X19321Y130315D01*
X22244Y133238D01*
X22247Y132814D01*
D02*
G37*
G36*
X49037Y130810D02*
X48943Y130708D01*
X48858Y130600D01*
X48784Y130487D01*
X48720Y130369D01*
X48666Y130245D01*
X48622Y130115D01*
X48588Y129980D01*
X48564Y129840D01*
X48551Y129694D01*
X48547Y129543D01*
X47062Y131027D01*
X47214Y131031D01*
X47359Y131045D01*
X47500Y131068D01*
X47635Y131102D01*
X47764Y131146D01*
X47888Y131200D01*
X48007Y131264D01*
X48120Y131339D01*
X48228Y131423D01*
X48330Y131518D01*
X49037Y130810D01*
D02*
G37*
G36*
X47012Y128028D02*
X46861Y128026D01*
X46716Y128015D01*
X46576Y127992D01*
X46441Y127960D01*
X46312Y127917D01*
X46188Y127863D01*
X46069Y127800D01*
X45956Y127726D01*
X45848Y127641D01*
X45745Y127547D01*
X45048Y128264D01*
X45143Y128366D01*
X45227Y128474D01*
X45302Y128587D01*
X45366Y128705D01*
X45421Y128829D01*
X45466Y128959D01*
X45501Y129094D01*
X45526Y129235D01*
X45542Y129381D01*
X45547Y129533D01*
X47012Y128028D01*
D02*
G37*
G36*
X49037Y126676D02*
X48943Y126574D01*
X48858Y126467D01*
X48784Y126353D01*
X48720Y126235D01*
X48666Y126111D01*
X48622Y125981D01*
X48588Y125846D01*
X48564Y125706D01*
X48551Y125560D01*
X48547Y125409D01*
X47062Y126894D01*
X47214Y126897D01*
X47359Y126911D01*
X47500Y126935D01*
X47635Y126968D01*
X47764Y127012D01*
X47888Y127066D01*
X48007Y127130D01*
X48120Y127205D01*
X48228Y127289D01*
X48330Y127384D01*
X49037Y126676D01*
D02*
G37*
G36*
X46650Y123947D02*
X46513Y123978D01*
X46380Y123995D01*
X46250Y123997D01*
X46123Y123986D01*
X46000Y123960D01*
X45880Y123920D01*
X45764Y123865D01*
X45652Y123797D01*
X45542Y123714D01*
X45436Y123617D01*
X44929Y124524D01*
X45020Y124621D01*
X45106Y124724D01*
X45186Y124832D01*
X45261Y124947D01*
X45330Y125068D01*
X45393Y125195D01*
X45452Y125328D01*
X45551Y125611D01*
X45593Y125762D01*
X46650Y123947D01*
D02*
G37*
G36*
X21490Y125297D02*
X22447Y124644D01*
X22731Y124485D01*
X22998Y124354D01*
X23247Y124253D01*
X23478Y124180D01*
X23693Y124137D01*
X23889Y124122D01*
X24012Y123122D01*
X23789Y123106D01*
X23562Y123056D01*
X23332Y122973D01*
X23099Y122857D01*
X22863Y122709D01*
X22623Y122527D01*
X22380Y122312D01*
X22135Y122064D01*
X21885Y121783D01*
X21633Y121469D01*
X21137Y125573D01*
X21490Y125297D01*
D02*
G37*
G36*
X49037Y122543D02*
X48943Y122440D01*
X48858Y122333D01*
X48784Y122220D01*
X48720Y122101D01*
X48666Y121977D01*
X48622Y121847D01*
X48588Y121712D01*
X48564Y121572D01*
X48551Y121426D01*
X48547Y121275D01*
X47062Y122760D01*
X47214Y122763D01*
X47359Y122777D01*
X47500Y122801D01*
X47635Y122835D01*
X47764Y122878D01*
X47888Y122933D01*
X48007Y122997D01*
X48120Y123071D01*
X48228Y123155D01*
X48330Y123250D01*
X49037Y122543D01*
D02*
G37*
G36*
X45744Y120518D02*
X45669Y120637D01*
X45586Y120743D01*
X45496Y120836D01*
X45398Y120918D01*
X45293Y120986D01*
X45180Y121043D01*
X45059Y121086D01*
X44931Y121117D01*
X44795Y121136D01*
X44652Y121142D01*
X44934Y122143D01*
X45067Y122147D01*
X45201Y122159D01*
X45334Y122179D01*
X45468Y122207D01*
X45603Y122244D01*
X45737Y122289D01*
X45872Y122341D01*
X46143Y122471D01*
X46279Y122548D01*
X45744Y120518D01*
D02*
G37*
G36*
X49180Y117863D02*
X49090Y117768D01*
X49005Y117667D01*
X48846Y117448D01*
X48773Y117330D01*
X48639Y117077D01*
X48579Y116941D01*
X48471Y116653D01*
X47549Y118540D01*
X47679Y118500D01*
X47807Y118476D01*
X47933Y118468D01*
X48055Y118474D01*
X48175Y118496D01*
X48293Y118533D01*
X48407Y118585D01*
X48519Y118652D01*
X48629Y118734D01*
X48735Y118832D01*
X49180Y117863D01*
D02*
G37*
G36*
X45867Y119021D02*
X45974Y118937D01*
X46088Y118863D01*
X46206Y118799D01*
X46330Y118745D01*
X46460Y118701D01*
X46595Y118667D01*
X46735Y118643D01*
X46881Y118629D01*
X47032Y118626D01*
X45547Y117141D01*
X45544Y117292D01*
X45530Y117438D01*
X45507Y117578D01*
X45473Y117713D01*
X45429Y117843D01*
X45375Y117967D01*
X45310Y118086D01*
X45236Y118199D01*
X45152Y118307D01*
X45057Y118409D01*
X45764Y119116D01*
X45867Y119021D01*
D02*
G37*
G36*
X22955Y116225D02*
X22816Y116063D01*
X22692Y115873D01*
X22583Y115653D01*
X22490Y115404D01*
X22411Y115126D01*
X22347Y114819D01*
X22299Y114482D01*
X22247Y113721D01*
X22244Y113297D01*
X19321Y116220D01*
X19745Y116224D01*
X20506Y116275D01*
X20842Y116324D01*
X21150Y116387D01*
X21428Y116466D01*
X21677Y116560D01*
X21896Y116669D01*
X22087Y116793D01*
X22248Y116932D01*
X22955Y116225D01*
D02*
G37*
G36*
X22551Y106686D02*
X22401Y106512D01*
X22275Y106315D01*
X22175Y106095D01*
X22100Y105851D01*
X22050Y105585D01*
X22024Y105296D01*
X22024Y104983D01*
X22049Y104648D01*
X22099Y104290D01*
X22174Y103909D01*
X18708Y106162D01*
X19167Y106260D01*
X20647Y106673D01*
X20927Y106781D01*
X21172Y106893D01*
X21381Y107007D01*
X21554Y107123D01*
X21691Y107241D01*
X22551Y106686D01*
D02*
G37*
G36*
X170084Y131216D02*
X169860Y130960D01*
X169663Y130705D01*
X169492Y130451D01*
X169347Y130199D01*
X169228Y129948D01*
X169136Y129698D01*
X169070Y129449D01*
X169031Y129201D01*
X169018Y128955D01*
X167518D01*
X167505Y129201D01*
X167465Y129449D01*
X167399Y129698D01*
X167307Y129948D01*
X167189Y130199D01*
X167044Y130451D01*
X166872Y130705D01*
X166675Y130960D01*
X166451Y131216D01*
X166201Y131474D01*
X170335D01*
X170084Y131216D01*
D02*
G37*
G36*
X169031Y127964D02*
X169070Y127717D01*
X169136Y127468D01*
X169228Y127218D01*
X169347Y126967D01*
X169492Y126714D01*
X169663Y126460D01*
X169860Y126205D01*
X170084Y125949D01*
X170335Y125691D01*
X166201D01*
X166451Y125949D01*
X166675Y126205D01*
X166872Y126460D01*
X167044Y126714D01*
X167189Y126967D01*
X167307Y127218D01*
X167399Y127468D01*
X167465Y127717D01*
X167505Y127964D01*
X167518Y128210D01*
X169018D01*
X169031Y127964D01*
D02*
G37*
G36*
X11108Y130902D02*
X10884Y130645D01*
X10687Y130390D01*
X10515Y130136D01*
X10371Y129884D01*
X10252Y129633D01*
X10160Y129383D01*
X10094Y129134D01*
X10054Y128886D01*
X10041Y128640D01*
X8541D01*
X8528Y128886D01*
X8489Y129134D01*
X8423Y129383D01*
X8331Y129633D01*
X8212Y129884D01*
X8067Y130136D01*
X7896Y130390D01*
X7699Y130645D01*
X7475Y130902D01*
X7224Y131159D01*
X11358D01*
X11108Y130902D01*
D02*
G37*
G36*
X10054Y127649D02*
X10094Y127401D01*
X10160Y127153D01*
X10252Y126903D01*
X10371Y126652D01*
X10515Y126399D01*
X10687Y126145D01*
X10884Y125890D01*
X11108Y125634D01*
X11358Y125376D01*
X7224D01*
X7475Y125634D01*
X7699Y125890D01*
X7896Y126145D01*
X8067Y126399D01*
X8212Y126652D01*
X8331Y126903D01*
X8423Y127153D01*
X8489Y127401D01*
X8528Y127649D01*
X8541Y127895D01*
X10041D01*
X10054Y127649D01*
D02*
G37*
G36*
X170084Y121216D02*
X169860Y120960D01*
X169663Y120705D01*
X169492Y120451D01*
X169347Y120199D01*
X169228Y119948D01*
X169136Y119698D01*
X169070Y119449D01*
X169031Y119201D01*
X169018Y118955D01*
X167518D01*
X167505Y119201D01*
X167465Y119449D01*
X167399Y119698D01*
X167307Y119948D01*
X167189Y120199D01*
X167044Y120451D01*
X166872Y120705D01*
X166675Y120960D01*
X166451Y121216D01*
X166201Y121474D01*
X170335D01*
X170084Y121216D01*
D02*
G37*
G36*
X169031Y117964D02*
X169070Y117717D01*
X169136Y117468D01*
X169228Y117218D01*
X169347Y116966D01*
X169492Y116714D01*
X169663Y116460D01*
X169860Y116205D01*
X170084Y115949D01*
X170335Y115691D01*
X166201D01*
X166451Y115949D01*
X166675Y116205D01*
X166872Y116460D01*
X167044Y116714D01*
X167189Y116966D01*
X167307Y117218D01*
X167399Y117468D01*
X167465Y117717D01*
X167505Y117964D01*
X167518Y118210D01*
X169018D01*
X169031Y117964D01*
D02*
G37*
G36*
X11108Y120902D02*
X10884Y120645D01*
X10687Y120390D01*
X10515Y120136D01*
X10371Y119884D01*
X10252Y119633D01*
X10160Y119383D01*
X10094Y119134D01*
X10054Y118886D01*
X10041Y118640D01*
X8541D01*
X8528Y118886D01*
X8489Y119134D01*
X8423Y119383D01*
X8331Y119633D01*
X8212Y119884D01*
X8067Y120136D01*
X7896Y120390D01*
X7699Y120645D01*
X7475Y120902D01*
X7224Y121159D01*
X11358D01*
X11108Y120902D01*
D02*
G37*
G36*
X10054Y117649D02*
X10094Y117402D01*
X10160Y117153D01*
X10252Y116903D01*
X10371Y116651D01*
X10515Y116399D01*
X10687Y116145D01*
X10884Y115890D01*
X11108Y115634D01*
X11358Y115376D01*
X7224D01*
X7475Y115634D01*
X7699Y115890D01*
X7896Y116145D01*
X8067Y116399D01*
X8212Y116651D01*
X8331Y116903D01*
X8423Y117153D01*
X8489Y117402D01*
X8528Y117649D01*
X8541Y117895D01*
X10041D01*
X10054Y117649D01*
D02*
G37*
G36*
X170084Y111216D02*
X169860Y110960D01*
X169663Y110705D01*
X169492Y110451D01*
X169347Y110199D01*
X169228Y109948D01*
X169136Y109698D01*
X169070Y109449D01*
X169031Y109201D01*
X169018Y108955D01*
X167518D01*
X167505Y109201D01*
X167465Y109449D01*
X167399Y109698D01*
X167307Y109948D01*
X167189Y110199D01*
X167044Y110451D01*
X166872Y110705D01*
X166675Y110960D01*
X166451Y111216D01*
X166201Y111474D01*
X170335D01*
X170084Y111216D01*
D02*
G37*
G36*
X169031Y107964D02*
X169070Y107717D01*
X169136Y107468D01*
X169228Y107218D01*
X169347Y106966D01*
X169492Y106714D01*
X169663Y106460D01*
X169860Y106205D01*
X170084Y105949D01*
X170335Y105691D01*
X166201D01*
X166451Y105949D01*
X166675Y106205D01*
X166872Y106460D01*
X167044Y106714D01*
X167189Y106966D01*
X167307Y107218D01*
X167399Y107468D01*
X167465Y107717D01*
X167505Y107964D01*
X167518Y108210D01*
X169018D01*
X169031Y107964D01*
D02*
G37*
G36*
X11108Y110901D02*
X10884Y110645D01*
X10687Y110390D01*
X10515Y110136D01*
X10371Y109884D01*
X10252Y109633D01*
X10160Y109383D01*
X10094Y109134D01*
X10054Y108886D01*
X10041Y108640D01*
X8541D01*
X8528Y108886D01*
X8489Y109134D01*
X8423Y109383D01*
X8331Y109633D01*
X8212Y109884D01*
X8067Y110136D01*
X7896Y110390D01*
X7699Y110645D01*
X7475Y110901D01*
X7224Y111159D01*
X11358D01*
X11108Y110901D01*
D02*
G37*
G36*
X10054Y107649D02*
X10094Y107402D01*
X10160Y107153D01*
X10252Y106903D01*
X10371Y106651D01*
X10515Y106399D01*
X10687Y106145D01*
X10884Y105890D01*
X11108Y105634D01*
X11358Y105376D01*
X7224D01*
X7475Y105634D01*
X7699Y105890D01*
X7896Y106145D01*
X8067Y106399D01*
X8212Y106651D01*
X8331Y106903D01*
X8423Y107153D01*
X8489Y107402D01*
X8528Y107649D01*
X8541Y107895D01*
X10041D01*
X10054Y107649D01*
D02*
G37*
G36*
X48623Y111450D02*
X48705Y111344D01*
X48795Y111250D01*
X48893Y111169D01*
X48998Y111100D01*
X49111Y111044D01*
X49232Y111000D01*
X49360Y110969D01*
X49496Y110950D01*
X49639Y110944D01*
X49357Y109944D01*
X49224Y109940D01*
X49091Y109928D01*
X48957Y109908D01*
X48823Y109879D01*
X48689Y109843D01*
X48554Y109798D01*
X48419Y109745D01*
X48148Y109615D01*
X48012Y109538D01*
X48548Y111569D01*
X48623Y111450D01*
D02*
G37*
G36*
X47229Y109327D02*
X47078Y109323D01*
X46932Y109310D01*
X46791Y109286D01*
X46657Y109252D01*
X46527Y109208D01*
X46403Y109154D01*
X46284Y109090D01*
X46171Y109016D01*
X46064Y108931D01*
X45961Y108837D01*
X45254Y109544D01*
X45349Y109646D01*
X45433Y109754D01*
X45507Y109867D01*
X45571Y109986D01*
X45625Y110110D01*
X45669Y110239D01*
X45703Y110374D01*
X45727Y110515D01*
X45741Y110661D01*
X45744Y110812D01*
X47229Y109327D01*
D02*
G37*
G36*
X48748Y106527D02*
X48761Y106381D01*
X48785Y106240D01*
X48819Y106105D01*
X48863Y105976D01*
X48917Y105852D01*
X48981Y105733D01*
X49055Y105620D01*
X49140Y105512D01*
X49234Y105410D01*
X48527Y104703D01*
X48425Y104797D01*
X48317Y104882D01*
X48204Y104956D01*
X48085Y105020D01*
X47961Y105074D01*
X47832Y105118D01*
X47697Y105152D01*
X47556Y105176D01*
X47410Y105190D01*
X47259Y105193D01*
X48744Y106678D01*
X48748Y106527D01*
D02*
G37*
G36*
X47229Y105193D02*
X47078Y105190D01*
X46932Y105176D01*
X46791Y105152D01*
X46657Y105118D01*
X46527Y105074D01*
X46403Y105020D01*
X46284Y104956D01*
X46171Y104882D01*
X46064Y104797D01*
X45961Y104703D01*
X45254Y105410D01*
X45349Y105512D01*
X45433Y105620D01*
X45507Y105733D01*
X45571Y105852D01*
X45625Y105976D01*
X45669Y106105D01*
X45703Y106240D01*
X45727Y106381D01*
X45741Y106527D01*
X45744Y106678D01*
X47229Y105193D01*
D02*
G37*
G36*
X48740Y102777D02*
X48840Y102493D01*
X48898Y102360D01*
X48961Y102233D01*
X49031Y102113D01*
X49105Y101998D01*
X49185Y101889D01*
X49271Y101786D01*
X49362Y101689D01*
X48855Y100782D01*
X48749Y100879D01*
X48640Y100962D01*
X48527Y101031D01*
X48411Y101085D01*
X48291Y101125D01*
X48168Y101151D01*
X48042Y101163D01*
X47912Y101160D01*
X47778Y101144D01*
X47641Y101113D01*
X48698Y102927D01*
X48740Y102777D01*
D02*
G37*
G36*
X47492Y101080D02*
X47339Y101050D01*
X47192Y101014D01*
X47051Y100970D01*
X46916Y100919D01*
X46787Y100862D01*
X46665Y100798D01*
X46548Y100726D01*
X46437Y100648D01*
X46332Y100563D01*
X46233Y100470D01*
X45392Y101043D01*
X45489Y101148D01*
X45572Y101257D01*
X45642Y101371D01*
X45699Y101488D01*
X45744Y101610D01*
X45775Y101736D01*
X45793Y101866D01*
X45798Y102000D01*
X45791Y102139D01*
X45770Y102282D01*
X47492Y101080D01*
D02*
G37*
G36*
X48584Y98930D02*
X48674Y98826D01*
X48770Y98734D01*
X48874Y98654D01*
X48983Y98586D01*
X49099Y98531D01*
X49222Y98488D01*
X49352Y98458D01*
X49488Y98439D01*
X49630Y98433D01*
X49416Y97433D01*
X49281Y97429D01*
X49147Y97415D01*
X49013Y97393D01*
X48880Y97362D01*
X48747Y97322D01*
X48614Y97273D01*
X48482Y97215D01*
X48350Y97148D01*
X48219Y97073D01*
X48088Y96988D01*
X48501Y99047D01*
X48584Y98930D01*
D02*
G37*
G36*
X47229Y96728D02*
X47078Y96725D01*
X46932Y96711D01*
X46791Y96688D01*
X46657Y96654D01*
X46527Y96610D01*
X46403Y96556D01*
X46284Y96491D01*
X46171Y96417D01*
X46064Y96333D01*
X45961Y96238D01*
X45254Y96946D01*
X45349Y97048D01*
X45433Y97155D01*
X45507Y97269D01*
X45571Y97387D01*
X45625Y97511D01*
X45669Y97641D01*
X45703Y97776D01*
X45727Y97916D01*
X45741Y98062D01*
X45744Y98213D01*
X47229Y96728D01*
D02*
G37*
G36*
X21702Y95037D02*
X22277Y94535D01*
X22549Y94332D01*
X22811Y94159D01*
X23064Y94018D01*
X23306Y93909D01*
X23538Y93830D01*
X23761Y93783D01*
X23973Y93768D01*
Y92768D01*
X23761Y92752D01*
X23538Y92705D01*
X23306Y92627D01*
X23064Y92517D01*
X22811Y92376D01*
X22549Y92204D01*
X22277Y92000D01*
X21702Y91499D01*
X21400Y91201D01*
Y95335D01*
X21702Y95037D01*
D02*
G37*
G36*
Y85037D02*
X22277Y84535D01*
X22549Y84332D01*
X22811Y84159D01*
X23064Y84018D01*
X23306Y83909D01*
X23538Y83830D01*
X23761Y83783D01*
X23973Y83768D01*
Y82768D01*
X23761Y82752D01*
X23538Y82705D01*
X23306Y82627D01*
X23064Y82517D01*
X22811Y82376D01*
X22549Y82204D01*
X22277Y82000D01*
X21702Y81498D01*
X21400Y81201D01*
Y85335D01*
X21702Y85037D01*
D02*
G37*
G36*
X22498Y76735D02*
X22346Y76559D01*
X22221Y76362D01*
X22122Y76142D01*
X22049Y75899D01*
X22002Y75635D01*
X21981Y75349D01*
X21985Y75040D01*
X22016Y74709D01*
X22074Y74356D01*
X22157Y73981D01*
X18636Y76147D01*
X19099Y76257D01*
X20586Y76702D01*
X20866Y76815D01*
X21109Y76928D01*
X21316Y77041D01*
X21486Y77156D01*
X21619Y77271D01*
X22498Y76735D01*
D02*
G37*
G36*
X22988Y66178D02*
X22850Y66018D01*
X22726Y65829D01*
X22617Y65610D01*
X22521Y65361D01*
X22440Y65082D01*
X22372Y64773D01*
X22319Y64435D01*
X22255Y63669D01*
X22244Y63242D01*
X19376Y66219D01*
X19797Y66215D01*
X20553Y66254D01*
X20887Y66298D01*
X21193Y66358D01*
X21471Y66434D01*
X21720Y66526D01*
X21940Y66634D01*
X22131Y66758D01*
X22294Y66899D01*
X22988Y66178D01*
D02*
G37*
G36*
X11108Y100901D02*
X10884Y100645D01*
X10687Y100390D01*
X10515Y100136D01*
X10371Y99884D01*
X10252Y99633D01*
X10160Y99383D01*
X10094Y99134D01*
X10054Y98886D01*
X10041Y98640D01*
X8541D01*
X8528Y98886D01*
X8489Y99134D01*
X8423Y99383D01*
X8331Y99633D01*
X8212Y99884D01*
X8067Y100136D01*
X7896Y100390D01*
X7699Y100645D01*
X7475Y100901D01*
X7224Y101159D01*
X11358D01*
X11108Y100901D01*
D02*
G37*
G36*
X10054Y97649D02*
X10094Y97401D01*
X10160Y97153D01*
X10252Y96903D01*
X10371Y96652D01*
X10515Y96399D01*
X10687Y96145D01*
X10884Y95890D01*
X11108Y95634D01*
X11358Y95376D01*
X7224D01*
X7475Y95634D01*
X7699Y95890D01*
X7896Y96145D01*
X8067Y96399D01*
X8212Y96652D01*
X8331Y96903D01*
X8423Y97153D01*
X8489Y97401D01*
X8528Y97649D01*
X8541Y97895D01*
X10041D01*
X10054Y97649D01*
D02*
G37*
G36*
X11108Y90901D02*
X10884Y90645D01*
X10687Y90390D01*
X10515Y90136D01*
X10371Y89884D01*
X10252Y89633D01*
X10160Y89383D01*
X10094Y89134D01*
X10054Y88886D01*
X10041Y88640D01*
X8541D01*
X8528Y88886D01*
X8489Y89134D01*
X8423Y89383D01*
X8331Y89633D01*
X8212Y89884D01*
X8067Y90136D01*
X7896Y90390D01*
X7699Y90645D01*
X7475Y90901D01*
X7224Y91159D01*
X11358D01*
X11108Y90901D01*
D02*
G37*
G36*
X10054Y87649D02*
X10094Y87401D01*
X10160Y87153D01*
X10252Y86903D01*
X10371Y86651D01*
X10515Y86399D01*
X10687Y86145D01*
X10884Y85890D01*
X11108Y85634D01*
X11358Y85376D01*
X7224D01*
X7475Y85634D01*
X7699Y85890D01*
X7896Y86145D01*
X8067Y86399D01*
X8212Y86651D01*
X8331Y86903D01*
X8423Y87153D01*
X8489Y87401D01*
X8528Y87649D01*
X8541Y87895D01*
X10041D01*
X10054Y87649D01*
D02*
G37*
G36*
X46456Y76339D02*
X46569Y76246D01*
X46685Y76163D01*
X46804Y76092D01*
X46927Y76031D01*
X47053Y75982D01*
X47182Y75943D01*
X47315Y75916D01*
X47451Y75899D01*
X47590Y75894D01*
Y74894D01*
X47451Y74888D01*
X47315Y74872D01*
X47182Y74844D01*
X47053Y74806D01*
X46927Y74756D01*
X46804Y74696D01*
X46685Y74624D01*
X46569Y74542D01*
X46456Y74448D01*
X46347Y74344D01*
Y76444D01*
X46456Y76339D01*
D02*
G37*
G36*
X11108Y80901D02*
X10884Y80645D01*
X10687Y80390D01*
X10515Y80136D01*
X10371Y79884D01*
X10252Y79633D01*
X10160Y79383D01*
X10094Y79134D01*
X10054Y78886D01*
X10041Y78640D01*
X8541D01*
X8528Y78886D01*
X8489Y79134D01*
X8423Y79383D01*
X8331Y79633D01*
X8212Y79884D01*
X8067Y80136D01*
X7896Y80390D01*
X7699Y80645D01*
X7475Y80901D01*
X7224Y81159D01*
X11358D01*
X11108Y80901D01*
D02*
G37*
G36*
X10054Y77649D02*
X10094Y77402D01*
X10160Y77153D01*
X10252Y76903D01*
X10371Y76652D01*
X10515Y76399D01*
X10687Y76145D01*
X10884Y75890D01*
X11108Y75634D01*
X11358Y75376D01*
X7224D01*
X7475Y75634D01*
X7699Y75890D01*
X7896Y76145D01*
X8067Y76399D01*
X8212Y76652D01*
X8331Y76903D01*
X8423Y77153D01*
X8489Y77402D01*
X8528Y77649D01*
X8541Y77895D01*
X10041D01*
X10054Y77649D01*
D02*
G37*
G36*
X22230Y54173D02*
X22261Y54088D01*
X22311Y54013D01*
X22382Y53948D01*
X22473Y53893D01*
X22584Y53848D01*
X22716Y53813D01*
X22868Y53788D01*
X23040Y53773D01*
X23232Y53768D01*
Y52768D01*
X23040Y52763D01*
X22868Y52748D01*
X22716Y52723D01*
X22584Y52688D01*
X22473Y52643D01*
X22382Y52588D01*
X22311Y52523D01*
X22261Y52448D01*
X22230Y52363D01*
X22220Y52268D01*
Y54268D01*
X22230Y54173D01*
D02*
G37*
G36*
X11108Y70902D02*
X10884Y70645D01*
X10687Y70390D01*
X10515Y70136D01*
X10371Y69884D01*
X10252Y69633D01*
X10160Y69383D01*
X10094Y69134D01*
X10054Y68886D01*
X10041Y68640D01*
X8541D01*
X8528Y68886D01*
X8489Y69134D01*
X8423Y69383D01*
X8331Y69633D01*
X8212Y69884D01*
X8067Y70136D01*
X7896Y70390D01*
X7699Y70645D01*
X7475Y70902D01*
X7224Y71159D01*
X11358D01*
X11108Y70902D01*
D02*
G37*
G36*
X10054Y67649D02*
X10094Y67401D01*
X10160Y67153D01*
X10252Y66903D01*
X10371Y66651D01*
X10515Y66399D01*
X10687Y66145D01*
X10884Y65890D01*
X11108Y65634D01*
X11358Y65376D01*
X7224D01*
X7475Y65634D01*
X7699Y65890D01*
X7896Y66145D01*
X8067Y66399D01*
X8212Y66651D01*
X8331Y66903D01*
X8423Y67153D01*
X8489Y67401D01*
X8528Y67649D01*
X8541Y67895D01*
X10041D01*
X10054Y67649D01*
D02*
G37*
G36*
X11108Y60901D02*
X10884Y60645D01*
X10687Y60390D01*
X10515Y60136D01*
X10371Y59884D01*
X10252Y59633D01*
X10160Y59383D01*
X10094Y59134D01*
X10054Y58886D01*
X10041Y58640D01*
X8541D01*
X8528Y58886D01*
X8489Y59134D01*
X8423Y59383D01*
X8331Y59633D01*
X8212Y59884D01*
X8067Y60136D01*
X7896Y60390D01*
X7699Y60645D01*
X7475Y60901D01*
X7224Y61159D01*
X11358D01*
X11108Y60901D01*
D02*
G37*
G36*
X10054Y57649D02*
X10094Y57402D01*
X10160Y57153D01*
X10252Y56903D01*
X10371Y56652D01*
X10515Y56399D01*
X10687Y56145D01*
X10884Y55890D01*
X11108Y55634D01*
X11358Y55376D01*
X7224D01*
X7475Y55634D01*
X7699Y55890D01*
X7896Y56145D01*
X8067Y56399D01*
X8212Y56652D01*
X8331Y56903D01*
X8423Y57153D01*
X8489Y57402D01*
X8528Y57649D01*
X8541Y57895D01*
X10041D01*
X10054Y57649D01*
D02*
G37*
D13*
X50787Y75394D02*
X51173D01*
X45276D02*
X50787D01*
X167953Y53583D02*
X168268D01*
X163700Y49330D02*
X167953Y53583D01*
X150344Y58872D02*
X153567Y55649D01*
Y52269D02*
Y55649D01*
Y52269D02*
X156506Y49330D01*
X163700D01*
X150344Y58872D02*
Y60510D01*
X152144Y59707D02*
X158268Y53583D01*
X152144Y59707D02*
Y61256D01*
X54058Y146868D02*
X76138Y124787D01*
X53312Y145068D02*
X75393Y122987D01*
X52567Y143268D02*
X77953Y117882D01*
Y117520D02*
Y117882D01*
X75393Y122987D02*
X84887D01*
X76138Y124787D02*
X81693D01*
X82480Y125575D01*
X41553Y146868D02*
X54058D01*
X88878Y106004D02*
X93602D01*
X87992Y119882D02*
X95866Y112008D01*
Y110433D02*
Y112008D01*
Y110433D02*
X97441Y108858D01*
X97835D01*
X44685Y95669D02*
X47244Y98228D01*
X43271Y95669D02*
X44685D01*
X24213Y76611D02*
X43271Y95669D01*
X121260Y123031D02*
X121646Y123417D01*
X124008D01*
X124606Y124016D01*
X127297D02*
X127362Y123950D01*
X124606Y124016D02*
X127297D01*
X121260Y116732D02*
X121646Y116347D01*
X124008D01*
X124606Y115748D01*
X127297D02*
X127362Y115814D01*
X124606Y115748D02*
X127297D01*
X82480Y125787D02*
X85236D01*
X97452Y109241D02*
X97835Y108858D01*
X88130Y100606D02*
X88433Y100303D01*
X64823Y167504D02*
X64961Y167366D01*
X64823Y167504D02*
X65012Y167693D01*
X59399Y131693D02*
X59842D01*
X59153D02*
X59399D01*
X59707Y97638D02*
X59842D01*
X59153D02*
X59707D01*
X59018Y97502D02*
X59153Y97638D01*
X58768Y97252D02*
X59018Y97502D01*
X49213Y131693D02*
X53543D01*
X47047Y129528D02*
X49213Y131693D01*
X50197Y128543D02*
X53543D01*
X47047Y125394D02*
X50197Y128543D01*
X53158Y125008D02*
X53543Y125394D01*
X50795Y125008D02*
X53158D01*
X47047Y121260D02*
X50795Y125008D01*
X52854Y122244D02*
X53543D01*
X48119Y117509D02*
X52854Y122244D01*
X47430Y117509D02*
X48119D01*
X47047Y117126D02*
X47430Y117509D01*
X49557Y100787D02*
X53543D01*
X47785Y102559D02*
X49557Y100787D01*
X47244Y102559D02*
X47785D01*
X53471Y104010D02*
X53543Y103937D01*
X49927Y104010D02*
X53471D01*
X47244Y106693D02*
X49927Y104010D01*
X52854Y107087D02*
X53543D01*
X50591Y109350D02*
X52854Y107087D01*
X50591Y109350D02*
Y109646D01*
X47244Y110827D02*
X47627Y110444D01*
X49792D01*
X50591Y109646D01*
X115550Y95304D02*
X150344Y60510D01*
X106693Y95304D02*
X115550D01*
X115761Y95092D01*
X104528Y97469D02*
Y97835D01*
Y97469D02*
X106693Y95304D01*
X104528Y97835D02*
X105069D01*
X88130Y100606D02*
Y100803D01*
X64738Y95817D02*
X64813D01*
X58768Y132079D02*
X59153Y131693D01*
X19291Y143268D02*
X52567D01*
X40168Y145068D02*
X53312D01*
X38824Y149597D02*
X41553Y146868D01*
X38824Y149597D02*
Y150372D01*
X37183Y152013D02*
X38824Y150372D01*
X18036Y152013D02*
X37183D01*
X36024Y149213D02*
X40168Y145068D01*
X104528Y97835D02*
X104724Y97638D01*
X104528Y101772D02*
X104724Y101969D01*
X111431D02*
X152144Y61256D01*
X104287Y111658D02*
X152362Y63583D01*
X105032Y113458D02*
X152546Y65945D01*
X9291Y143268D02*
X18036Y152013D01*
X47019Y129528D02*
X47047D01*
X46506Y125394D02*
X47047D01*
X46665Y121642D02*
X47047Y121260D01*
Y117126D02*
Y117126D01*
X44488Y119685D02*
X47047Y117126D01*
X28254Y119685D02*
X44488D01*
X44734Y123622D02*
X46506Y125394D01*
X19646Y123622D02*
X44734D01*
X84887Y122987D02*
X87992Y119882D01*
X87996D01*
X98765Y111658D02*
X104287D01*
X99511Y113458D02*
X105032D01*
X93504Y119465D02*
X99511Y113458D01*
X89567Y120857D02*
X98765Y111658D01*
X89567Y125591D02*
X89764Y125787D01*
X89567Y120857D02*
Y125591D01*
X93504Y125394D02*
X93701Y125591D01*
X93504Y119465D02*
Y125394D01*
X97933Y118996D02*
X97982Y119045D01*
Y123967D02*
X98032Y124016D01*
X97982Y119045D02*
Y123967D01*
X74803Y91732D02*
Y110039D01*
X77953Y113189D01*
X93602Y106004D02*
X93701Y105905D01*
X88779Y106102D02*
X88878Y106004D01*
X77953Y113189D02*
Y114198D01*
X53248Y97933D02*
X53543Y97638D01*
X47539Y97933D02*
X53248D01*
X47244Y98228D02*
X47539Y97933D01*
X53510Y89975D02*
X53815Y90280D01*
X19291Y53268D02*
X31614D01*
X47835Y69488D02*
X50787D01*
X31614Y53268D02*
X47835Y69488D01*
X52051Y76272D02*
Y82118D01*
X51173Y75394D02*
X52051Y76272D01*
X62673Y86539D02*
X64098D01*
X61590D02*
X62673D01*
X68898Y91339D02*
Y91732D01*
X64098Y86539D02*
X68898Y91339D01*
X60909Y85858D02*
X61590Y86539D01*
X51634Y75787D02*
X51968D01*
X19291Y93268D02*
X32769D01*
X42487Y102986D01*
Y106069D02*
X47244Y110827D01*
X42487Y102986D02*
Y106069D01*
X44287Y103735D02*
X47244Y106693D01*
Y102188D02*
Y102559D01*
X47152Y102467D02*
X47244Y102559D01*
X19291Y74235D02*
X47244Y102188D01*
X44287Y101776D02*
Y103735D01*
X25778Y83268D02*
X44287Y101776D01*
X19291Y83268D02*
X25778D01*
X19291Y63268D02*
X19370D01*
X24213Y68110D01*
Y76611D01*
X19291Y73268D02*
Y74235D01*
Y133268D02*
X27137Y125422D01*
X42913D01*
X47019Y129528D01*
X19291Y103268D02*
Y104134D01*
X24409Y109252D01*
Y115840D01*
X28254Y119685D01*
X19291Y113268D02*
X27677Y121653D01*
X44488D02*
X44499Y121642D01*
X27677Y121653D02*
X44488D01*
X44499Y121642D02*
X46665D01*
X19291Y123268D02*
X19646Y123622D01*
X19291Y73268D02*
X19758Y73735D01*
X19291Y83268D02*
Y84252D01*
X114272Y123031D02*
X114961D01*
X104331Y132972D02*
Y133661D01*
X104724Y101969D02*
X111431D01*
X129724Y121485D02*
X151973D01*
X154015Y129330D02*
X158268Y133583D01*
X154015Y123527D02*
Y129330D01*
X151973Y121485D02*
X154015Y123527D01*
X127362Y123847D02*
Y123950D01*
Y123847D02*
X129724Y121485D01*
X131693Y116085D02*
X152564D01*
X154015Y107835D02*
X158268Y103583D01*
X154015Y107835D02*
Y114634D01*
X152564Y116085D02*
X154015Y114634D01*
X127362Y111745D02*
Y111754D01*
X131693Y116085D01*
X158268Y113583D02*
Y114370D01*
X129533Y117885D02*
X154753D01*
X158268Y114370D01*
X127362Y115814D02*
X127462D01*
X129533Y117885D01*
X127559Y119685D02*
X154729D01*
X158268Y123224D02*
Y123583D01*
X154729Y119685D02*
X158268Y123224D01*
X127362Y119882D02*
X127559Y119685D01*
X121260Y113583D02*
X124984D01*
X126821Y111745D01*
X127362D01*
X126821Y115814D02*
X127362D01*
X121260Y119882D02*
X127362D01*
X127362Y119882D01*
X126821Y123950D02*
X127362D01*
X19291Y133268D02*
X20164D01*
X19291Y143268D02*
X19889Y142670D01*
X152546Y65945D02*
X154331D01*
X167801Y64050D02*
X168268Y63583D01*
X163815Y64050D02*
X167801D01*
X160029Y67835D02*
X163815Y64050D01*
X156221Y67835D02*
X160029D01*
X154331Y65945D02*
X156221Y67835D01*
X9291Y143268D02*
X9803D01*
X19291Y142717D02*
Y143268D01*
Y63268D02*
Y64173D01*
Y93268D02*
Y93701D01*
X61992Y85858D02*
X62673Y86539D01*
X62721D01*
X60909Y85858D02*
X61992D01*
X152362Y63583D02*
X158268D01*
X167801Y53116D02*
X168268Y53583D01*
Y63583D02*
Y63622D01*
D14*
X59055Y161221D02*
D03*
X64961D02*
D03*
X74803Y91732D02*
D03*
X68898D02*
D03*
X103937Y124016D02*
D03*
X98032D02*
D03*
D15*
X50787Y69488D02*
D03*
Y75394D02*
D03*
X93701Y100000D02*
D03*
Y105905D02*
D03*
D19*
X96638Y139508D02*
D03*
Y145020D02*
D03*
D22*
X59311Y167504D02*
D03*
X64823D02*
D03*
X82618Y100606D02*
D03*
X88130D02*
D03*
X136083Y164551D02*
D03*
X130571D02*
D03*
D23*
X53543Y122244D02*
D03*
Y125394D02*
D03*
Y128543D02*
D03*
Y131693D02*
D03*
X59842D02*
D03*
Y128543D02*
D03*
Y125394D02*
D03*
Y122244D02*
D03*
X53543Y97638D02*
D03*
Y100787D02*
D03*
Y103937D02*
D03*
Y107087D02*
D03*
X59842D02*
D03*
Y103937D02*
D03*
Y100787D02*
D03*
Y97638D02*
D03*
X114961Y123031D02*
D03*
Y119882D02*
D03*
Y116732D02*
D03*
Y113583D02*
D03*
X121260D02*
D03*
Y116732D02*
D03*
Y119882D02*
D03*
Y123031D02*
D03*
D24*
X52051Y82118D02*
D03*
Y89598D02*
D03*
X60909Y85858D02*
D03*
D25*
X104724Y140130D02*
D03*
Y150760D02*
D03*
X142913Y148201D02*
D03*
Y158831D02*
D03*
D42*
X53815Y90280D02*
X59018Y95482D01*
X104724Y140130D02*
X106140Y141545D01*
X124016Y155315D02*
Y156890D01*
X110246Y141545D02*
X124016Y155315D01*
X106140Y141545D02*
X110246D01*
X168268Y103583D02*
Y113583D01*
Y123583D01*
Y133583D01*
X9291Y53268D02*
Y63268D01*
Y73268D01*
Y83268D01*
Y93268D01*
Y103268D01*
Y113268D01*
Y123268D01*
Y133268D01*
X96638Y139508D02*
X96850Y139295D01*
Y137795D02*
Y139295D01*
Y137795D02*
X101181Y133465D01*
X104134D01*
X104331Y133661D01*
X88433Y100303D02*
X93398D01*
X93701Y100000D01*
X48819Y140157D02*
X48928Y140267D01*
X52668D01*
X59263Y133672D01*
Y131829D02*
X59399Y131693D01*
X59263Y131829D02*
Y133672D01*
X59842Y128543D02*
Y131693D01*
Y125394D02*
Y128543D01*
Y122244D02*
Y125394D01*
X65847Y112402D02*
Y116929D01*
X59842Y122244D02*
X60532D01*
X65847Y116929D01*
X59842Y107087D02*
X60532D01*
X65847Y112402D01*
X59842Y103937D02*
Y107087D01*
Y100787D02*
Y103937D01*
X59707Y97638D02*
X59842Y97774D01*
Y100787D01*
X53134Y89598D02*
X53510Y89975D01*
X52051Y89598D02*
X53134D01*
X59018Y95482D02*
Y97502D01*
X64407Y95817D02*
X64738D01*
X59842Y97638D02*
X59978Y97502D01*
X62722D01*
X64407Y95817D01*
X83167Y105766D02*
X88130Y100803D01*
X80634Y105766D02*
X83167D01*
X80347Y106053D02*
X80634Y105766D01*
X93701Y100000D02*
X98049D01*
X104795Y93254D01*
X114701D01*
X130315Y77640D01*
Y72638D02*
Y77640D01*
X140155Y85430D02*
X140354Y85630D01*
X135959Y85430D02*
X140155D01*
X114961Y106429D02*
X135959Y85430D01*
X114961Y106429D02*
Y113583D01*
Y116732D01*
Y119882D01*
Y123031D01*
X104618Y132685D02*
X114272Y123031D01*
X104618Y132685D02*
Y133374D01*
X104331Y133661D02*
X104618Y133374D01*
X96638Y139508D02*
X96835D01*
X104044Y133948D02*
X104331Y133661D01*
X104413Y139819D02*
X104724Y140130D01*
X96949Y139819D02*
X104413D01*
X96638Y139508D02*
X96949Y139819D01*
D45*
X64961Y161221D02*
Y167366D01*
X65012Y167693D02*
X73590D01*
D46*
X141902Y149213D02*
X162638D01*
X141648Y149466D02*
X141902Y149213D01*
X162638D02*
X168268Y143583D01*
X133071Y155315D02*
Y156890D01*
Y155315D02*
X138920Y149466D01*
X141648D01*
X133071Y158282D02*
Y158465D01*
Y156890D02*
Y158282D01*
Y158465D02*
X134041Y159435D01*
X135028D01*
X136083Y160489D01*
Y164551D01*
X133071Y158282D02*
X134041Y159252D01*
D47*
X19291Y53268D02*
D03*
X158268Y143583D02*
D03*
D48*
X9291Y53268D02*
D03*
X19291Y63268D02*
D03*
X9291D02*
D03*
X19291Y73268D02*
D03*
X9291D02*
D03*
X19291Y83268D02*
D03*
X9291D02*
D03*
X19291Y93268D02*
D03*
X9291D02*
D03*
X19291Y103268D02*
D03*
X9291D02*
D03*
X19291Y113268D02*
D03*
X9291D02*
D03*
X19291Y123268D02*
D03*
X9291D02*
D03*
X19291Y133268D02*
D03*
X9291D02*
D03*
X19291Y143268D02*
D03*
X9291D02*
D03*
X168268Y143583D02*
D03*
X158268Y133583D02*
D03*
X168268D02*
D03*
X158268Y123583D02*
D03*
X168268D02*
D03*
X158268Y113583D02*
D03*
X168268D02*
D03*
X158268Y103583D02*
D03*
X168268D02*
D03*
X158268Y93583D02*
D03*
X168268D02*
D03*
X158268Y83583D02*
D03*
X168268D02*
D03*
X158268Y73583D02*
D03*
X168268D02*
D03*
X158268Y63583D02*
D03*
X168268D02*
D03*
X158268Y53583D02*
D03*
X168268D02*
D03*
D49*
X73590Y167693D02*
D03*
X102134D02*
D03*
D50*
X78315Y157142D02*
D03*
X97409D02*
D03*
D51*
X150197Y153150D02*
D03*
X113976Y130118D02*
D03*
X117323Y81693D02*
D03*
X72835Y132283D02*
D03*
X74213Y151181D02*
D03*
X47835Y44882D02*
D03*
X126575Y58465D02*
D03*
X141142Y58661D02*
D03*
X48031Y54527D02*
D03*
X68504Y70276D02*
D03*
Y79724D02*
D03*
X122047Y70079D02*
D03*
X111024D02*
D03*
X46850Y135236D02*
D03*
X42520Y139370D02*
D03*
X35433D02*
D03*
X70866Y143504D02*
D03*
X78740Y138386D02*
D03*
X69685Y135433D02*
D03*
X88090Y162598D02*
D03*
X94095D02*
D03*
X82087D02*
D03*
X60433Y117323D02*
D03*
X80347Y106053D02*
D03*
X140551Y106496D02*
D03*
X136221D02*
D03*
X121063Y81693D02*
D03*
X143701Y138583D02*
D03*
X27953Y45472D02*
D03*
Y56168D02*
D03*
Y66864D02*
D03*
Y75984D02*
D03*
X27756Y89961D02*
D03*
Y99311D02*
D03*
Y108661D02*
D03*
X28346Y129527D02*
D03*
Y139370D02*
D03*
X42520Y166339D02*
D03*
X34449D02*
D03*
X119685Y164173D02*
D03*
X124409D02*
D03*
X134449Y141142D02*
D03*
X128609D02*
D03*
X122769D02*
D03*
X116929D02*
D03*
X134449Y148425D02*
D03*
X128445D02*
D03*
X122441D02*
D03*
X146850Y79724D02*
D03*
X144882Y106496D02*
D03*
X146850Y90551D02*
D03*
Y85138D02*
D03*
X100591Y70079D02*
D03*
X98819Y80315D02*
D03*
X45276Y75394D02*
D03*
Y81496D02*
D03*
Y87598D02*
D03*
X56299Y117323D02*
D03*
X52165D02*
D03*
X81890Y110039D02*
D03*
X86516D02*
D03*
Y114764D02*
D03*
X81890Y119488D02*
D03*
Y114764D02*
D03*
X91142Y110039D02*
D03*
X145948Y35433D02*
D03*
X136286D02*
D03*
X126624D02*
D03*
X116962D02*
D03*
X107300D02*
D03*
X97638D02*
D03*
X87976D02*
D03*
X78314D02*
D03*
X68652D02*
D03*
X58990D02*
D03*
X49327D02*
D03*
X39665D02*
D03*
X30003D02*
D03*
X64813Y95817D02*
D03*
X48819Y140157D02*
D03*
X130315Y72638D02*
D03*
X104528Y97835D02*
D03*
Y101772D02*
D03*
X36024Y149213D02*
D03*
X47047Y129528D02*
D03*
Y125394D02*
D03*
Y121260D02*
D03*
Y117126D02*
D03*
X77953Y117520D02*
D03*
X85236Y125787D02*
D03*
X97835Y108858D02*
D03*
X97933Y118996D02*
D03*
X89764Y125787D02*
D03*
X93701Y125591D02*
D03*
X77953Y113189D02*
D03*
X88779Y106102D02*
D03*
X47244Y106693D02*
D03*
Y102559D02*
D03*
Y98228D02*
D03*
Y110827D02*
D03*
X104331Y133661D02*
D03*
X140354Y85630D02*
D03*
X127362Y119882D02*
D03*
Y115814D02*
D03*
Y111745D02*
D03*
Y123950D02*
D03*
D52*
X114961Y156890D02*
D03*
X124016D02*
D03*
X133071D02*
D03*
D53*
X124016Y132087D02*
D03*
M02*
