G04*
G04 #@! TF.GenerationSoftware,Altium Limited,Altium Designer,20.0.2 (26)*
G04*
G04 Layer_Color=16711935*
%FSLAX25Y25*%
%MOIN*%
G70*
G01*
G75*
%ADD26R,0.03556X0.04343*%
%ADD27R,0.04343X0.03556*%
%ADD31R,0.04343X0.03950*%
%ADD34R,0.03950X0.04343*%
%ADD35R,0.03950X0.02572*%
%ADD36R,0.05328X0.03162*%
%ADD37R,0.07493X0.05131*%
%ADD38R,0.06706X0.06706*%
%ADD39C,0.06706*%
%ADD40O,0.04737X0.07099*%
%ADD41C,0.05524*%
%ADD54R,0.04540X0.07690*%
%ADD55R,0.13398X0.07690*%
D26*
X59055Y161221D02*
D03*
X64961D02*
D03*
X74803Y91732D02*
D03*
X68898D02*
D03*
X103937Y124016D02*
D03*
X98032D02*
D03*
D27*
X50787Y69488D02*
D03*
Y75394D02*
D03*
X93701Y100000D02*
D03*
Y105905D02*
D03*
D31*
X96638Y139508D02*
D03*
Y145020D02*
D03*
D34*
X59311Y167504D02*
D03*
X64823D02*
D03*
X82618Y100606D02*
D03*
X88130D02*
D03*
X136083Y164551D02*
D03*
X130571D02*
D03*
D35*
X53543Y122244D02*
D03*
Y125394D02*
D03*
Y128543D02*
D03*
Y131693D02*
D03*
X59842D02*
D03*
Y128543D02*
D03*
Y125394D02*
D03*
Y122244D02*
D03*
X53543Y97638D02*
D03*
Y100787D02*
D03*
Y103937D02*
D03*
Y107087D02*
D03*
X59842D02*
D03*
Y103937D02*
D03*
Y100787D02*
D03*
Y97638D02*
D03*
X114961Y123031D02*
D03*
Y119882D02*
D03*
Y116732D02*
D03*
Y113583D02*
D03*
X121260D02*
D03*
Y116732D02*
D03*
Y119882D02*
D03*
Y123031D02*
D03*
D36*
X52051Y82118D02*
D03*
Y89598D02*
D03*
X60909Y85858D02*
D03*
D37*
X104724Y140130D02*
D03*
Y150760D02*
D03*
X142913Y148201D02*
D03*
Y158831D02*
D03*
D38*
X19291Y53268D02*
D03*
X158268Y143583D02*
D03*
D39*
X9291Y53268D02*
D03*
X19291Y63268D02*
D03*
X9291D02*
D03*
X19291Y73268D02*
D03*
X9291D02*
D03*
X19291Y83268D02*
D03*
X9291D02*
D03*
X19291Y93268D02*
D03*
X9291D02*
D03*
X19291Y103268D02*
D03*
X9291D02*
D03*
X19291Y113268D02*
D03*
X9291D02*
D03*
X19291Y123268D02*
D03*
X9291D02*
D03*
X19291Y133268D02*
D03*
X9291D02*
D03*
X19291Y143268D02*
D03*
X9291D02*
D03*
X168268Y143583D02*
D03*
X158268Y133583D02*
D03*
X168268D02*
D03*
X158268Y123583D02*
D03*
X168268D02*
D03*
X158268Y113583D02*
D03*
X168268D02*
D03*
X158268Y103583D02*
D03*
X168268D02*
D03*
X158268Y93583D02*
D03*
X168268D02*
D03*
X158268Y83583D02*
D03*
X168268D02*
D03*
X158268Y73583D02*
D03*
X168268D02*
D03*
X158268Y63583D02*
D03*
X168268D02*
D03*
X158268Y53583D02*
D03*
X168268D02*
D03*
D40*
X73590Y167693D02*
D03*
X102134D02*
D03*
D41*
X78315Y157142D02*
D03*
X97409D02*
D03*
D54*
X114961Y156890D02*
D03*
X124016D02*
D03*
X133071D02*
D03*
D55*
X124016Y132087D02*
D03*
M02*
