G04*
G04 #@! TF.GenerationSoftware,Altium Limited,Altium Designer,20.0.2 (26)*
G04*
G04 Layer_Physical_Order=1*
G04 Layer_Color=255*
%FSLAX25Y25*%
%MOIN*%
G70*
G01*
G75*
%ADD13C,0.01000*%
%ADD14R,0.02756X0.03543*%
%ADD15R,0.03543X0.02756*%
%ADD16R,0.01575X0.07874*%
%ADD17R,0.01181X0.05807*%
%ADD18R,0.04331X0.04331*%
%ADD19R,0.03543X0.03150*%
%ADD20R,0.05807X0.01181*%
%ADD21R,0.23622X0.07874*%
%ADD22R,0.03150X0.03543*%
%ADD23R,0.03150X0.01772*%
%ADD24R,0.04528X0.02362*%
%ADD25R,0.06693X0.04331*%
%ADD42C,0.01500*%
%ADD43C,0.01100*%
%ADD44C,0.01200*%
%ADD45C,0.03000*%
%ADD46C,0.01800*%
%ADD47R,0.05906X0.05906*%
%ADD48C,0.05906*%
%ADD49O,0.03937X0.06299*%
%ADD50C,0.04724*%
%ADD51C,0.03000*%
G36*
X167120Y174231D02*
X168263Y173925D01*
X169357Y173472D01*
X170383Y172880D01*
X171322Y172159D01*
X172159Y171322D01*
X172880Y170383D01*
X173472Y169357D01*
X173925Y168264D01*
X174231Y167120D01*
X174386Y165946D01*
Y165354D01*
Y11811D01*
Y11219D01*
X174231Y10045D01*
X173925Y8902D01*
X173472Y7808D01*
X172880Y6783D01*
X172159Y5844D01*
X171322Y5006D01*
X170383Y4286D01*
X169357Y3694D01*
X168264Y3241D01*
X167120Y2934D01*
X165946Y2780D01*
X158739D01*
X158640Y3280D01*
X159559Y3661D01*
X159795Y3797D01*
X160040Y3918D01*
X161072Y4607D01*
X161277Y4787D01*
X161493Y4953D01*
X162370Y5830D01*
X162536Y6046D01*
X162716Y6251D01*
X163405Y7283D01*
X163526Y7527D01*
X163662Y7763D01*
X164137Y8910D01*
X164208Y9173D01*
X164295Y9431D01*
X164537Y10648D01*
X164555Y10920D01*
X164591Y11191D01*
Y12431D01*
X164555Y12702D01*
X164537Y12974D01*
X164295Y14191D01*
X164208Y14449D01*
X164137Y14712D01*
X163662Y15859D01*
X163526Y16095D01*
X163405Y16339D01*
X162716Y17371D01*
X162536Y17576D01*
X162370Y17792D01*
X161493Y18669D01*
X161276Y18835D01*
X161072Y19015D01*
X160040Y19704D01*
X159795Y19825D01*
X159559Y19961D01*
X158413Y20436D01*
X158150Y20507D01*
X157891Y20594D01*
X156675Y20836D01*
X156402Y20854D01*
X156132Y20890D01*
X154891D01*
X154621Y20854D01*
X154349Y20836D01*
X153132Y20594D01*
X152874Y20507D01*
X152611Y20436D01*
X151464Y19961D01*
X151228Y19825D01*
X150984Y19704D01*
X149952Y19015D01*
X149747Y18835D01*
X149531Y18669D01*
X148653Y17792D01*
X148487Y17576D01*
X148308Y17371D01*
X147618Y16339D01*
X147498Y16095D01*
X147361Y15858D01*
X146887Y14712D01*
X146816Y14449D01*
X146728Y14191D01*
X146486Y12974D01*
X146468Y12702D01*
X146433Y12431D01*
Y11191D01*
X146468Y10920D01*
X146486Y10648D01*
X146728Y9431D01*
X146816Y9173D01*
X146887Y8910D01*
X147361Y7763D01*
X147498Y7527D01*
X147618Y7283D01*
X148308Y6251D01*
X148487Y6046D01*
X148653Y5830D01*
X149531Y4953D01*
X149747Y4787D01*
X149952Y4607D01*
X150984Y3918D01*
X151228Y3797D01*
X151464Y3661D01*
X152384Y3280D01*
X152285Y2780D01*
X24881D01*
X24781Y3280D01*
X25701Y3661D01*
X25937Y3797D01*
X26182Y3918D01*
X27213Y4607D01*
X27418Y4787D01*
X27635Y4953D01*
X28512Y5830D01*
X28678Y6046D01*
X28858Y6251D01*
X29547Y7283D01*
X29668Y7527D01*
X29804Y7763D01*
X30279Y8910D01*
X30349Y9173D01*
X30437Y9431D01*
X30679Y10648D01*
X30697Y10920D01*
X30732Y11191D01*
Y12431D01*
X30697Y12702D01*
X30679Y12974D01*
X30437Y14191D01*
X30349Y14449D01*
X30279Y14712D01*
X29804Y15859D01*
X29668Y16095D01*
X29547Y16339D01*
X28858Y17371D01*
X28678Y17576D01*
X28512Y17792D01*
X27635Y18669D01*
X27418Y18835D01*
X27213Y19015D01*
X26182Y19704D01*
X25937Y19825D01*
X25701Y19961D01*
X24555Y20436D01*
X24291Y20507D01*
X24033Y20594D01*
X22816Y20836D01*
X22544Y20854D01*
X22274Y20890D01*
X21033D01*
X20763Y20854D01*
X20491Y20836D01*
X19274Y20594D01*
X19016Y20507D01*
X18752Y20436D01*
X17606Y19961D01*
X17370Y19825D01*
X17125Y19704D01*
X16094Y19015D01*
X15889Y18835D01*
X15673Y18669D01*
X14795Y17792D01*
X14629Y17576D01*
X14449Y17371D01*
X13760Y16339D01*
X13640Y16095D01*
X13503Y15858D01*
X13028Y14712D01*
X12958Y14449D01*
X12870Y14191D01*
X12628Y12974D01*
X12610Y12702D01*
X12575Y12431D01*
Y11191D01*
X12610Y10920D01*
X12628Y10648D01*
X12870Y9431D01*
X12958Y9173D01*
X13028Y8910D01*
X13503Y7763D01*
X13640Y7527D01*
X13760Y7283D01*
X14449Y6251D01*
X14629Y6046D01*
X14795Y5830D01*
X15673Y4953D01*
X15889Y4787D01*
X16094Y4607D01*
X17125Y3918D01*
X17370Y3797D01*
X17606Y3661D01*
X18526Y3280D01*
X18426Y2780D01*
X11219D01*
X10045Y2934D01*
X8902Y3241D01*
X7808Y3694D01*
X6783Y4286D01*
X5844Y5006D01*
X5006Y5843D01*
X4286Y6783D01*
X3694Y7808D01*
X3241Y8902D01*
X2934Y10045D01*
X2780Y11219D01*
Y11811D01*
Y165354D01*
Y165946D01*
X2934Y167120D01*
X3241Y168263D01*
X3694Y169357D01*
X4286Y170383D01*
X5006Y171322D01*
X5843Y172159D01*
X6783Y172880D01*
X7808Y173472D01*
X8902Y173925D01*
X10045Y174231D01*
X11219Y174386D01*
X18426D01*
X18526Y173886D01*
X17606Y173505D01*
X17370Y173368D01*
X17125Y173248D01*
X16094Y172558D01*
X15889Y172379D01*
X15673Y172213D01*
X14795Y171335D01*
X14629Y171119D01*
X14449Y170914D01*
X13760Y169882D01*
X13640Y169638D01*
X13503Y169402D01*
X13028Y168255D01*
X12958Y167992D01*
X12870Y167734D01*
X12628Y166517D01*
X12610Y166245D01*
X12575Y165975D01*
Y164734D01*
X12610Y164464D01*
X12628Y164192D01*
X12870Y162975D01*
X12958Y162716D01*
X13028Y162453D01*
X13503Y161307D01*
X13640Y161071D01*
X13760Y160826D01*
X14449Y159794D01*
X14629Y159590D01*
X14795Y159373D01*
X15673Y158496D01*
X15889Y158330D01*
X16094Y158150D01*
X17125Y157461D01*
X17370Y157340D01*
X17606Y157204D01*
X18752Y156729D01*
X19016Y156658D01*
X19274Y156571D01*
X20491Y156329D01*
X20763Y156311D01*
X21033Y156275D01*
X22274D01*
X22544Y156311D01*
X22816Y156329D01*
X24033Y156571D01*
X24292Y156659D01*
X24555Y156729D01*
X25701Y157204D01*
X25937Y157340D01*
X26182Y157461D01*
X27213Y158150D01*
X27418Y158330D01*
X27635Y158496D01*
X28512Y159373D01*
X28678Y159590D01*
X28858Y159794D01*
X29547Y160826D01*
X29668Y161071D01*
X29804Y161307D01*
X30279Y162453D01*
X30349Y162716D01*
X30437Y162975D01*
X30679Y164192D01*
X30697Y164464D01*
X30732Y164734D01*
Y165975D01*
X30697Y166245D01*
X30679Y166517D01*
X30437Y167734D01*
X30349Y167992D01*
X30279Y168255D01*
X29804Y169402D01*
X29668Y169638D01*
X29547Y169882D01*
X28858Y170914D01*
X28678Y171119D01*
X28512Y171335D01*
X27635Y172213D01*
X27418Y172379D01*
X27213Y172558D01*
X26182Y173248D01*
X25937Y173368D01*
X25701Y173505D01*
X24781Y173886D01*
X24881Y174386D01*
X152285D01*
X152384Y173886D01*
X151464Y173505D01*
X151228Y173368D01*
X150984Y173248D01*
X149952Y172558D01*
X149747Y172379D01*
X149531Y172213D01*
X148653Y171335D01*
X148487Y171119D01*
X148308Y170914D01*
X147618Y169882D01*
X147498Y169638D01*
X147361Y169402D01*
X146887Y168255D01*
X146816Y167992D01*
X146728Y167734D01*
X146486Y166517D01*
X146468Y166245D01*
X146433Y165975D01*
Y164734D01*
X146468Y164464D01*
X146486Y164192D01*
X146728Y162975D01*
X146816Y162716D01*
X146887Y162453D01*
X147361Y161307D01*
X147498Y161071D01*
X147618Y160826D01*
X148308Y159794D01*
X148487Y159590D01*
X148653Y159373D01*
X149531Y158496D01*
X149747Y158330D01*
X149952Y158150D01*
X150984Y157461D01*
X151228Y157340D01*
X151464Y157204D01*
X152611Y156729D01*
X152874Y156658D01*
X153132Y156571D01*
X154349Y156329D01*
X154621Y156311D01*
X154891Y156275D01*
X156132D01*
X156403Y156311D01*
X156675Y156329D01*
X157891Y156571D01*
X158150Y156659D01*
X158413Y156729D01*
X159559Y157204D01*
X159795Y157340D01*
X160040Y157461D01*
X161072Y158150D01*
X161277Y158330D01*
X161493Y158496D01*
X162370Y159373D01*
X162536Y159590D01*
X162716Y159794D01*
X163405Y160826D01*
X163526Y161071D01*
X163662Y161307D01*
X164137Y162453D01*
X164208Y162716D01*
X164295Y162975D01*
X164537Y164192D01*
X164555Y164464D01*
X164591Y164734D01*
Y165975D01*
X164555Y166245D01*
X164537Y166517D01*
X164295Y167734D01*
X164208Y167992D01*
X164137Y168255D01*
X163662Y169402D01*
X163526Y169638D01*
X163405Y169882D01*
X162716Y170914D01*
X162536Y171119D01*
X162370Y171335D01*
X161493Y172213D01*
X161276Y172379D01*
X161072Y172558D01*
X160040Y173248D01*
X159795Y173368D01*
X159559Y173505D01*
X158640Y173886D01*
X158739Y174386D01*
X165946D01*
X167120Y174231D01*
D02*
G37*
%LPC*%
G36*
X102134Y171666D02*
X101411Y171571D01*
X100854Y171340D01*
X100835Y171337D01*
X100820Y171326D01*
X100738Y171292D01*
X100683Y171250D01*
X100670Y171244D01*
X100324Y170994D01*
X99994Y170785D01*
X99661Y170601D01*
X99324Y170443D01*
X98984Y170310D01*
X98640Y170202D01*
X98290Y170118D01*
X97934Y170057D01*
X97740Y170038D01*
X97009D01*
Y170541D01*
X91078D01*
Y169920D01*
X85197D01*
Y170541D01*
X79266D01*
Y170038D01*
X77984D01*
X77790Y170057D01*
X77434Y170118D01*
X77084Y170202D01*
X76740Y170310D01*
X76400Y170443D01*
X76063Y170601D01*
X75730Y170785D01*
X75400Y170994D01*
X75054Y171244D01*
X75041Y171250D01*
X74986Y171292D01*
X74905Y171326D01*
X74889Y171337D01*
X74870Y171340D01*
X74313Y171571D01*
X73590Y171666D01*
X72867Y171571D01*
X72194Y171292D01*
X71615Y170849D01*
X71172Y170270D01*
X70893Y169597D01*
X70798Y168874D01*
Y166512D01*
X70893Y165789D01*
X71116Y165251D01*
X71245Y163227D01*
Y158300D01*
X71424Y157402D01*
X71932Y156641D01*
X72751Y155822D01*
X73512Y155314D01*
X74410Y155135D01*
X75609D01*
X75819Y155114D01*
X75896Y155100D01*
X76060Y154887D01*
X76720Y154380D01*
X77490Y154061D01*
X78315Y153952D01*
X79141Y154061D01*
X79910Y154380D01*
X80008Y154455D01*
X80457Y154234D01*
Y152761D01*
X76118D01*
X76069Y152767D01*
X75987Y152780D01*
X75924Y152795D01*
X75878Y152808D01*
X75852Y152819D01*
X75847Y152822D01*
X75825Y152841D01*
X75709Y152910D01*
X75596Y152985D01*
X75572Y152989D01*
X75551Y153002D01*
X75416Y153020D01*
X75284Y153047D01*
X75260Y153042D01*
X75235Y153045D01*
X75104Y153011D01*
X74972Y152985D01*
X74951Y152971D01*
X74928Y152965D01*
X74820Y152883D01*
X74707Y152808D01*
X74693Y152787D01*
X74674Y152773D01*
X74667Y152761D01*
X74213D01*
X73608Y152641D01*
X73095Y152299D01*
X72752Y151786D01*
X72632Y151181D01*
X72752Y150576D01*
X73095Y150064D01*
X73608Y149721D01*
X74213Y149601D01*
X74667D01*
X74674Y149590D01*
X74693Y149575D01*
X74707Y149554D01*
X74820Y149479D01*
X74928Y149397D01*
X74951Y149391D01*
X74972Y149378D01*
X75104Y149351D01*
X75235Y149317D01*
X75260Y149320D01*
X75284Y149315D01*
X75416Y149342D01*
X75551Y149360D01*
X75572Y149373D01*
X75596Y149378D01*
X75709Y149453D01*
X75825Y149521D01*
X75847Y149540D01*
X75852Y149543D01*
X75878Y149554D01*
X75924Y149568D01*
X75987Y149582D01*
X76059Y149594D01*
X76142Y149601D01*
X81193D01*
X81494Y149661D01*
Y155882D01*
X83715D01*
Y151145D01*
X83994D01*
Y150410D01*
X84043Y150406D01*
Y146050D01*
X94107D01*
Y148926D01*
X94569Y149117D01*
X100273Y143413D01*
X100836Y143037D01*
X101499Y142905D01*
X101499Y142905D01*
X153934D01*
X154077Y142893D01*
X154279Y142859D01*
X154427Y142820D01*
X154515Y142784D01*
Y139830D01*
X162021D01*
Y147335D01*
X154515D01*
Y146493D01*
X154427Y146457D01*
X154279Y146418D01*
X154077Y146384D01*
X153934Y146372D01*
X102217D01*
X94568Y154021D01*
Y154829D01*
X95068Y154999D01*
X95154Y154887D01*
X95814Y154380D01*
X96583Y154061D01*
X97409Y153952D01*
X98234Y154061D01*
X99003Y154380D01*
X99475Y154742D01*
X100787D01*
X101685Y154920D01*
X102446Y155428D01*
X103792Y156775D01*
X103792Y156775D01*
X104301Y157536D01*
X104479Y158433D01*
Y163985D01*
X104523Y164804D01*
X104545Y165005D01*
X104567Y165138D01*
X104572Y165160D01*
X104577Y165169D01*
X104581Y165184D01*
X104586Y165197D01*
X104597Y165213D01*
X104600Y165231D01*
X104831Y165789D01*
X104926Y166512D01*
Y168874D01*
X104831Y169597D01*
X104552Y170270D01*
X104109Y170849D01*
X103530Y171292D01*
X102857Y171571D01*
X102134Y171666D01*
D02*
G37*
G36*
X38595Y157493D02*
Y157493D01*
X38478Y157493D01*
X34239D01*
Y152350D01*
X38595D01*
Y152820D01*
X38964Y153137D01*
X44107D01*
Y154072D01*
X46231D01*
Y153499D01*
X52359D01*
Y157461D01*
X46231D01*
Y156723D01*
X44107D01*
Y157493D01*
X39081D01*
X38964Y157493D01*
Y157493D01*
X38595Y157493D01*
D02*
G37*
G36*
X69035Y148094D02*
X67014D01*
Y146270D01*
X69035D01*
Y148094D01*
D02*
G37*
G36*
X64514D02*
X62492D01*
Y146270D01*
X64514D01*
Y148094D01*
D02*
G37*
G36*
X168268Y147368D02*
X167288Y147239D01*
X166375Y146861D01*
X165591Y146259D01*
X164990Y145475D01*
X164612Y144562D01*
X164483Y143583D01*
X164612Y142603D01*
X164990Y141690D01*
X165591Y140906D01*
X166375Y140305D01*
X167288Y139927D01*
X168268Y139797D01*
X169247Y139927D01*
X170160Y140305D01*
X170944Y140906D01*
X171546Y141690D01*
X171924Y142603D01*
X172053Y143583D01*
X171924Y144562D01*
X171546Y145475D01*
X170944Y146259D01*
X170160Y146861D01*
X169247Y147239D01*
X168268Y147368D01*
D02*
G37*
G36*
X19291Y147053D02*
X18312Y146924D01*
X17399Y146546D01*
X16615Y145944D01*
X16013Y145160D01*
X15635Y144247D01*
X15506Y143268D01*
X15635Y142288D01*
X16013Y141375D01*
X16615Y140591D01*
X17399Y139990D01*
X18312Y139612D01*
X19291Y139483D01*
X20271Y139612D01*
X21184Y139990D01*
X21968Y140591D01*
X22569Y141375D01*
X22948Y142288D01*
X23076Y143268D01*
X22948Y144247D01*
X22569Y145160D01*
X21968Y145944D01*
X21184Y146546D01*
X20271Y146924D01*
X19291Y147053D01*
D02*
G37*
G36*
X9291D02*
X8312Y146924D01*
X7399Y146546D01*
X6615Y145944D01*
X6013Y145160D01*
X5635Y144247D01*
X5506Y143268D01*
X5635Y142288D01*
X6013Y141375D01*
X6615Y140591D01*
X7399Y139990D01*
X8312Y139612D01*
X9291Y139483D01*
X10271Y139612D01*
X11184Y139990D01*
X11968Y140591D01*
X12569Y141375D01*
X12947Y142288D01*
X13077Y143268D01*
X12947Y144247D01*
X12569Y145160D01*
X11968Y145944D01*
X11184Y146546D01*
X10271Y146924D01*
X9291Y147053D01*
D02*
G37*
G36*
X122898Y138295D02*
X121073D01*
Y136274D01*
X122898D01*
Y138295D01*
D02*
G37*
G36*
X34183Y138283D02*
X32358D01*
Y136261D01*
X34183D01*
Y138283D01*
D02*
G37*
G36*
X169518Y137884D02*
Y134833D01*
X172570D01*
X172157Y135828D01*
X171443Y136758D01*
X170513Y137472D01*
X169518Y137884D01*
D02*
G37*
G36*
X167018D02*
X166022Y137472D01*
X165092Y136758D01*
X164378Y135828D01*
X163966Y134833D01*
X167018D01*
Y137884D01*
D02*
G37*
G36*
X10541Y137570D02*
Y134518D01*
X13593D01*
X13181Y135513D01*
X12467Y136443D01*
X11537Y137157D01*
X10541Y137570D01*
D02*
G37*
G36*
X8041D02*
X7046Y137157D01*
X6116Y136443D01*
X5402Y135513D01*
X4989Y134518D01*
X8041D01*
Y137570D01*
D02*
G37*
G36*
X32690Y157493D02*
X28334D01*
Y152350D01*
X28931D01*
Y149803D01*
X29052Y149198D01*
X29394Y148686D01*
X33331Y144749D01*
X33844Y144406D01*
X34449Y144286D01*
X42456D01*
X46354Y140387D01*
X46385Y140349D01*
X46433Y140282D01*
X46468Y140226D01*
X46482Y140200D01*
X46474Y140157D01*
X46652Y139260D01*
X47161Y138499D01*
X47921Y137991D01*
X48819Y137812D01*
X49716Y137991D01*
X50477Y138499D01*
X50985Y139260D01*
X51164Y140157D01*
X50985Y141055D01*
X50477Y141816D01*
X50441Y141840D01*
X50432Y141869D01*
X50418Y141932D01*
X50406Y142004D01*
X50399Y142087D01*
Y145090D01*
X50861Y145282D01*
X57359Y138784D01*
X57872Y138442D01*
X58476Y138321D01*
X63192D01*
Y137133D01*
X68335D01*
Y137600D01*
X72562D01*
X75578Y134584D01*
Y132077D01*
X75087Y132058D01*
X75034Y132191D01*
X74986Y132325D01*
X74974Y132337D01*
X74968Y132353D01*
X74868Y132455D01*
X74772Y132561D01*
X74757Y132568D01*
X74745Y132580D01*
X74613Y132636D01*
X74484Y132697D01*
X74467Y132697D01*
X74452Y132704D01*
X74309Y132705D01*
X74297Y132706D01*
X74172Y132893D01*
X73808Y133257D01*
X73361Y133555D01*
X72835Y133660D01*
X72308Y133555D01*
X71861Y133257D01*
X71563Y132810D01*
X71458Y132283D01*
Y131699D01*
X71563Y131172D01*
X71692Y130979D01*
X71687Y130869D01*
X71677Y130718D01*
X71679Y130711D01*
X71679Y130704D01*
X71730Y130561D01*
X71779Y130417D01*
X71784Y130411D01*
X71786Y130405D01*
X71889Y130292D01*
X71989Y130177D01*
X71996Y130174D01*
X72000Y130169D01*
X72138Y130104D01*
X72275Y130037D01*
X72387Y130007D01*
X72475Y129978D01*
X72559Y129945D01*
X72641Y129908D01*
X72720Y129866D01*
X72796Y129820D01*
X72872Y129769D01*
X72943Y129715D01*
X73236Y129421D01*
X73335Y128926D01*
X73379Y128859D01*
X73112Y128359D01*
X67407D01*
Y127867D01*
X66945Y127676D01*
X62581Y132040D01*
X62492Y132099D01*
X62347Y132244D01*
X62217Y132331D01*
Y133379D01*
X57468D01*
Y130007D01*
Y126857D01*
Y123708D01*
Y120558D01*
X62217D01*
X62217Y120558D01*
Y120558D01*
X62626Y120342D01*
X64811Y118157D01*
X65241Y117870D01*
X65292Y117860D01*
X65456Y117317D01*
X59980Y111841D01*
X59693Y111411D01*
X59592Y110904D01*
Y108772D01*
X57468D01*
Y105401D01*
Y102251D01*
Y99102D01*
Y95952D01*
X61985D01*
X62284Y95868D01*
X62516Y95576D01*
X62646Y94920D01*
X63155Y94159D01*
X63467Y93950D01*
X63315Y93450D01*
X56043D01*
X55439Y93330D01*
X54926Y92988D01*
X51124Y89186D01*
X48216D01*
Y84830D01*
X53359D01*
Y86951D01*
X56698Y90290D01*
X66382D01*
X66684Y89987D01*
X66627Y89481D01*
X66261Y89433D01*
X66035D01*
Y87608D01*
X69307D01*
Y86358D01*
X70557D01*
Y83284D01*
X73175D01*
Y86358D01*
X74425D01*
Y87608D01*
X77697D01*
Y89433D01*
X77471D01*
X76997Y89495D01*
X76997Y89933D01*
Y92298D01*
X77942Y93243D01*
X78240Y93690D01*
X78345Y94217D01*
Y95753D01*
X83517D01*
Y79529D01*
X82528Y78540D01*
X79653Y78540D01*
X79590Y79014D01*
Y79240D01*
X77766D01*
Y75968D01*
Y72697D01*
X79590D01*
Y72923D01*
X79653Y73397D01*
X80348Y73397D01*
X80702Y73043D01*
Y61907D01*
X78453Y59658D01*
X55106D01*
Y50184D01*
X80327D01*
Y57784D01*
X82965Y60421D01*
X83252Y60851D01*
X83353Y61358D01*
Y73397D01*
X84402D01*
Y76666D01*
X85503Y77767D01*
X85810Y78022D01*
X86188Y77760D01*
X87251Y76697D01*
Y73428D01*
X88301D01*
Y60571D01*
X88401Y60064D01*
X88689Y59634D01*
X90539Y57784D01*
Y50184D01*
X115761D01*
Y59658D01*
X92413D01*
X90951Y61120D01*
Y73075D01*
X91305Y73428D01*
X92001Y73428D01*
X92063Y72954D01*
Y72728D01*
X93888D01*
Y76000D01*
Y79272D01*
X92063D01*
Y79046D01*
X92001Y78572D01*
X91563Y78572D01*
X89126D01*
X88137Y79561D01*
Y95753D01*
X88657D01*
Y95053D01*
X89498D01*
Y95753D01*
X90170D01*
Y99457D01*
X91326D01*
Y95753D01*
X91385D01*
X91473Y95311D01*
X91645Y95053D01*
X91645D01*
X91771Y94865D01*
X93712Y92924D01*
X93712Y92924D01*
X94158Y92626D01*
X94685Y92521D01*
X94685Y92521D01*
X96263D01*
Y87920D01*
X95789Y87858D01*
X95563D01*
Y86033D01*
X102106D01*
Y86771D01*
X106994D01*
X107127Y86744D01*
X109261D01*
X109617Y86398D01*
Y82772D01*
X106762D01*
Y79106D01*
Y75441D01*
X110358D01*
Y76137D01*
X114761D01*
Y76931D01*
X123786D01*
X127850Y72868D01*
X127881Y72829D01*
X127929Y72762D01*
X127964Y72707D01*
X127978Y72680D01*
X127970Y72638D01*
X128148Y71740D01*
X128657Y70980D01*
X129418Y70471D01*
X130315Y70293D01*
X131212Y70471D01*
X131973Y70980D01*
X132482Y71740D01*
X132558Y72124D01*
X132584Y72179D01*
X132590Y72206D01*
X132594Y72215D01*
X132664Y72328D01*
X132697Y72372D01*
X132818Y72512D01*
X134545Y74239D01*
X134887Y74752D01*
X135008Y75356D01*
Y75775D01*
X137021D01*
Y77896D01*
X141185Y82060D01*
X141527Y82573D01*
X141648Y83178D01*
Y83561D01*
X141655Y83616D01*
X141668Y83682D01*
X141681Y83727D01*
X141686Y83740D01*
X141715Y83773D01*
X142013Y83972D01*
X142521Y84733D01*
X142699Y85630D01*
X142521Y86527D01*
X142013Y87288D01*
X141252Y87796D01*
X140354Y87975D01*
X139457Y87796D01*
X138696Y87288D01*
X138188Y86527D01*
X138009Y85630D01*
X138188Y84733D01*
X138399Y84417D01*
X138418Y84362D01*
X138432Y84338D01*
X138435Y84329D01*
X138466Y84198D01*
X138474Y84144D01*
X138487Y83962D01*
Y83832D01*
X137482Y82828D01*
X137021Y83019D01*
Y86036D01*
X135774D01*
Y88235D01*
X137005D01*
Y92985D01*
X131861D01*
Y88235D01*
X133123D01*
Y86036D01*
X131877D01*
Y81680D01*
X135682D01*
X135873Y81218D01*
X134785Y80131D01*
X131877D01*
Y77478D01*
X131847Y77325D01*
Y76011D01*
X130855Y75019D01*
X130811Y74985D01*
X130754Y74948D01*
X130713Y74925D01*
X130699Y74919D01*
X130655Y74915D01*
X130315Y74983D01*
X130273Y74975D01*
X130246Y74989D01*
X130191Y75023D01*
X130131Y75066D01*
X130068Y75120D01*
X125558Y79629D01*
X125046Y79972D01*
X124441Y80092D01*
X114761D01*
Y80887D01*
X110358D01*
Y81649D01*
X114761D01*
Y86398D01*
X112597D01*
Y87348D01*
X112597Y87348D01*
X112492Y87875D01*
X112194Y88321D01*
X111421Y89094D01*
X110974Y89393D01*
X110447Y89497D01*
X109658D01*
Y92702D01*
X101365D01*
Y92670D01*
X100144D01*
X99989Y92902D01*
X98020Y94871D01*
X97574Y95169D01*
X97153Y95253D01*
X97202Y95753D01*
X100013D01*
Y96509D01*
X102339D01*
X102356Y96507D01*
X102421Y96494D01*
X102484Y96475D01*
X102546Y96451D01*
X102608Y96420D01*
X102672Y96382D01*
X102737Y96335D01*
X102796Y96286D01*
X102869Y96176D01*
X103630Y95668D01*
X104528Y95490D01*
X105425Y95668D01*
X106186Y96176D01*
X106694Y96937D01*
X106873Y97835D01*
X106694Y98732D01*
X106186Y99493D01*
X106096Y99553D01*
Y100053D01*
X106186Y100113D01*
X106694Y100874D01*
X106873Y101772D01*
X106694Y102669D01*
X106186Y103430D01*
X106306Y103851D01*
X106356Y103902D01*
X106386Y103924D01*
X108184D01*
Y105893D01*
Y109895D01*
X109490D01*
X111995Y107390D01*
Y104121D01*
X116351D01*
Y109265D01*
X113870D01*
X111377Y111757D01*
X111584Y112257D01*
X112586D01*
Y111897D01*
X117335D01*
Y115047D01*
Y118196D01*
Y121346D01*
Y124717D01*
X112586D01*
Y124357D01*
X110421D01*
X110230Y124819D01*
X113173Y127761D01*
X113182Y127769D01*
X113231Y127800D01*
X113274Y127823D01*
X113313Y127838D01*
X113349Y127848D01*
X113386Y127854D01*
X113425Y127856D01*
X113471Y127854D01*
X113562Y127840D01*
X113706Y127847D01*
X113850Y127849D01*
X113864Y127855D01*
X113880Y127855D01*
X114010Y127917D01*
X114143Y127973D01*
X114154Y127984D01*
X114168Y127991D01*
X114265Y128097D01*
X114366Y128200D01*
X114372Y128215D01*
X114382Y128226D01*
X114431Y128362D01*
X114485Y128496D01*
X114485Y128511D01*
X114490Y128526D01*
X114483Y128670D01*
X114482Y128791D01*
X114523Y128799D01*
X114986Y129109D01*
X115295Y129572D01*
X115404Y130118D01*
X115295Y130664D01*
X114986Y131128D01*
X114523Y131437D01*
X113976Y131545D01*
X113583D01*
X113463Y131522D01*
X113216Y131983D01*
X113686Y132452D01*
X116686Y132452D01*
X116748Y131978D01*
Y131752D01*
X118573D01*
Y135024D01*
X119823D01*
D01*
X118573D01*
Y138295D01*
X116748D01*
Y138069D01*
X116686Y137595D01*
X116248Y137595D01*
X111936D01*
Y136604D01*
X106099D01*
X105494Y136484D01*
X105088Y136213D01*
X105086Y136211D01*
X105084Y136210D01*
X104981Y136141D01*
X104761Y135921D01*
X104331Y136006D01*
X103433Y135828D01*
X102673Y135320D01*
X102164Y134559D01*
X101986Y133661D01*
X102164Y132764D01*
X102673Y132003D01*
X103433Y131495D01*
X103938Y131395D01*
X104102Y130852D01*
X103507Y130257D01*
X103209Y129810D01*
X103104Y129283D01*
Y128359D01*
X100777D01*
Y127091D01*
X100077D01*
Y126250D01*
X100777D01*
Y125578D01*
X104480D01*
Y124422D01*
X100777D01*
Y123750D01*
X100077D01*
Y122909D01*
X100777D01*
Y120371D01*
X100101D01*
X100083Y120373D01*
X100016Y120387D01*
X99949Y120406D01*
X99883Y120431D01*
X99817Y120462D01*
X99749Y120501D01*
X99679Y120548D01*
X99644Y120575D01*
X99591Y120654D01*
X98830Y121163D01*
X97933Y121341D01*
X97036Y121163D01*
X96275Y120654D01*
X95767Y119894D01*
X95588Y118996D01*
X95767Y118099D01*
X96275Y117338D01*
X97036Y116830D01*
X97933Y116651D01*
X98830Y116830D01*
X99591Y117338D01*
X99681Y117472D01*
X99704Y117495D01*
X99767Y117551D01*
X99827Y117596D01*
X99886Y117633D01*
X99944Y117663D01*
X100002Y117686D01*
X100061Y117704D01*
X100124Y117718D01*
X100141Y117720D01*
X100777D01*
Y113767D01*
Y109455D01*
X100391Y109190D01*
X100120Y109290D01*
X100109Y109320D01*
X100075Y109444D01*
X100056Y109482D01*
X100001Y109756D01*
X99493Y110517D01*
X98732Y111025D01*
X97835Y111203D01*
X96937Y111025D01*
X96176Y110517D01*
X95668Y109756D01*
X95490Y108858D01*
X95668Y107961D01*
X96176Y107200D01*
X96937Y106692D01*
X97835Y106513D01*
X98344Y106614D01*
X98412Y106616D01*
X98510Y106638D01*
X98561Y106645D01*
X98602Y106646D01*
X98637Y106642D01*
X98667Y106636D01*
X98698Y106626D01*
X98732Y106610D01*
X98771Y106586D01*
X98782Y106578D01*
X99013Y106346D01*
X99443Y106059D01*
X99951Y105958D01*
X100777D01*
Y103924D01*
X102670D01*
X102700Y103902D01*
X102749Y103851D01*
X102869Y103430D01*
X102361Y102669D01*
X102182Y101772D01*
X102361Y100874D01*
X102869Y100113D01*
X102960Y100053D01*
Y99553D01*
X102869Y99493D01*
X102796Y99383D01*
X102737Y99334D01*
X102672Y99287D01*
X102608Y99250D01*
X102546Y99219D01*
X102484Y99194D01*
X102421Y99176D01*
X102356Y99162D01*
X102339Y99160D01*
X100013D01*
Y103160D01*
X92839D01*
Y103860D01*
X90603D01*
X90600Y103861D01*
X90561Y103878D01*
X90513Y103907D01*
X90486Y103931D01*
X90438Y104435D01*
X90438Y104444D01*
X90946Y105205D01*
X91125Y106102D01*
X90946Y107000D01*
X90438Y107761D01*
X89677Y108269D01*
X88779Y108447D01*
X87882Y108269D01*
X87121Y107761D01*
X86613Y107000D01*
X86435Y106102D01*
X86613Y105205D01*
X87121Y104444D01*
X87231Y104371D01*
X87280Y104312D01*
X87327Y104246D01*
X87365Y104183D01*
X87395Y104121D01*
X87420Y104059D01*
X87438Y103996D01*
X87452Y103931D01*
X87454Y103913D01*
Y103160D01*
X80415D01*
X80184Y103660D01*
X80242Y103729D01*
X80347Y103708D01*
X81244Y103887D01*
X82005Y104395D01*
X82514Y105156D01*
X82692Y106053D01*
X82514Y106951D01*
X82005Y107711D01*
X81244Y108220D01*
X80347Y108398D01*
X79450Y108220D01*
X78689Y107711D01*
X78180Y106951D01*
X78106Y106579D01*
X78081Y106525D01*
X78074Y106499D01*
X78070Y106490D01*
X78000Y106376D01*
X77966Y106332D01*
X77847Y106194D01*
X77144Y105491D01*
X75564D01*
X75514Y105532D01*
Y106034D01*
X74814D01*
Y106706D01*
X71110D01*
Y107861D01*
X74814D01*
Y108534D01*
X75514D01*
Y109374D01*
X74814D01*
Y111864D01*
X75764D01*
X75781Y111861D01*
X75846Y111848D01*
X75909Y111829D01*
X75971Y111805D01*
X76033Y111774D01*
X76097Y111736D01*
X76162Y111690D01*
X76221Y111641D01*
X76295Y111531D01*
X77055Y111022D01*
X77953Y110844D01*
X78850Y111022D01*
X79611Y111531D01*
X80119Y112292D01*
X80298Y113189D01*
X80119Y114086D01*
X79611Y114847D01*
X79226Y115104D01*
Y115604D01*
X79611Y115861D01*
X80119Y116622D01*
X80298Y117520D01*
X80119Y118417D01*
X79611Y119178D01*
X78850Y119686D01*
X77953Y119865D01*
X77752Y119825D01*
X77745Y119826D01*
X77630Y119818D01*
X77555Y119819D01*
X77487Y119826D01*
X77428Y119837D01*
X77373Y119853D01*
X77322Y119873D01*
X77273Y119898D01*
X77223Y119930D01*
X77210Y119940D01*
X76719Y120431D01*
Y126049D01*
X76618Y126556D01*
X76525Y126697D01*
X76792Y127197D01*
X78118D01*
X78645Y127302D01*
X79092Y127600D01*
X79882Y128391D01*
X80325Y128169D01*
X82622Y125871D01*
X82706Y125767D01*
X82748Y125706D01*
X82858Y125514D01*
X82897Y125434D01*
X82990Y125203D01*
X83032Y125079D01*
X83032Y125078D01*
X83070Y124890D01*
X83578Y124129D01*
X84339Y123621D01*
X85236Y123442D01*
X86134Y123621D01*
X86894Y124129D01*
X87199Y124585D01*
X87801D01*
X88106Y124129D01*
X88866Y123621D01*
X89764Y123442D01*
X90661Y123621D01*
X91344Y124077D01*
X91655Y124129D01*
X91911D01*
X92043Y123932D01*
X92803Y123424D01*
X93701Y123246D01*
X94598Y123424D01*
X95359Y123932D01*
X95867Y124693D01*
X96046Y125591D01*
X95867Y126488D01*
X95359Y127249D01*
X94598Y127757D01*
X93984Y127879D01*
X93941Y127894D01*
X93866Y127903D01*
X93701Y127936D01*
X93690Y127933D01*
X93623Y127950D01*
X93541Y127977D01*
X93464Y128007D01*
X93394Y128041D01*
X93328Y128080D01*
X93266Y128122D01*
X93253Y128133D01*
X92724Y128661D01*
X92915Y129123D01*
X100013D01*
Y136530D01*
X89649D01*
X89457Y136992D01*
X91201Y138736D01*
X91488Y139166D01*
X91589Y139673D01*
Y140145D01*
X94107D01*
Y144501D01*
X84043D01*
Y143648D01*
X83477D01*
Y145288D01*
X79121D01*
Y140145D01*
X83477D01*
Y140997D01*
X84043D01*
Y140145D01*
X84043Y140145D01*
X84043D01*
X84043Y140145D01*
X83925Y139693D01*
X81937Y137705D01*
X81650Y137275D01*
X81549Y136768D01*
Y136530D01*
X81028D01*
Y137230D01*
X81028D01*
X80712Y137550D01*
X80664Y137691D01*
X80618Y137835D01*
X80612Y137842D01*
X80609Y137851D01*
X80509Y137963D01*
X80412Y138078D01*
X80404Y138082D01*
X80398Y138089D01*
X80349Y138113D01*
X80364Y138189D01*
X80256Y138735D01*
X79946Y139198D01*
X79918Y139226D01*
X79455Y139536D01*
X79318Y139563D01*
X79247Y139610D01*
X78740Y139711D01*
X78233Y139610D01*
X77803Y139323D01*
X77516Y138893D01*
X77415Y138386D01*
X77502Y137945D01*
X77447Y137930D01*
X77436Y137921D01*
X77422Y137917D01*
X77311Y137823D01*
X77197Y137732D01*
X77190Y137720D01*
X77179Y137711D01*
X77136Y137626D01*
X77037Y137567D01*
X76677Y137495D01*
X76545Y137510D01*
X74410Y139645D01*
X74617Y140145D01*
X77572D01*
Y145288D01*
X75818D01*
X75740Y145677D01*
X75655Y145804D01*
X75634Y145911D01*
X75347Y146341D01*
X69010Y152677D01*
X68580Y152965D01*
X68073Y153066D01*
X61217D01*
Y153721D01*
X55090D01*
Y149759D01*
X61217D01*
Y150415D01*
X67524D01*
X73190Y144748D01*
Y143595D01*
X73216Y143466D01*
Y140422D01*
X73132Y140353D01*
X68689D01*
X68335Y140706D01*
X68335Y141883D01*
X68810Y141945D01*
X69035D01*
Y143770D01*
X62492D01*
Y141982D01*
X62492Y141945D01*
X62403Y141482D01*
X59131D01*
X52359Y148254D01*
Y149981D01*
X46231D01*
Y146019D01*
X47238D01*
Y144626D01*
X46777Y144435D01*
X44371Y146841D01*
X44107Y147231D01*
Y151587D01*
X38964D01*
Y150636D01*
X38168D01*
X38151Y150638D01*
X38080Y150652D01*
X38010Y150672D01*
X37941Y150697D01*
X37870Y150729D01*
X37797Y150768D01*
X37723Y150816D01*
X37714Y150823D01*
X37682Y150871D01*
X36921Y151379D01*
X36024Y151558D01*
X35126Y151379D01*
X34365Y150871D01*
X33857Y150110D01*
X33739Y149518D01*
X33197Y149353D01*
X32092Y150458D01*
Y152350D01*
X32690D01*
Y157493D01*
D02*
G37*
G36*
X122898Y133774D02*
X121073D01*
Y131752D01*
X122898D01*
Y133774D01*
D02*
G37*
G36*
X141717Y132618D02*
X139892D01*
Y130596D01*
X141717D01*
Y132618D01*
D02*
G37*
G36*
X158268Y137368D02*
X157288Y137239D01*
X156375Y136861D01*
X155591Y136259D01*
X154990Y135475D01*
X154612Y134562D01*
X154483Y133583D01*
X154612Y132603D01*
X154990Y131690D01*
X155591Y130906D01*
X156375Y130305D01*
X157288Y129927D01*
X158268Y129797D01*
X159247Y129927D01*
X160160Y130305D01*
X160944Y130906D01*
X161546Y131690D01*
X161924Y132603D01*
X162053Y133583D01*
X161924Y134562D01*
X161546Y135475D01*
X160944Y136259D01*
X160160Y136861D01*
X159247Y137239D01*
X158268Y137368D01*
D02*
G37*
G36*
X19291Y137053D02*
X18312Y136924D01*
X17399Y136546D01*
X16615Y135944D01*
X16013Y135160D01*
X15635Y134247D01*
X15506Y133268D01*
X15635Y132288D01*
X16013Y131375D01*
X16615Y130591D01*
X17399Y129990D01*
X18312Y129612D01*
X19291Y129483D01*
X20271Y129612D01*
X21184Y129990D01*
X21968Y130591D01*
X22569Y131375D01*
X22948Y132288D01*
X23076Y133268D01*
X22948Y134247D01*
X22569Y135160D01*
X21968Y135944D01*
X21184Y136546D01*
X20271Y136924D01*
X19291Y137053D01*
D02*
G37*
G36*
X137392Y132618D02*
X135567D01*
Y132392D01*
X135505Y131918D01*
X135067Y131918D01*
X130755D01*
Y128649D01*
X128324Y126218D01*
X128313Y126210D01*
X128275Y126187D01*
X128242Y126172D01*
X128214Y126162D01*
X128185Y126156D01*
X128153Y126154D01*
X128114Y126155D01*
X128065Y126161D01*
X127968Y126184D01*
X127907Y126187D01*
X127362Y126295D01*
X126465Y126117D01*
X125704Y125608D01*
X125658Y125540D01*
X125631Y125519D01*
X125560Y125472D01*
X125491Y125433D01*
X125423Y125401D01*
X125356Y125376D01*
X125288Y125357D01*
X125219Y125343D01*
X125202Y125341D01*
X124606D01*
X124099Y125240D01*
X123669Y124953D01*
X123459Y124743D01*
X121646D01*
X121518Y124717D01*
X118885D01*
Y121346D01*
Y118196D01*
Y115047D01*
Y111897D01*
X123635D01*
Y112257D01*
X124435D01*
X124773Y111919D01*
X124778Y111912D01*
X124830Y111842D01*
X124879Y111767D01*
X124926Y111685D01*
X124970Y111597D01*
X125007Y111512D01*
X125088Y111284D01*
X125122Y111160D01*
X125141Y111121D01*
X125196Y110848D01*
X125704Y110087D01*
X126465Y109579D01*
X126521Y109568D01*
X126472Y109068D01*
X123019D01*
Y107822D01*
X122257D01*
Y109265D01*
X117901D01*
Y104121D01*
X118753D01*
Y101162D01*
X116664D01*
X116535Y101188D01*
X116407Y101162D01*
X114539D01*
Y97200D01*
X120666D01*
Y99288D01*
X121016Y99638D01*
X121303Y100068D01*
X121404Y100575D01*
Y104121D01*
X122257D01*
Y105171D01*
X123019D01*
Y103924D01*
X127375D01*
Y108927D01*
X127375Y109068D01*
X127469Y109204D01*
X127753Y109246D01*
X128224Y108842D01*
Y107746D01*
X131102D01*
X133980D01*
Y108705D01*
X134334Y109058D01*
X135505Y109058D01*
X135567Y108584D01*
Y108358D01*
X137392D01*
Y111630D01*
X138642D01*
Y112880D01*
X141717D01*
Y114264D01*
Y116285D01*
X138642D01*
Y118785D01*
X141717D01*
Y120169D01*
Y122191D01*
X138642D01*
Y124691D01*
X141717D01*
Y126075D01*
Y128096D01*
X138642D01*
Y129347D01*
X137392D01*
Y132618D01*
D02*
G37*
G36*
X172570Y132333D02*
X168268D01*
X163966D01*
X164378Y131337D01*
X165092Y130407D01*
X166022Y129693D01*
X166622Y129445D01*
X166666Y129280D01*
X166687Y129146D01*
Y128019D01*
X166666Y127886D01*
X166622Y127721D01*
X166022Y127472D01*
X165092Y126758D01*
X164378Y125828D01*
X163966Y124833D01*
X168268D01*
X172570D01*
X172157Y125828D01*
X171443Y126758D01*
X170513Y127472D01*
X169913Y127721D01*
X169869Y127886D01*
X169848Y128019D01*
Y129146D01*
X169869Y129280D01*
X169913Y129445D01*
X170513Y129693D01*
X171443Y130407D01*
X172157Y131337D01*
X172570Y132333D01*
D02*
G37*
G36*
X13593Y132018D02*
X9291D01*
X4989D01*
X5402Y131022D01*
X6116Y130092D01*
X7046Y129378D01*
X7646Y129130D01*
X7690Y128965D01*
X7711Y128831D01*
Y127704D01*
X7690Y127571D01*
X7646Y127406D01*
X7046Y127157D01*
X6116Y126444D01*
X5402Y125513D01*
X4989Y124518D01*
X9291D01*
X13593D01*
X13181Y125513D01*
X12467Y126444D01*
X11537Y127157D01*
X10937Y127406D01*
X10893Y127571D01*
X10872Y127704D01*
Y128831D01*
X10893Y128965D01*
X10937Y129130D01*
X11537Y129378D01*
X12467Y130092D01*
X13181Y131022D01*
X13593Y132018D01*
D02*
G37*
G36*
X158268Y127368D02*
X157288Y127239D01*
X156375Y126861D01*
X155591Y126259D01*
X154990Y125475D01*
X154612Y124562D01*
X154483Y123583D01*
X154612Y122603D01*
X154990Y121690D01*
X155591Y120906D01*
X156375Y120305D01*
X157288Y119927D01*
X158268Y119798D01*
X159247Y119927D01*
X160160Y120305D01*
X160944Y120906D01*
X161546Y121690D01*
X161924Y122603D01*
X162053Y123583D01*
X161924Y124562D01*
X161546Y125475D01*
X160944Y126259D01*
X160160Y126861D01*
X159247Y127239D01*
X158268Y127368D01*
D02*
G37*
G36*
X19291Y127053D02*
X18312Y126924D01*
X17399Y126546D01*
X16615Y125944D01*
X16013Y125160D01*
X15635Y124247D01*
X15506Y123268D01*
X15635Y122288D01*
X16013Y121375D01*
X16615Y120591D01*
X17399Y119990D01*
X18312Y119612D01*
X19291Y119483D01*
X20271Y119612D01*
X21184Y119990D01*
X21968Y120591D01*
X22569Y121375D01*
X22948Y122288D01*
X23076Y123268D01*
X22948Y124247D01*
X22569Y125160D01*
X21968Y125944D01*
X21184Y126546D01*
X20271Y126924D01*
X19291Y127053D01*
D02*
G37*
G36*
X172570Y122333D02*
X168268D01*
X163966D01*
X164378Y121337D01*
X165092Y120407D01*
X166022Y119693D01*
X166622Y119445D01*
X166666Y119280D01*
X166687Y119146D01*
Y118019D01*
X166666Y117886D01*
X166622Y117721D01*
X166022Y117472D01*
X165092Y116758D01*
X164378Y115828D01*
X163966Y114833D01*
X168268D01*
X172570D01*
X172157Y115828D01*
X171443Y116758D01*
X170513Y117472D01*
X169913Y117721D01*
X169869Y117886D01*
X169848Y118019D01*
Y119146D01*
X169869Y119280D01*
X169913Y119445D01*
X170513Y119693D01*
X171443Y120407D01*
X172157Y121337D01*
X172570Y122333D01*
D02*
G37*
G36*
X38508Y138283D02*
X36683D01*
Y135011D01*
X35433D01*
Y133761D01*
X32358D01*
Y131740D01*
Y130215D01*
X35433D01*
Y127715D01*
X32358D01*
Y125694D01*
Y124169D01*
X35433D01*
Y121669D01*
X32358D01*
Y119647D01*
Y118123D01*
X35433D01*
Y115623D01*
X32358D01*
Y113601D01*
Y112077D01*
X35433D01*
Y109577D01*
X32358D01*
Y107555D01*
Y106031D01*
X35433D01*
Y103531D01*
X32358D01*
Y101509D01*
Y99985D01*
X35433D01*
Y97485D01*
X32358D01*
Y95463D01*
Y93938D01*
X35433D01*
Y92688D01*
X36683D01*
Y89417D01*
X38508D01*
Y89643D01*
X38570Y90117D01*
X39008Y90117D01*
X43320D01*
Y93386D01*
X46095Y96160D01*
X46102Y96166D01*
X46130Y96183D01*
X46139Y96187D01*
X46150Y96184D01*
X46193Y96164D01*
X46347Y96062D01*
X47244Y95883D01*
X48142Y96062D01*
X48461Y96276D01*
X48530Y96303D01*
X48643Y96376D01*
X48738Y96430D01*
X48830Y96477D01*
X48919Y96516D01*
X49006Y96548D01*
X49091Y96573D01*
X49173Y96593D01*
X49255Y96606D01*
X49268Y96608D01*
X51169D01*
Y95952D01*
X55918D01*
Y99102D01*
Y102251D01*
Y105401D01*
Y108772D01*
X53043D01*
X50434Y111381D01*
X50004Y111669D01*
X49642Y111741D01*
X49610Y111752D01*
X49591Y111751D01*
X49497Y111770D01*
X49382D01*
X49380Y111770D01*
X48902Y112485D01*
X48142Y112993D01*
X47244Y113172D01*
X46347Y112993D01*
X45586Y112485D01*
X45512Y112375D01*
X45453Y112326D01*
X45388Y112280D01*
X45325Y112242D01*
X45262Y112211D01*
X45200Y112187D01*
X45138Y112168D01*
X45073Y112154D01*
X45055Y112152D01*
X43320D01*
Y113398D01*
X38924D01*
X38546Y113583D01*
X38514Y113824D01*
X38611Y114301D01*
X39008Y114301D01*
X43320D01*
Y115800D01*
X44858D01*
X44876Y115798D01*
X44941Y115785D01*
X45004Y115766D01*
X45066Y115742D01*
X45128Y115711D01*
X45191Y115673D01*
X45257Y115627D01*
X45316Y115578D01*
X45389Y115468D01*
X46150Y114959D01*
X47047Y114781D01*
X47945Y114959D01*
X48706Y115468D01*
X49214Y116229D01*
X49249Y116405D01*
X49334Y116632D01*
X49373Y116720D01*
X49481Y116925D01*
X49523Y116993D01*
X49643Y117158D01*
X53043Y120558D01*
X55918D01*
Y123708D01*
Y126857D01*
Y130007D01*
Y133379D01*
X51169D01*
Y133018D01*
X49606D01*
X49099Y132917D01*
X48669Y132630D01*
X47911Y131872D01*
X47899Y131863D01*
X47855Y131836D01*
X47815Y131816D01*
X47775Y131802D01*
X47733Y131792D01*
X47687Y131786D01*
X47634Y131784D01*
X47572Y131788D01*
X47466Y131805D01*
X47403Y131802D01*
X47047Y131873D01*
X46150Y131694D01*
X46061Y131635D01*
X46050Y131634D01*
X46041Y131634D01*
X46033Y131635D01*
X46021Y131639D01*
X46001Y131648D01*
X45969Y131666D01*
X45961Y131673D01*
X43320Y134314D01*
Y137583D01*
X38570Y137583D01*
X38508Y138057D01*
Y138283D01*
D02*
G37*
G36*
X13593Y122018D02*
X9291D01*
X4989D01*
X5402Y121022D01*
X6116Y120092D01*
X7046Y119378D01*
X7646Y119130D01*
X7690Y118965D01*
X7711Y118831D01*
Y117704D01*
X7690Y117571D01*
X7646Y117406D01*
X7046Y117157D01*
X6116Y116444D01*
X5402Y115513D01*
X4989Y114518D01*
X9291D01*
X13593D01*
X13181Y115513D01*
X12467Y116444D01*
X11537Y117157D01*
X10937Y117406D01*
X10893Y117571D01*
X10872Y117704D01*
Y118831D01*
X10893Y118965D01*
X10937Y119130D01*
X11537Y119378D01*
X12467Y120092D01*
X13181Y121022D01*
X13593Y122018D01*
D02*
G37*
G36*
X158268Y117368D02*
X157288Y117239D01*
X156375Y116861D01*
X155591Y116259D01*
X154990Y115475D01*
X154612Y114562D01*
X154483Y113583D01*
X154612Y112603D01*
X154990Y111690D01*
X155591Y110906D01*
X156375Y110305D01*
X157288Y109926D01*
X158268Y109798D01*
X159247Y109926D01*
X160160Y110305D01*
X160944Y110906D01*
X161546Y111690D01*
X161924Y112603D01*
X162053Y113583D01*
X161924Y114562D01*
X161546Y115475D01*
X160944Y116259D01*
X160160Y116861D01*
X159247Y117239D01*
X158268Y117368D01*
D02*
G37*
G36*
X19291Y117053D02*
X18312Y116924D01*
X17399Y116546D01*
X16615Y115944D01*
X16013Y115160D01*
X15635Y114247D01*
X15506Y113268D01*
X15635Y112288D01*
X16013Y111375D01*
X16615Y110591D01*
X17399Y109990D01*
X18312Y109612D01*
X19291Y109483D01*
X20271Y109612D01*
X21184Y109990D01*
X21968Y110591D01*
X22569Y111375D01*
X22948Y112288D01*
X23076Y113268D01*
X22948Y114247D01*
X22569Y115160D01*
X21968Y115944D01*
X21184Y116546D01*
X20271Y116924D01*
X19291Y117053D01*
D02*
G37*
G36*
X141717Y110380D02*
X139892D01*
Y108358D01*
X141717D01*
Y110380D01*
D02*
G37*
G36*
X91142Y111467D02*
X90596Y111358D01*
X90132Y111049D01*
X89823Y110586D01*
X89714Y110039D01*
X89823Y109493D01*
X90132Y109030D01*
X90477Y108686D01*
X90940Y108376D01*
X91486Y108267D01*
X92032Y108376D01*
X92496Y108686D01*
X92805Y109149D01*
X92914Y109695D01*
X92805Y110241D01*
X92496Y110704D01*
X92151Y111049D01*
X91688Y111358D01*
X91142Y111467D01*
D02*
G37*
G36*
X172570Y112333D02*
X168268D01*
X163966D01*
X164378Y111337D01*
X165092Y110407D01*
X166022Y109693D01*
X166622Y109445D01*
X166666Y109280D01*
X166687Y109146D01*
Y108019D01*
X166666Y107886D01*
X166622Y107721D01*
X166022Y107472D01*
X165092Y106758D01*
X164378Y105828D01*
X163966Y104833D01*
X168268D01*
X172570D01*
X172157Y105828D01*
X171443Y106758D01*
X170513Y107472D01*
X169913Y107721D01*
X169869Y107886D01*
X169848Y108019D01*
Y109146D01*
X169869Y109280D01*
X169913Y109445D01*
X170513Y109693D01*
X171443Y110407D01*
X172157Y111337D01*
X172570Y112333D01*
D02*
G37*
G36*
X13593Y112018D02*
X9291D01*
X4989D01*
X5402Y111022D01*
X6116Y110092D01*
X7046Y109378D01*
X7646Y109130D01*
X7690Y108965D01*
X7711Y108831D01*
Y107704D01*
X7690Y107571D01*
X7646Y107406D01*
X7046Y107157D01*
X6116Y106444D01*
X5402Y105513D01*
X4989Y104518D01*
X9291D01*
X13593D01*
X13181Y105513D01*
X12467Y106444D01*
X11537Y107157D01*
X10937Y107406D01*
X10893Y107571D01*
X10872Y107704D01*
Y108831D01*
X10893Y108965D01*
X10937Y109130D01*
X11537Y109378D01*
X12467Y110092D01*
X13181Y111022D01*
X13593Y112018D01*
D02*
G37*
G36*
X133980Y105246D02*
X132352D01*
Y103224D01*
X133980D01*
Y105246D01*
D02*
G37*
G36*
X129852D02*
X128224D01*
Y103224D01*
X129852D01*
Y105246D01*
D02*
G37*
G36*
X158268Y107368D02*
X157288Y107239D01*
X156375Y106861D01*
X155591Y106259D01*
X154990Y105475D01*
X154612Y104562D01*
X154483Y103583D01*
X154612Y102603D01*
X154990Y101690D01*
X155591Y100906D01*
X156375Y100305D01*
X157288Y99927D01*
X158268Y99797D01*
X159247Y99927D01*
X160160Y100305D01*
X160944Y100906D01*
X161546Y101690D01*
X161924Y102603D01*
X162053Y103583D01*
X161924Y104562D01*
X161546Y105475D01*
X160944Y106259D01*
X160160Y106861D01*
X159247Y107239D01*
X158268Y107368D01*
D02*
G37*
G36*
X19291Y107053D02*
X18312Y106924D01*
X17399Y106546D01*
X16615Y105944D01*
X16013Y105160D01*
X15635Y104247D01*
X15506Y103268D01*
X15635Y102288D01*
X16013Y101375D01*
X16615Y100591D01*
X17399Y99990D01*
X18312Y99612D01*
X19291Y99483D01*
X20271Y99612D01*
X21184Y99990D01*
X21968Y100591D01*
X22569Y101375D01*
X22948Y102288D01*
X23076Y103268D01*
X22948Y104247D01*
X22569Y105160D01*
X21968Y105944D01*
X21184Y106546D01*
X20271Y106924D01*
X19291Y107053D01*
D02*
G37*
G36*
X172570Y102333D02*
X169518D01*
Y99281D01*
X170513Y99693D01*
X171443Y100407D01*
X172157Y101337D01*
X172570Y102333D01*
D02*
G37*
G36*
X167018D02*
X163966D01*
X164378Y101337D01*
X165092Y100407D01*
X166022Y99693D01*
X167018Y99281D01*
Y102333D01*
D02*
G37*
G36*
X137005Y98497D02*
X131861D01*
Y96766D01*
X129524D01*
Y97422D01*
X123397D01*
Y93460D01*
X128033D01*
X128240Y93419D01*
X128447Y93460D01*
X129524D01*
Y94116D01*
X131861D01*
Y93747D01*
X137005D01*
Y98497D01*
D02*
G37*
G36*
X13593Y102018D02*
X9291D01*
X4989D01*
X5402Y101022D01*
X6116Y100092D01*
X7046Y99378D01*
X7646Y99130D01*
X7690Y98965D01*
X7711Y98831D01*
Y97704D01*
X7690Y97571D01*
X7646Y97406D01*
X7046Y97157D01*
X6116Y96443D01*
X5402Y95513D01*
X4989Y94518D01*
X9291D01*
X13593D01*
X13181Y95513D01*
X12467Y96443D01*
X11537Y97157D01*
X10937Y97406D01*
X10893Y97571D01*
X10872Y97704D01*
Y98831D01*
X10893Y98965D01*
X10937Y99130D01*
X11537Y99378D01*
X12467Y100092D01*
X13181Y101022D01*
X13593Y102018D01*
D02*
G37*
G36*
X121366Y94382D02*
X118852D01*
Y92951D01*
X121366D01*
Y94382D01*
D02*
G37*
G36*
X116352D02*
X113839D01*
Y92951D01*
X116352D01*
Y94382D01*
D02*
G37*
G36*
X168268Y97368D02*
X167288Y97239D01*
X166375Y96861D01*
X165591Y96259D01*
X164990Y95475D01*
X164612Y94562D01*
X164483Y93583D01*
X164612Y92603D01*
X164990Y91690D01*
X165591Y90906D01*
X166375Y90305D01*
X167288Y89926D01*
X168268Y89798D01*
X169247Y89926D01*
X170160Y90305D01*
X170944Y90906D01*
X171546Y91690D01*
X171924Y92603D01*
X172053Y93583D01*
X171924Y94562D01*
X171546Y95475D01*
X170944Y96259D01*
X170160Y96861D01*
X169247Y97239D01*
X168268Y97368D01*
D02*
G37*
G36*
X158268D02*
X157288Y97239D01*
X156375Y96861D01*
X155591Y96259D01*
X154990Y95475D01*
X154612Y94562D01*
X154483Y93583D01*
X154612Y92603D01*
X154990Y91690D01*
X155591Y90906D01*
X156375Y90305D01*
X157288Y89926D01*
X158268Y89798D01*
X159247Y89926D01*
X160160Y90305D01*
X160944Y90906D01*
X161546Y91690D01*
X161924Y92603D01*
X162053Y93583D01*
X161924Y94562D01*
X161546Y95475D01*
X160944Y96259D01*
X160160Y96861D01*
X159247Y97239D01*
X158268Y97368D01*
D02*
G37*
G36*
X19291Y97053D02*
X18312Y96924D01*
X17399Y96546D01*
X16615Y95944D01*
X16013Y95160D01*
X15635Y94247D01*
X15506Y93268D01*
X15635Y92288D01*
X16013Y91375D01*
X16615Y90591D01*
X17399Y89990D01*
X18312Y89612D01*
X19291Y89483D01*
X20271Y89612D01*
X21184Y89990D01*
X21968Y90591D01*
X22569Y91375D01*
X22948Y92288D01*
X23076Y93268D01*
X22948Y94247D01*
X22569Y95160D01*
X21968Y95944D01*
X21184Y96546D01*
X20271Y96924D01*
X19291Y97053D01*
D02*
G37*
G36*
X34183Y91438D02*
X32358D01*
Y89417D01*
X34183D01*
Y91438D01*
D02*
G37*
G36*
X121366Y90451D02*
X118852D01*
Y89020D01*
X121366D01*
Y90451D01*
D02*
G37*
G36*
X116352D02*
X113839D01*
Y89020D01*
X116352D01*
Y90451D01*
D02*
G37*
G36*
X13593Y92018D02*
X9291D01*
X4989D01*
X5402Y91022D01*
X6116Y90092D01*
X7046Y89378D01*
X7646Y89130D01*
X7690Y88965D01*
X7711Y88831D01*
Y87704D01*
X7690Y87571D01*
X7646Y87406D01*
X7046Y87157D01*
X6116Y86443D01*
X5402Y85513D01*
X4989Y84518D01*
X9291D01*
X13593D01*
X13181Y85513D01*
X12467Y86443D01*
X11537Y87157D01*
X10937Y87406D01*
X10893Y87571D01*
X10872Y87704D01*
Y88831D01*
X10893Y88965D01*
X10937Y89130D01*
X11537Y89378D01*
X12467Y90092D01*
X13181Y91022D01*
X13593Y92018D01*
D02*
G37*
G36*
X77697Y85108D02*
X75675D01*
Y83284D01*
X77697D01*
Y85108D01*
D02*
G37*
G36*
X68057D02*
X66035D01*
Y83284D01*
X68057D01*
Y85108D01*
D02*
G37*
G36*
X97585Y83534D02*
X95563D01*
Y81709D01*
X97585D01*
Y83534D01*
D02*
G37*
G36*
X102106D02*
X100085D01*
Y81709D01*
X100665D01*
Y80356D01*
X104262D01*
Y82772D01*
X102106D01*
Y83534D01*
D02*
G37*
G36*
X168268Y87368D02*
X167288Y87239D01*
X166375Y86861D01*
X165591Y86259D01*
X164990Y85475D01*
X164612Y84562D01*
X164483Y83583D01*
X164612Y82603D01*
X164990Y81690D01*
X165591Y80906D01*
X166375Y80305D01*
X167288Y79927D01*
X168268Y79798D01*
X169247Y79927D01*
X170160Y80305D01*
X170944Y80906D01*
X171546Y81690D01*
X171924Y82603D01*
X172053Y83583D01*
X171924Y84562D01*
X171546Y85475D01*
X170944Y86259D01*
X170160Y86861D01*
X169247Y87239D01*
X168268Y87368D01*
D02*
G37*
G36*
X158268D02*
X157288Y87239D01*
X156375Y86861D01*
X155591Y86259D01*
X154990Y85475D01*
X154612Y84562D01*
X154483Y83583D01*
X154612Y82603D01*
X154990Y81690D01*
X155591Y80906D01*
X156375Y80305D01*
X157288Y79927D01*
X158268Y79798D01*
X159247Y79927D01*
X160160Y80305D01*
X160944Y80906D01*
X161546Y81690D01*
X161924Y82603D01*
X162053Y83583D01*
X161924Y84562D01*
X161546Y85475D01*
X160944Y86259D01*
X160160Y86861D01*
X159247Y87239D01*
X158268Y87368D01*
D02*
G37*
G36*
X19291Y87053D02*
X18312Y86924D01*
X17399Y86546D01*
X16615Y85944D01*
X16013Y85160D01*
X15635Y84247D01*
X15506Y83268D01*
X15635Y82288D01*
X16013Y81375D01*
X16615Y80591D01*
X17399Y79990D01*
X18312Y79612D01*
X19291Y79483D01*
X20271Y79612D01*
X21184Y79990D01*
X21968Y80591D01*
X22569Y81375D01*
X22948Y82288D01*
X23076Y83268D01*
X22948Y84247D01*
X22569Y85160D01*
X21968Y85944D01*
X21184Y86546D01*
X20271Y86924D01*
X19291Y87053D01*
D02*
G37*
G36*
X98213Y79272D02*
X96388D01*
Y77250D01*
X98213D01*
Y79272D01*
D02*
G37*
G36*
X75266Y79240D02*
X73441D01*
Y77219D01*
X75266D01*
Y79240D01*
D02*
G37*
G36*
X104262Y77856D02*
X100665D01*
Y75441D01*
X104262D01*
Y77856D01*
D02*
G37*
G36*
X13593Y82018D02*
X9291D01*
X4989D01*
X5402Y81022D01*
X6116Y80092D01*
X7046Y79378D01*
X7646Y79130D01*
X7690Y78965D01*
X7711Y78831D01*
Y77704D01*
X7690Y77571D01*
X7646Y77406D01*
X7046Y77157D01*
X6116Y76443D01*
X5402Y75513D01*
X4989Y74518D01*
X9291D01*
X13593D01*
X13181Y75513D01*
X12467Y76443D01*
X11537Y77157D01*
X10937Y77406D01*
X10893Y77571D01*
X10872Y77704D01*
Y78831D01*
X10893Y78965D01*
X10937Y79130D01*
X11537Y79378D01*
X12467Y80092D01*
X13181Y81022D01*
X13593Y82018D01*
D02*
G37*
G36*
X53359Y83280D02*
X48216D01*
Y80799D01*
X45403Y77986D01*
X45397Y77981D01*
X45326Y77928D01*
X45258Y77883D01*
X45068Y77778D01*
X44991Y77743D01*
X44761Y77657D01*
X44637Y77619D01*
X44614Y77607D01*
X44378Y77560D01*
X43617Y77052D01*
X43109Y76291D01*
X42930Y75394D01*
X43109Y74496D01*
X43617Y73735D01*
X44378Y73227D01*
X45276Y73049D01*
X46173Y73227D01*
X46934Y73735D01*
X47442Y74496D01*
X47621Y75394D01*
X47506Y75971D01*
X47503Y76024D01*
X47480Y76119D01*
X47473Y76166D01*
X47471Y76204D01*
X47474Y76234D01*
X47479Y76260D01*
X47488Y76288D01*
X47502Y76319D01*
X47525Y76357D01*
X47533Y76367D01*
X50090Y78924D01*
X53359D01*
Y83280D01*
D02*
G37*
G36*
X98213Y74750D02*
X96388D01*
Y72728D01*
X98213D01*
Y74750D01*
D02*
G37*
G36*
X75266Y74718D02*
X73441D01*
Y72697D01*
X75266D01*
Y74718D01*
D02*
G37*
G36*
X168268Y77368D02*
X167288Y77239D01*
X166375Y76861D01*
X165591Y76259D01*
X164990Y75475D01*
X164612Y74562D01*
X164483Y73583D01*
X164612Y72603D01*
X164990Y71690D01*
X165591Y70906D01*
X166375Y70305D01*
X167288Y69927D01*
X168268Y69797D01*
X169247Y69927D01*
X170160Y70305D01*
X170944Y70906D01*
X171546Y71690D01*
X171924Y72603D01*
X172053Y73583D01*
X171924Y74562D01*
X171546Y75475D01*
X170944Y76259D01*
X170160Y76861D01*
X169247Y77239D01*
X168268Y77368D01*
D02*
G37*
G36*
X158268D02*
X157288Y77239D01*
X156375Y76861D01*
X155591Y76259D01*
X154990Y75475D01*
X154612Y74562D01*
X154483Y73583D01*
X154612Y72603D01*
X154990Y71690D01*
X155591Y70906D01*
X156375Y70305D01*
X157288Y69927D01*
X158268Y69797D01*
X159247Y69927D01*
X160160Y70305D01*
X160944Y70906D01*
X161546Y71690D01*
X161924Y72603D01*
X162053Y73583D01*
X161924Y74562D01*
X161546Y75475D01*
X160944Y76259D01*
X160160Y76861D01*
X159247Y77239D01*
X158268Y77368D01*
D02*
G37*
G36*
X19291Y77053D02*
X18312Y76924D01*
X17399Y76546D01*
X16615Y75944D01*
X16013Y75160D01*
X15635Y74247D01*
X15506Y73268D01*
X15635Y72288D01*
X16013Y71375D01*
X16615Y70591D01*
X17399Y69990D01*
X18312Y69612D01*
X19291Y69483D01*
X20271Y69612D01*
X21184Y69990D01*
X21968Y70591D01*
X22569Y71375D01*
X22948Y72288D01*
X23076Y73268D01*
X22948Y74247D01*
X22569Y75160D01*
X21968Y75944D01*
X21184Y76546D01*
X20271Y76924D01*
X19291Y77053D01*
D02*
G37*
G36*
X13593Y72018D02*
X9291D01*
X4989D01*
X5402Y71022D01*
X6116Y70092D01*
X7046Y69378D01*
X7646Y69130D01*
X7690Y68965D01*
X7711Y68831D01*
Y67704D01*
X7690Y67571D01*
X7646Y67406D01*
X7046Y67157D01*
X6116Y66443D01*
X5402Y65513D01*
X4989Y64518D01*
X9291D01*
X13593D01*
X13181Y65513D01*
X12467Y66443D01*
X11537Y67157D01*
X10937Y67406D01*
X10893Y67571D01*
X10872Y67704D01*
Y68831D01*
X10893Y68965D01*
X10937Y69130D01*
X11537Y69378D01*
X12467Y70092D01*
X13181Y71022D01*
X13593Y72018D01*
D02*
G37*
G36*
X168268Y67368D02*
X167288Y67239D01*
X166375Y66861D01*
X165591Y66259D01*
X164990Y65475D01*
X164612Y64562D01*
X164483Y63583D01*
X164612Y62603D01*
X164990Y61690D01*
X165591Y60906D01*
X166375Y60305D01*
X167288Y59926D01*
X168268Y59798D01*
X169247Y59926D01*
X170160Y60305D01*
X170944Y60906D01*
X171546Y61690D01*
X171924Y62603D01*
X172053Y63583D01*
X171924Y64562D01*
X171546Y65475D01*
X170944Y66259D01*
X170160Y66861D01*
X169247Y67239D01*
X168268Y67368D01*
D02*
G37*
G36*
X158268D02*
X157288Y67239D01*
X156375Y66861D01*
X155591Y66259D01*
X154990Y65475D01*
X154612Y64562D01*
X154483Y63583D01*
X154612Y62603D01*
X154990Y61690D01*
X155591Y60906D01*
X156375Y60305D01*
X157288Y59926D01*
X158268Y59798D01*
X159247Y59926D01*
X160160Y60305D01*
X160944Y60906D01*
X161546Y61690D01*
X161924Y62603D01*
X162053Y63583D01*
X161924Y64562D01*
X161546Y65475D01*
X160944Y66259D01*
X160160Y66861D01*
X159247Y67239D01*
X158268Y67368D01*
D02*
G37*
G36*
X19291Y67053D02*
X18312Y66924D01*
X17399Y66546D01*
X16615Y65944D01*
X16013Y65160D01*
X15635Y64247D01*
X15506Y63268D01*
X15635Y62288D01*
X16013Y61375D01*
X16615Y60591D01*
X17399Y59990D01*
X18312Y59612D01*
X19291Y59483D01*
X20271Y59612D01*
X21184Y59990D01*
X21968Y60591D01*
X22569Y61375D01*
X22948Y62288D01*
X23076Y63268D01*
X22948Y64247D01*
X22569Y65160D01*
X21968Y65944D01*
X21184Y66546D01*
X20271Y66924D01*
X19291Y67053D01*
D02*
G37*
G36*
X13593Y62018D02*
X9291D01*
X4989D01*
X5402Y61022D01*
X6116Y60092D01*
X7046Y59378D01*
X7646Y59130D01*
X7690Y58965D01*
X7711Y58831D01*
Y57704D01*
X7690Y57571D01*
X7646Y57406D01*
X7046Y57157D01*
X6116Y56443D01*
X5402Y55513D01*
X4989Y54518D01*
X9291D01*
X13593D01*
X13181Y55513D01*
X12467Y56443D01*
X11537Y57157D01*
X10937Y57406D01*
X10893Y57571D01*
X10872Y57704D01*
Y58831D01*
X10893Y58965D01*
X10937Y59130D01*
X11537Y59378D01*
X12467Y60092D01*
X13181Y61022D01*
X13593Y62018D01*
D02*
G37*
G36*
X168268Y57368D02*
X167288Y57239D01*
X166375Y56861D01*
X165591Y56259D01*
X164990Y55475D01*
X164612Y54562D01*
X164483Y53583D01*
X164612Y52603D01*
X164990Y51690D01*
X165591Y50906D01*
X166375Y50305D01*
X167288Y49926D01*
X168268Y49797D01*
X169247Y49926D01*
X170160Y50305D01*
X170944Y50906D01*
X171546Y51690D01*
X171924Y52603D01*
X172053Y53583D01*
X171924Y54562D01*
X171546Y55475D01*
X170944Y56259D01*
X170160Y56861D01*
X169247Y57239D01*
X168268Y57368D01*
D02*
G37*
G36*
X158268D02*
X157288Y57239D01*
X156375Y56861D01*
X155591Y56259D01*
X154990Y55475D01*
X154612Y54562D01*
X154483Y53583D01*
X154612Y52603D01*
X154990Y51690D01*
X155591Y50906D01*
X156375Y50305D01*
X157288Y49926D01*
X158268Y49797D01*
X159247Y49926D01*
X160160Y50305D01*
X160944Y50906D01*
X161546Y51690D01*
X161924Y52603D01*
X162053Y53583D01*
X161924Y54562D01*
X161546Y55475D01*
X160944Y56259D01*
X160160Y56861D01*
X159247Y57239D01*
X158268Y57368D01*
D02*
G37*
G36*
X23044Y57020D02*
X15539D01*
Y49515D01*
X23044D01*
Y57020D01*
D02*
G37*
G36*
X13593Y52018D02*
X10541D01*
Y48966D01*
X11537Y49378D01*
X12467Y50092D01*
X13181Y51022D01*
X13593Y52018D01*
D02*
G37*
G36*
X8041D02*
X4989D01*
X5402Y51022D01*
X6116Y50092D01*
X7046Y49378D01*
X8041Y48966D01*
Y52018D01*
D02*
G37*
%LPD*%
G36*
X97934Y165328D02*
X98290Y165268D01*
X98640Y165184D01*
X98984Y165076D01*
X99324Y164943D01*
X99661Y164785D01*
X99691Y164768D01*
X99789Y163227D01*
Y159931D01*
X99289Y159685D01*
X99003Y159904D01*
X98234Y160222D01*
X97409Y160331D01*
X96583Y160222D01*
X95814Y159904D01*
X95154Y159397D01*
X95068Y159284D01*
X94568Y159454D01*
Y160619D01*
X85031D01*
Y161319D01*
X80457D01*
Y160049D01*
X80008Y159828D01*
X79910Y159904D01*
X79141Y160222D01*
X78315Y160331D01*
X77490Y160222D01*
X76720Y159904D01*
X76623Y159829D01*
X76495Y159825D01*
X75935D01*
Y163985D01*
X75975Y164736D01*
X76063Y164785D01*
X76400Y164943D01*
X76740Y165076D01*
X77084Y165184D01*
X77434Y165268D01*
X77790Y165328D01*
X77984Y165348D01*
X79266D01*
Y164610D01*
X85197D01*
Y165230D01*
X91078D01*
Y164610D01*
X97009D01*
Y165348D01*
X97740D01*
X97934Y165328D01*
D02*
G37*
G36*
X101147Y165525D02*
X103843D01*
X103803Y165443D01*
X103768Y165307D01*
X103736Y165116D01*
X103709Y164871D01*
X103653Y163807D01*
X103634Y162253D01*
X100634D01*
X100632Y162826D01*
X100476Y165261D01*
X100410Y165303D01*
X100031Y165512D01*
X99647Y165692D01*
X99255Y165845D01*
X98858Y165971D01*
X98453Y166068D01*
X98043Y166137D01*
X97626Y166179D01*
X97203Y166193D01*
Y169193D01*
X97626Y169207D01*
X98043Y169248D01*
X98453Y169318D01*
X98858Y169415D01*
X99255Y169540D01*
X99647Y169693D01*
X100031Y169874D01*
X100410Y170083D01*
X100782Y170319D01*
X101147Y170583D01*
Y165525D01*
D02*
G37*
G36*
X74942Y170319D02*
X75314Y170083D01*
X75693Y169874D01*
X76077Y169693D01*
X76469Y169540D01*
X76866Y169415D01*
X77271Y169318D01*
X77681Y169248D01*
X78098Y169207D01*
X78521Y169193D01*
Y166193D01*
X78098Y166179D01*
X77681Y166137D01*
X77271Y166068D01*
X76866Y165971D01*
X76469Y165845D01*
X76077Y165692D01*
X75693Y165512D01*
X75314Y165303D01*
X75213Y165239D01*
X75192Y165116D01*
X75165Y164871D01*
X75109Y163807D01*
X75090Y162253D01*
X72090D01*
X72088Y162826D01*
X71921Y165443D01*
X71881Y165525D01*
X74577D01*
Y170583D01*
X74942Y170319D01*
D02*
G37*
G36*
X76409Y155747D02*
X76362Y155791D01*
X76291Y155831D01*
X76196Y155866D01*
X76076Y155896D01*
X75932Y155922D01*
X75569Y155959D01*
X75108Y155978D01*
X74841Y155980D01*
X75415Y158980D01*
X76883Y159020D01*
X76409Y155747D01*
D02*
G37*
G36*
X75348Y152174D02*
X75423Y152123D01*
X75509Y152078D01*
X75605Y152039D01*
X75713Y152006D01*
X75831Y151979D01*
X75960Y151958D01*
X76100Y151943D01*
X76412Y151931D01*
Y150431D01*
X76250Y150428D01*
X75960Y150404D01*
X75831Y150383D01*
X75713Y150356D01*
X75605Y150323D01*
X75509Y150284D01*
X75423Y150239D01*
X75348Y150188D01*
X75284Y150131D01*
Y152231D01*
X75348Y152174D01*
D02*
G37*
G36*
X155339Y142839D02*
X155321Y143010D01*
X155266Y143163D01*
X155176Y143298D01*
X155049Y143415D01*
X154886Y143514D01*
X154687Y143595D01*
X154451Y143658D01*
X154179Y143703D01*
X153871Y143730D01*
X153527Y143739D01*
Y145539D01*
X153871Y145548D01*
X154179Y145575D01*
X154451Y145620D01*
X154687Y145683D01*
X154886Y145764D01*
X155049Y145863D01*
X155176Y145980D01*
X155266Y146115D01*
X155321Y146268D01*
X155339Y146439D01*
Y142839D01*
D02*
G37*
G36*
X37141Y150232D02*
X37260Y150144D01*
X37382Y150066D01*
X37506Y149998D01*
X37633Y149941D01*
X37762Y149894D01*
X37893Y149858D01*
X38026Y149832D01*
X38161Y149816D01*
X38299Y149811D01*
X38369Y148811D01*
X38228Y148805D01*
X38092Y148788D01*
X37961Y148759D01*
X37834Y148719D01*
X37711Y148667D01*
X37592Y148604D01*
X37478Y148529D01*
X37368Y148442D01*
X37262Y148345D01*
X37161Y148235D01*
X37024Y150331D01*
X37141Y150232D01*
D02*
G37*
G36*
X49572Y142195D02*
X49596Y141905D01*
X49617Y141776D01*
X49644Y141658D01*
X49677Y141550D01*
X49716Y141454D01*
X49761Y141368D01*
X49812Y141293D01*
X49869Y141229D01*
X48375D01*
X47319Y140173D01*
X47314Y140258D01*
X47297Y140347D01*
X47268Y140440D01*
X47227Y140536D01*
X47175Y140635D01*
X47110Y140738D01*
X47034Y140844D01*
X46946Y140953D01*
X46734Y141182D01*
X47794Y142243D01*
X47910Y142131D01*
X48053Y142010D01*
X48057Y142045D01*
X48069Y142357D01*
X49569D01*
X49572Y142195D01*
D02*
G37*
G36*
X79820Y137328D02*
X79744Y137214D01*
X79677Y137095D01*
X79619Y136974D01*
X79570Y136848D01*
X79530Y136720D01*
X79499Y136587D01*
X79477Y136451D01*
X79463Y136312D01*
X79459Y136169D01*
X78359Y136035D01*
X78354Y136181D01*
X78337Y136320D01*
X78310Y136453D01*
X78272Y136580D01*
X78224Y136700D01*
X78164Y136813D01*
X78094Y136921D01*
X78012Y137021D01*
X77920Y137115D01*
X77817Y137203D01*
X79904Y137440D01*
X79820Y137328D01*
D02*
G37*
G36*
X106467Y134331D02*
X105830Y133629D01*
X104864Y135063D01*
X104899Y135058D01*
X104942Y135064D01*
X104992Y135083D01*
X105051Y135114D01*
X105118Y135157D01*
X105192Y135212D01*
X105365Y135359D01*
X105569Y135554D01*
X106467Y134331D01*
D02*
G37*
G36*
X74260Y131778D02*
X74247Y131653D01*
X74249Y131529D01*
X74265Y131408D01*
X74295Y131289D01*
X74339Y131173D01*
X74397Y131058D01*
X74469Y130945D01*
X74555Y130835D01*
X74655Y130727D01*
X73666Y130160D01*
X73564Y130257D01*
X73458Y130347D01*
X73349Y130431D01*
X73236Y130507D01*
X73120Y130577D01*
X73000Y130640D01*
X72877Y130697D01*
X72750Y130746D01*
X72619Y130789D01*
X72486Y130825D01*
X74286Y131905D01*
X74260Y131778D01*
D02*
G37*
G36*
X113683Y128647D02*
X113552Y128667D01*
X113424Y128673D01*
X113298Y128666D01*
X113174Y128646D01*
X113054Y128613D01*
X112936Y128566D01*
X112820Y128506D01*
X112707Y128433D01*
X112597Y128346D01*
X112489Y128246D01*
X111870Y129183D01*
X111967Y129286D01*
X112057Y129393D01*
X112139Y129504D01*
X112214Y129618D01*
X112280Y129736D01*
X112340Y129858D01*
X112391Y129983D01*
X112435Y130112D01*
X112471Y130245D01*
X112500Y130382D01*
X113683Y128647D01*
D02*
G37*
G36*
X92674Y127551D02*
X92780Y127466D01*
X92892Y127389D01*
X93010Y127321D01*
X93134Y127261D01*
X93264Y127209D01*
X93399Y127165D01*
X93541Y127130D01*
X93688Y127103D01*
X93841Y127084D01*
X92211Y125761D01*
X92222Y125908D01*
X92221Y126050D01*
X92208Y126188D01*
X92184Y126320D01*
X92148Y126448D01*
X92099Y126571D01*
X92040Y126689D01*
X91968Y126803D01*
X91884Y126912D01*
X91788Y127015D01*
X92574Y127644D01*
X92674Y127551D01*
D02*
G37*
G36*
X83672Y127412D02*
X83781Y127330D01*
X83893Y127262D01*
X84008Y127210D01*
X84126Y127172D01*
X84247Y127150D01*
X84371Y127142D01*
X84497Y127149D01*
X84626Y127172D01*
X84759Y127209D01*
X83805Y125338D01*
X83755Y125486D01*
X83643Y125765D01*
X83579Y125895D01*
X83440Y126139D01*
X83363Y126252D01*
X83196Y126460D01*
X83106Y126556D01*
X83565Y127510D01*
X83672Y127412D01*
D02*
G37*
G36*
X99083Y119979D02*
X99199Y119888D01*
X99318Y119808D01*
X99440Y119738D01*
X99564Y119679D01*
X99692Y119631D01*
X99822Y119594D01*
X99955Y119567D01*
X100090Y119551D01*
X100229Y119545D01*
X100264Y118545D01*
X100124Y118540D01*
X99988Y118523D01*
X99856Y118495D01*
X99728Y118455D01*
X99603Y118404D01*
X99483Y118342D01*
X99366Y118269D01*
X99253Y118185D01*
X99143Y118089D01*
X99038Y117982D01*
X98969Y120081D01*
X99083Y119979D01*
D02*
G37*
G36*
X76646Y119345D02*
X76754Y119262D01*
X76868Y119189D01*
X76986Y119129D01*
X77109Y119080D01*
X77237Y119043D01*
X77371Y119018D01*
X77508Y119004D01*
X77651Y119002D01*
X77799Y119012D01*
X76458Y117395D01*
X76441Y117549D01*
X76415Y117696D01*
X76381Y117837D01*
X76338Y117973D01*
X76287Y118103D01*
X76228Y118226D01*
X76160Y118344D01*
X76083Y118457D01*
X75998Y118563D01*
X75905Y118664D01*
X76542Y119441D01*
X76646Y119345D01*
D02*
G37*
G36*
X76882Y112139D02*
X76772Y112243D01*
X76659Y112337D01*
X76543Y112419D01*
X76424Y112491D01*
X76301Y112551D01*
X76175Y112601D01*
X76046Y112639D01*
X75914Y112667D01*
X75778Y112683D01*
X75639Y112689D01*
Y113689D01*
X75778Y113695D01*
X75914Y113711D01*
X76046Y113739D01*
X76175Y113777D01*
X76301Y113827D01*
X76424Y113887D01*
X76543Y113959D01*
X76659Y114041D01*
X76772Y114135D01*
X76882Y114239D01*
Y112139D01*
D02*
G37*
G36*
X99330Y109076D02*
X99430Y108792D01*
X99488Y108659D01*
X99552Y108533D01*
X99621Y108412D01*
X99696Y108297D01*
X99776Y108188D01*
X99862Y108085D01*
X99953Y107988D01*
X99445Y107081D01*
X99340Y107178D01*
X99230Y107261D01*
X99118Y107330D01*
X99001Y107384D01*
X98882Y107424D01*
X98759Y107450D01*
X98632Y107462D01*
X98502Y107459D01*
X98369Y107443D01*
X98232Y107412D01*
X99289Y109226D01*
X99330Y109076D01*
D02*
G37*
G36*
X80045Y104584D02*
X79959Y104595D01*
X79869Y104592D01*
X79775Y104575D01*
X79678Y104545D01*
X79579Y104502D01*
X79475Y104445D01*
X79369Y104374D01*
X79259Y104290D01*
X79146Y104192D01*
X79029Y104080D01*
X78211Y105384D01*
X78325Y105501D01*
X78604Y105821D01*
X78675Y105918D01*
X78786Y106096D01*
X78825Y106177D01*
X78854Y106254D01*
X78872Y106325D01*
X80045Y104584D01*
D02*
G37*
G36*
X89725Y104922D02*
X89631Y104809D01*
X89549Y104693D01*
X89477Y104574D01*
X89417Y104451D01*
X89368Y104325D01*
X89329Y104196D01*
X89302Y104063D01*
X89285Y103927D01*
X89280Y103788D01*
X88279D01*
X88274Y103927D01*
X88257Y104063D01*
X88230Y104196D01*
X88191Y104325D01*
X88142Y104451D01*
X88082Y104574D01*
X88010Y104693D01*
X87928Y104809D01*
X87834Y104922D01*
X87730Y105031D01*
X89829D01*
X89725Y104922D01*
D02*
G37*
G36*
X105033Y103947D02*
X105050Y103811D01*
X105077Y103678D01*
X105116Y103549D01*
X105165Y103423D01*
X105226Y103300D01*
X105297Y103181D01*
X105380Y103065D01*
X105473Y102952D01*
X105578Y102843D01*
X103478D01*
X103582Y102952D01*
X103676Y103065D01*
X103758Y103181D01*
X103830Y103300D01*
X103890Y103423D01*
X103940Y103549D01*
X103978Y103678D01*
X104006Y103811D01*
X104022Y103947D01*
X104028Y104086D01*
X105028D01*
X105033Y103947D01*
D02*
G37*
G36*
X103456Y96785D02*
X103347Y96889D01*
X103234Y96983D01*
X103118Y97065D01*
X102999Y97137D01*
X102876Y97197D01*
X102750Y97247D01*
X102621Y97285D01*
X102488Y97313D01*
X102352Y97329D01*
X102213Y97335D01*
Y98335D01*
X102352Y98340D01*
X102488Y98357D01*
X102621Y98384D01*
X102750Y98423D01*
X102876Y98472D01*
X102999Y98533D01*
X103118Y98604D01*
X103234Y98687D01*
X103347Y98780D01*
X103456Y98885D01*
Y96785D01*
D02*
G37*
G36*
X66312Y95976D02*
X66339Y95896D01*
X66377Y95812D01*
X66426Y95724D01*
X66486Y95631D01*
X66557Y95533D01*
X66730Y95323D01*
X66833Y95211D01*
X66947Y95094D01*
X66094Y93826D01*
X65977Y93937D01*
X65754Y94120D01*
X65648Y94191D01*
X65544Y94250D01*
X65444Y94294D01*
X65347Y94326D01*
X65253Y94344D01*
X65163Y94349D01*
X65075Y94340D01*
X66295Y96050D01*
X66312Y95976D01*
D02*
G37*
G36*
X141180Y84378D02*
X141111Y84324D01*
X141049Y84258D01*
X140995Y84180D01*
X140948Y84091D01*
X140908Y83989D01*
X140875Y83876D01*
X140850Y83751D01*
X140832Y83614D01*
X140821Y83464D01*
X140817Y83303D01*
X139317Y83646D01*
X139315Y83810D01*
X139286Y84233D01*
X139268Y84352D01*
X139220Y84556D01*
X139190Y84642D01*
X139156Y84716D01*
X139119Y84779D01*
X141180Y84378D01*
D02*
G37*
G36*
X132451Y73319D02*
X132337Y73202D01*
X132059Y72881D01*
X131987Y72784D01*
X131877Y72605D01*
X131838Y72523D01*
X131809Y72446D01*
X131792Y72374D01*
X130608Y74109D01*
X130695Y74099D01*
X130785Y74102D01*
X130878Y74119D01*
X130975Y74149D01*
X131075Y74193D01*
X131179Y74250D01*
X131285Y74321D01*
X131395Y74405D01*
X131508Y74503D01*
X131625Y74615D01*
X132451Y73319D01*
D02*
G37*
G36*
X129406Y74611D02*
X129629Y74423D01*
X129735Y74346D01*
X129838Y74282D01*
X129937Y74229D01*
X130033Y74189D01*
X130125Y74160D01*
X130214Y74143D01*
X130300Y74138D01*
X128815Y72653D01*
X128810Y72738D01*
X128793Y72828D01*
X128764Y72920D01*
X128723Y73016D01*
X128671Y73115D01*
X128606Y73218D01*
X128530Y73324D01*
X128442Y73433D01*
X128230Y73662D01*
X129290Y74723D01*
X129406Y74611D01*
D02*
G37*
G36*
X129484Y124796D02*
X129393Y124700D01*
X129307Y124597D01*
X129227Y124489D01*
X129152Y124374D01*
X129082Y124254D01*
X129017Y124128D01*
X128904Y123857D01*
X128855Y123713D01*
X128811Y123563D01*
X127778Y125391D01*
X127914Y125359D01*
X128047Y125341D01*
X128176Y125337D01*
X128302Y125348D01*
X128424Y125373D01*
X128544Y125412D01*
X128660Y125466D01*
X128772Y125534D01*
X128882Y125617D01*
X128988Y125714D01*
X129484Y124796D01*
D02*
G37*
G36*
X126246Y122948D02*
X126142Y123056D01*
X126034Y123152D01*
X125922Y123238D01*
X125806Y123311D01*
X125686Y123374D01*
X125562Y123425D01*
X125434Y123465D01*
X125302Y123493D01*
X125166Y123510D01*
X125027Y123516D01*
X125073Y124516D01*
X125211Y124521D01*
X125347Y124537D01*
X125480Y124564D01*
X125610Y124601D01*
X125738Y124648D01*
X125863Y124707D01*
X125986Y124776D01*
X126106Y124855D01*
X126223Y124945D01*
X126338Y125046D01*
X126246Y122948D01*
D02*
G37*
G36*
X128266Y121093D02*
X128537Y120963D01*
X128672Y120911D01*
X128807Y120866D01*
X128941Y120829D01*
X129075Y120801D01*
X129209Y120781D01*
X129342Y120769D01*
X129475Y120765D01*
X129758Y119765D01*
X129614Y119758D01*
X129478Y119740D01*
X129350Y119708D01*
X129229Y119665D01*
X129116Y119608D01*
X129011Y119540D01*
X128913Y119458D01*
X128823Y119365D01*
X128741Y119259D01*
X128666Y119140D01*
X128130Y121170D01*
X128266Y121093D01*
D02*
G37*
G36*
X126291Y118832D02*
X126181Y118936D01*
X126069Y119030D01*
X125953Y119112D01*
X125833Y119184D01*
X125711Y119244D01*
X125585Y119294D01*
X125455Y119332D01*
X125323Y119360D01*
X125187Y119376D01*
X125048Y119382D01*
X125048Y120382D01*
X125187Y120387D01*
X125323Y120404D01*
X125455Y120431D01*
X125585Y120470D01*
X125711Y120519D01*
X125833Y120580D01*
X125953Y120651D01*
X126069Y120734D01*
X126181Y120827D01*
X126291Y120932D01*
X126291Y118832D01*
D02*
G37*
G36*
X129480Y116683D02*
X129389Y116587D01*
X129304Y116484D01*
X129223Y116375D01*
X129149Y116260D01*
X129080Y116139D01*
X129016Y116013D01*
X128958Y115880D01*
X128858Y115596D01*
X128816Y115445D01*
X127759Y117260D01*
X127896Y117229D01*
X128030Y117212D01*
X128160Y117210D01*
X128286Y117222D01*
X128409Y117247D01*
X128529Y117288D01*
X128645Y117342D01*
X128758Y117411D01*
X128867Y117493D01*
X128973Y117590D01*
X129480Y116683D01*
D02*
G37*
G36*
X126338Y114718D02*
X126223Y114819D01*
X126106Y114909D01*
X125986Y114988D01*
X125863Y115057D01*
X125738Y115115D01*
X125610Y115163D01*
X125480Y115200D01*
X125347Y115227D01*
X125211Y115243D01*
X125073Y115248D01*
X125027Y116248D01*
X125166Y116254D01*
X125302Y116271D01*
X125434Y116299D01*
X125562Y116339D01*
X125686Y116390D01*
X125806Y116452D01*
X125922Y116526D01*
X126034Y116611D01*
X126142Y116708D01*
X126246Y116816D01*
X126338Y114718D01*
D02*
G37*
G36*
X125857Y113425D02*
X125967Y113342D01*
X126079Y113274D01*
X126195Y113219D01*
X126315Y113179D01*
X126438Y113153D01*
X126565Y113142D01*
X126695Y113144D01*
X126828Y113161D01*
X126965Y113192D01*
X125908Y111377D01*
X125866Y111528D01*
X125767Y111811D01*
X125708Y111944D01*
X125645Y112071D01*
X125576Y112192D01*
X125501Y112307D01*
X125421Y112416D01*
X125335Y112518D01*
X125244Y112615D01*
X125751Y113522D01*
X125857Y113425D01*
D02*
G37*
G36*
X128543Y112691D02*
X128656Y112597D01*
X128772Y112515D01*
X128891Y112443D01*
X129014Y112383D01*
X129140Y112333D01*
X129269Y112295D01*
X129401Y112267D01*
X129537Y112251D01*
X129676Y112245D01*
Y111245D01*
X129537Y111240D01*
X129401Y111223D01*
X129269Y111196D01*
X129140Y111157D01*
X129014Y111108D01*
X128891Y111047D01*
X128772Y110976D01*
X128656Y110893D01*
X128543Y110800D01*
X128433Y110695D01*
Y112795D01*
X128543Y112691D01*
D02*
G37*
G36*
X170084Y131216D02*
X169860Y130960D01*
X169663Y130705D01*
X169492Y130451D01*
X169347Y130199D01*
X169228Y129948D01*
X169136Y129698D01*
X169070Y129449D01*
X169031Y129201D01*
X169018Y128955D01*
X167518D01*
X167505Y129201D01*
X167465Y129449D01*
X167399Y129698D01*
X167307Y129948D01*
X167189Y130199D01*
X167044Y130451D01*
X166872Y130705D01*
X166675Y130960D01*
X166451Y131216D01*
X166201Y131474D01*
X170335D01*
X170084Y131216D01*
D02*
G37*
G36*
X169031Y127964D02*
X169070Y127717D01*
X169136Y127468D01*
X169228Y127218D01*
X169347Y126967D01*
X169492Y126714D01*
X169663Y126460D01*
X169860Y126205D01*
X170084Y125949D01*
X170335Y125691D01*
X166201D01*
X166451Y125949D01*
X166675Y126205D01*
X166872Y126460D01*
X167044Y126714D01*
X167189Y126967D01*
X167307Y127218D01*
X167399Y127468D01*
X167465Y127717D01*
X167505Y127964D01*
X167518Y128210D01*
X169018D01*
X169031Y127964D01*
D02*
G37*
G36*
X11108Y130902D02*
X10884Y130645D01*
X10687Y130390D01*
X10515Y130136D01*
X10371Y129884D01*
X10252Y129633D01*
X10160Y129383D01*
X10094Y129134D01*
X10054Y128886D01*
X10041Y128640D01*
X8541D01*
X8528Y128886D01*
X8489Y129134D01*
X8423Y129383D01*
X8331Y129633D01*
X8212Y129884D01*
X8067Y130136D01*
X7896Y130390D01*
X7699Y130645D01*
X7475Y130902D01*
X7224Y131159D01*
X11358D01*
X11108Y130902D01*
D02*
G37*
G36*
X10054Y127649D02*
X10094Y127401D01*
X10160Y127153D01*
X10252Y126903D01*
X10371Y126652D01*
X10515Y126399D01*
X10687Y126145D01*
X10884Y125890D01*
X11108Y125634D01*
X11358Y125376D01*
X7224D01*
X7475Y125634D01*
X7699Y125890D01*
X7896Y126145D01*
X8067Y126399D01*
X8212Y126652D01*
X8331Y126903D01*
X8423Y127153D01*
X8489Y127401D01*
X8528Y127649D01*
X8541Y127895D01*
X10041D01*
X10054Y127649D01*
D02*
G37*
G36*
X170084Y121216D02*
X169860Y120960D01*
X169663Y120705D01*
X169492Y120451D01*
X169347Y120199D01*
X169228Y119948D01*
X169136Y119698D01*
X169070Y119449D01*
X169031Y119201D01*
X169018Y118955D01*
X167518D01*
X167505Y119201D01*
X167465Y119449D01*
X167399Y119698D01*
X167307Y119948D01*
X167189Y120199D01*
X167044Y120451D01*
X166872Y120705D01*
X166675Y120960D01*
X166451Y121216D01*
X166201Y121474D01*
X170335D01*
X170084Y121216D01*
D02*
G37*
G36*
X169031Y117964D02*
X169070Y117717D01*
X169136Y117468D01*
X169228Y117218D01*
X169347Y116966D01*
X169492Y116714D01*
X169663Y116460D01*
X169860Y116205D01*
X170084Y115949D01*
X170335Y115691D01*
X166201D01*
X166451Y115949D01*
X166675Y116205D01*
X166872Y116460D01*
X167044Y116714D01*
X167189Y116966D01*
X167307Y117218D01*
X167399Y117468D01*
X167465Y117717D01*
X167505Y117964D01*
X167518Y118210D01*
X169018D01*
X169031Y117964D01*
D02*
G37*
G36*
X49141Y130520D02*
X49049Y130422D01*
X48963Y130317D01*
X48884Y130207D01*
X48813Y130090D01*
X48748Y129967D01*
X48689Y129839D01*
X48638Y129704D01*
X48593Y129563D01*
X48555Y129417D01*
X48524Y129264D01*
X47340Y130999D01*
X47482Y130976D01*
X47620Y130967D01*
X47754Y130972D01*
X47884Y130989D01*
X48010Y131020D01*
X48131Y131063D01*
X48249Y131120D01*
X48362Y131190D01*
X48471Y131273D01*
X48576Y131370D01*
X49141Y130520D01*
D02*
G37*
G36*
X45405Y131071D02*
X45514Y130988D01*
X45625Y130922D01*
X45738Y130872D01*
X45853Y130838D01*
X45970Y130819D01*
X46089Y130817D01*
X46209Y130831D01*
X46332Y130861D01*
X46457Y130906D01*
X45657Y128965D01*
X45594Y129109D01*
X45445Y129396D01*
X45358Y129539D01*
X45161Y129822D01*
X45050Y129963D01*
X44805Y130243D01*
X44670Y130382D01*
X45297Y131169D01*
X45405Y131071D01*
D02*
G37*
G36*
X49037Y126676D02*
X48943Y126574D01*
X48858Y126467D01*
X48784Y126353D01*
X48720Y126235D01*
X48666Y126111D01*
X48622Y125981D01*
X48588Y125846D01*
X48564Y125706D01*
X48551Y125560D01*
X48547Y125409D01*
X47062Y126894D01*
X47214Y126897D01*
X47359Y126911D01*
X47500Y126935D01*
X47635Y126968D01*
X47764Y127012D01*
X47888Y127066D01*
X48007Y127130D01*
X48120Y127205D01*
X48228Y127289D01*
X48330Y127384D01*
X49037Y126676D01*
D02*
G37*
G36*
X45744Y124652D02*
X45669Y124770D01*
X45586Y124877D01*
X45496Y124970D01*
X45398Y125051D01*
X45293Y125120D01*
X45180Y125176D01*
X45059Y125220D01*
X44931Y125251D01*
X44795Y125270D01*
X44652Y125276D01*
X44934Y126276D01*
X45067Y126280D01*
X45201Y126293D01*
X45334Y126313D01*
X45468Y126341D01*
X45603Y126378D01*
X45737Y126423D01*
X45872Y126475D01*
X46143Y126605D01*
X46279Y126682D01*
X45744Y124652D01*
D02*
G37*
G36*
X49037Y122543D02*
X48943Y122440D01*
X48858Y122333D01*
X48784Y122220D01*
X48720Y122101D01*
X48666Y121977D01*
X48622Y121847D01*
X48588Y121712D01*
X48564Y121572D01*
X48551Y121426D01*
X48547Y121275D01*
X47062Y122760D01*
X47214Y122763D01*
X47359Y122777D01*
X47500Y122801D01*
X47635Y122835D01*
X47764Y122878D01*
X47888Y122933D01*
X48007Y122997D01*
X48120Y123071D01*
X48228Y123155D01*
X48330Y123250D01*
X49037Y122543D01*
D02*
G37*
G36*
X45976Y120210D02*
X45867Y120314D01*
X45754Y120408D01*
X45638Y120490D01*
X45518Y120562D01*
X45396Y120622D01*
X45270Y120672D01*
X45140Y120710D01*
X45008Y120738D01*
X44872Y120754D01*
X44733Y120760D01*
Y121760D01*
X44872Y121765D01*
X45008Y121782D01*
X45140Y121809D01*
X45270Y121848D01*
X45396Y121897D01*
X45518Y121958D01*
X45638Y122029D01*
X45754Y122112D01*
X45867Y122205D01*
X45976Y122310D01*
Y120210D01*
D02*
G37*
G36*
X49180Y117863D02*
X49090Y117768D01*
X49005Y117667D01*
X48846Y117448D01*
X48773Y117330D01*
X48639Y117077D01*
X48579Y116941D01*
X48471Y116653D01*
X47549Y118540D01*
X47679Y118500D01*
X47807Y118476D01*
X47933Y118468D01*
X48055Y118474D01*
X48175Y118496D01*
X48293Y118533D01*
X48407Y118585D01*
X48519Y118652D01*
X48629Y118734D01*
X48735Y118832D01*
X49180Y117863D01*
D02*
G37*
G36*
X45976Y116076D02*
X45867Y116181D01*
X45754Y116274D01*
X45638Y116357D01*
X45518Y116428D01*
X45396Y116489D01*
X45270Y116538D01*
X45140Y116577D01*
X45008Y116604D01*
X44872Y116621D01*
X44733Y116626D01*
Y117626D01*
X44872Y117631D01*
X45008Y117648D01*
X45140Y117675D01*
X45270Y117714D01*
X45396Y117763D01*
X45518Y117824D01*
X45638Y117895D01*
X45754Y117978D01*
X45867Y118071D01*
X45976Y118176D01*
Y116076D01*
D02*
G37*
G36*
X46173Y109777D02*
X46063Y109881D01*
X45951Y109975D01*
X45835Y110057D01*
X45715Y110129D01*
X45593Y110189D01*
X45467Y110239D01*
X45337Y110277D01*
X45205Y110305D01*
X45069Y110321D01*
X44930Y110327D01*
Y111327D01*
X45069Y111332D01*
X45205Y111349D01*
X45337Y111376D01*
X45467Y111415D01*
X45593Y111464D01*
X45715Y111525D01*
X45835Y111596D01*
X45951Y111679D01*
X46063Y111772D01*
X46173Y111877D01*
Y109777D01*
D02*
G37*
G36*
X48664Y111340D02*
X48720Y111257D01*
X48786Y111184D01*
X48861Y111120D01*
X48944Y111066D01*
X49037Y111022D01*
X49138Y110988D01*
X49249Y110964D01*
X49368Y110949D01*
X49497Y110944D01*
X49357Y109944D01*
X49203Y109941D01*
X48917Y109915D01*
X48785Y109893D01*
X48660Y109864D01*
X48541Y109828D01*
X48430Y109787D01*
X48326Y109738D01*
X48229Y109684D01*
X48138Y109623D01*
X48616Y111433D01*
X48664Y111340D01*
D02*
G37*
G36*
X46173Y105643D02*
X46063Y105747D01*
X45951Y105841D01*
X45835Y105923D01*
X45715Y105995D01*
X45593Y106055D01*
X45467Y106105D01*
X45337Y106143D01*
X45205Y106171D01*
X45069Y106187D01*
X44930Y106193D01*
Y107193D01*
X45069Y107198D01*
X45205Y107215D01*
X45337Y107242D01*
X45467Y107281D01*
X45593Y107330D01*
X45715Y107391D01*
X45835Y107462D01*
X45951Y107545D01*
X46063Y107638D01*
X46173Y107743D01*
Y105643D01*
D02*
G37*
G36*
X48748Y106527D02*
X48761Y106381D01*
X48785Y106240D01*
X48819Y106105D01*
X48863Y105976D01*
X48917Y105852D01*
X48981Y105733D01*
X49055Y105620D01*
X49140Y105512D01*
X49234Y105410D01*
X48527Y104703D01*
X48425Y104797D01*
X48317Y104882D01*
X48204Y104956D01*
X48085Y105020D01*
X47961Y105074D01*
X47832Y105118D01*
X47697Y105152D01*
X47556Y105176D01*
X47410Y105190D01*
X47259Y105193D01*
X48744Y106678D01*
X48748Y106527D01*
D02*
G37*
G36*
X46131Y101553D02*
X46037Y101649D01*
X45937Y101735D01*
X45831Y101811D01*
X45720Y101877D01*
X45602Y101933D01*
X45479Y101978D01*
X45351Y102014D01*
X45216Y102039D01*
X45076Y102054D01*
X44930Y102059D01*
Y103059D01*
X45076Y103064D01*
X45216Y103079D01*
X45351Y103105D01*
X45479Y103140D01*
X45602Y103185D01*
X45720Y103241D01*
X45831Y103307D01*
X45937Y103383D01*
X46037Y103469D01*
X46131Y103565D01*
Y101553D01*
D02*
G37*
G36*
X48740Y102777D02*
X48840Y102493D01*
X48898Y102360D01*
X48961Y102233D01*
X49031Y102113D01*
X49105Y101998D01*
X49185Y101889D01*
X49271Y101786D01*
X49362Y101689D01*
X48855Y100782D01*
X48749Y100879D01*
X48640Y100962D01*
X48527Y101031D01*
X48411Y101085D01*
X48291Y101125D01*
X48168Y101151D01*
X48042Y101163D01*
X47912Y101160D01*
X47778Y101144D01*
X47641Y101113D01*
X48698Y102927D01*
X48740Y102777D01*
D02*
G37*
G36*
X48584Y98930D02*
X48674Y98826D01*
X48770Y98734D01*
X48874Y98654D01*
X48983Y98586D01*
X49099Y98531D01*
X49222Y98488D01*
X49352Y98458D01*
X49488Y98439D01*
X49630Y98433D01*
X49416Y97433D01*
X49281Y97429D01*
X49147Y97415D01*
X49013Y97393D01*
X48880Y97362D01*
X48747Y97322D01*
X48614Y97273D01*
X48482Y97215D01*
X48350Y97148D01*
X48219Y97073D01*
X48088Y96988D01*
X48501Y99047D01*
X48584Y98930D01*
D02*
G37*
G36*
X46555Y96896D02*
X46438Y96949D01*
X46322Y96984D01*
X46207Y97003D01*
X46093Y97005D01*
X45980Y96990D01*
X45868Y96958D01*
X45757Y96910D01*
X45647Y96844D01*
X45538Y96762D01*
X45430Y96663D01*
X44829Y97477D01*
X44979Y97629D01*
X45478Y98208D01*
X45579Y98344D01*
X45750Y98608D01*
X45821Y98735D01*
X45883Y98858D01*
X46555Y96896D01*
D02*
G37*
G36*
X11108Y120902D02*
X10884Y120645D01*
X10687Y120390D01*
X10515Y120136D01*
X10371Y119884D01*
X10252Y119633D01*
X10160Y119383D01*
X10094Y119134D01*
X10054Y118886D01*
X10041Y118640D01*
X8541D01*
X8528Y118886D01*
X8489Y119134D01*
X8423Y119383D01*
X8331Y119633D01*
X8212Y119884D01*
X8067Y120136D01*
X7896Y120390D01*
X7699Y120645D01*
X7475Y120902D01*
X7224Y121159D01*
X11358D01*
X11108Y120902D01*
D02*
G37*
G36*
X10054Y117649D02*
X10094Y117402D01*
X10160Y117153D01*
X10252Y116903D01*
X10371Y116651D01*
X10515Y116399D01*
X10687Y116145D01*
X10884Y115890D01*
X11108Y115634D01*
X11358Y115376D01*
X7224D01*
X7475Y115634D01*
X7699Y115890D01*
X7896Y116145D01*
X8067Y116399D01*
X8212Y116651D01*
X8331Y116903D01*
X8423Y117153D01*
X8489Y117402D01*
X8528Y117649D01*
X8541Y117895D01*
X10041D01*
X10054Y117649D01*
D02*
G37*
G36*
X170084Y111216D02*
X169860Y110960D01*
X169663Y110705D01*
X169492Y110451D01*
X169347Y110199D01*
X169228Y109948D01*
X169136Y109698D01*
X169070Y109449D01*
X169031Y109201D01*
X169018Y108955D01*
X167518D01*
X167505Y109201D01*
X167465Y109449D01*
X167399Y109698D01*
X167307Y109948D01*
X167189Y110199D01*
X167044Y110451D01*
X166872Y110705D01*
X166675Y110960D01*
X166451Y111216D01*
X166201Y111474D01*
X170335D01*
X170084Y111216D01*
D02*
G37*
G36*
X169031Y107964D02*
X169070Y107717D01*
X169136Y107468D01*
X169228Y107218D01*
X169347Y106966D01*
X169492Y106714D01*
X169663Y106460D01*
X169860Y106205D01*
X170084Y105949D01*
X170335Y105691D01*
X166201D01*
X166451Y105949D01*
X166675Y106205D01*
X166872Y106460D01*
X167044Y106714D01*
X167189Y106966D01*
X167307Y107218D01*
X167399Y107468D01*
X167465Y107717D01*
X167505Y107964D01*
X167518Y108210D01*
X169018D01*
X169031Y107964D01*
D02*
G37*
G36*
X11108Y110901D02*
X10884Y110645D01*
X10687Y110390D01*
X10515Y110136D01*
X10371Y109884D01*
X10252Y109633D01*
X10160Y109383D01*
X10094Y109134D01*
X10054Y108886D01*
X10041Y108640D01*
X8541D01*
X8528Y108886D01*
X8489Y109134D01*
X8423Y109383D01*
X8331Y109633D01*
X8212Y109884D01*
X8067Y110136D01*
X7896Y110390D01*
X7699Y110645D01*
X7475Y110901D01*
X7224Y111159D01*
X11358D01*
X11108Y110901D01*
D02*
G37*
G36*
X10054Y107649D02*
X10094Y107402D01*
X10160Y107153D01*
X10252Y106903D01*
X10371Y106651D01*
X10515Y106399D01*
X10687Y106145D01*
X10884Y105890D01*
X11108Y105634D01*
X11358Y105376D01*
X7224D01*
X7475Y105634D01*
X7699Y105890D01*
X7896Y106145D01*
X8067Y106399D01*
X8212Y106651D01*
X8331Y106903D01*
X8423Y107153D01*
X8489Y107402D01*
X8528Y107649D01*
X8541Y107895D01*
X10041D01*
X10054Y107649D01*
D02*
G37*
G36*
X11108Y100901D02*
X10884Y100645D01*
X10687Y100390D01*
X10515Y100136D01*
X10371Y99884D01*
X10252Y99633D01*
X10160Y99383D01*
X10094Y99134D01*
X10054Y98886D01*
X10041Y98640D01*
X8541D01*
X8528Y98886D01*
X8489Y99134D01*
X8423Y99383D01*
X8331Y99633D01*
X8212Y99884D01*
X8067Y100136D01*
X7896Y100390D01*
X7699Y100645D01*
X7475Y100901D01*
X7224Y101159D01*
X11358D01*
X11108Y100901D01*
D02*
G37*
G36*
X10054Y97649D02*
X10094Y97401D01*
X10160Y97153D01*
X10252Y96903D01*
X10371Y96652D01*
X10515Y96399D01*
X10687Y96145D01*
X10884Y95890D01*
X11108Y95634D01*
X11358Y95376D01*
X7224D01*
X7475Y95634D01*
X7699Y95890D01*
X7896Y96145D01*
X8067Y96399D01*
X8212Y96652D01*
X8331Y96903D01*
X8423Y97153D01*
X8489Y97401D01*
X8528Y97649D01*
X8541Y97895D01*
X10041D01*
X10054Y97649D01*
D02*
G37*
G36*
X11108Y90901D02*
X10884Y90645D01*
X10687Y90390D01*
X10515Y90136D01*
X10371Y89884D01*
X10252Y89633D01*
X10160Y89383D01*
X10094Y89134D01*
X10054Y88886D01*
X10041Y88640D01*
X8541D01*
X8528Y88886D01*
X8489Y89134D01*
X8423Y89383D01*
X8331Y89633D01*
X8212Y89884D01*
X8067Y90136D01*
X7896Y90390D01*
X7699Y90645D01*
X7475Y90901D01*
X7224Y91159D01*
X11358D01*
X11108Y90901D01*
D02*
G37*
G36*
X10054Y87649D02*
X10094Y87401D01*
X10160Y87153D01*
X10252Y86903D01*
X10371Y86651D01*
X10515Y86399D01*
X10687Y86145D01*
X10884Y85890D01*
X11108Y85634D01*
X11358Y85376D01*
X7224D01*
X7475Y85634D01*
X7699Y85890D01*
X7896Y86145D01*
X8067Y86399D01*
X8212Y86651D01*
X8331Y86903D01*
X8423Y87153D01*
X8489Y87401D01*
X8528Y87649D01*
X8541Y87895D01*
X10041D01*
X10054Y87649D01*
D02*
G37*
G36*
X11108Y80901D02*
X10884Y80645D01*
X10687Y80390D01*
X10515Y80136D01*
X10371Y79884D01*
X10252Y79633D01*
X10160Y79383D01*
X10094Y79134D01*
X10054Y78886D01*
X10041Y78640D01*
X8541D01*
X8528Y78886D01*
X8489Y79134D01*
X8423Y79383D01*
X8331Y79633D01*
X8212Y79884D01*
X8067Y80136D01*
X7896Y80390D01*
X7699Y80645D01*
X7475Y80901D01*
X7224Y81159D01*
X11358D01*
X11108Y80901D01*
D02*
G37*
G36*
X10054Y77649D02*
X10094Y77402D01*
X10160Y77153D01*
X10252Y76903D01*
X10371Y76652D01*
X10515Y76399D01*
X10687Y76145D01*
X10884Y75890D01*
X11108Y75634D01*
X11358Y75376D01*
X7224D01*
X7475Y75634D01*
X7699Y75890D01*
X7896Y76145D01*
X8067Y76399D01*
X8212Y76652D01*
X8331Y76903D01*
X8423Y77153D01*
X8489Y77402D01*
X8528Y77649D01*
X8541Y77895D01*
X10041D01*
X10054Y77649D01*
D02*
G37*
G36*
X47029Y77031D02*
X46932Y76925D01*
X46849Y76815D01*
X46781Y76703D01*
X46728Y76587D01*
X46689Y76468D01*
X46664Y76346D01*
X46654Y76221D01*
X46659Y76092D01*
X46678Y75961D01*
X46712Y75826D01*
X44872Y76838D01*
X45022Y76884D01*
X45304Y76989D01*
X45436Y77049D01*
X45682Y77185D01*
X45796Y77261D01*
X45904Y77342D01*
X46006Y77427D01*
X46102Y77518D01*
X47029Y77031D01*
D02*
G37*
G36*
X11108Y70902D02*
X10884Y70645D01*
X10687Y70390D01*
X10515Y70136D01*
X10371Y69884D01*
X10252Y69633D01*
X10160Y69383D01*
X10094Y69134D01*
X10054Y68886D01*
X10041Y68640D01*
X8541D01*
X8528Y68886D01*
X8489Y69134D01*
X8423Y69383D01*
X8331Y69633D01*
X8212Y69884D01*
X8067Y70136D01*
X7896Y70390D01*
X7699Y70645D01*
X7475Y70902D01*
X7224Y71159D01*
X11358D01*
X11108Y70902D01*
D02*
G37*
G36*
X10054Y67649D02*
X10094Y67401D01*
X10160Y67153D01*
X10252Y66903D01*
X10371Y66651D01*
X10515Y66399D01*
X10687Y66145D01*
X10884Y65890D01*
X11108Y65634D01*
X11358Y65376D01*
X7224D01*
X7475Y65634D01*
X7699Y65890D01*
X7896Y66145D01*
X8067Y66399D01*
X8212Y66651D01*
X8331Y66903D01*
X8423Y67153D01*
X8489Y67401D01*
X8528Y67649D01*
X8541Y67895D01*
X10041D01*
X10054Y67649D01*
D02*
G37*
G36*
X11108Y60901D02*
X10884Y60645D01*
X10687Y60390D01*
X10515Y60136D01*
X10371Y59884D01*
X10252Y59633D01*
X10160Y59383D01*
X10094Y59134D01*
X10054Y58886D01*
X10041Y58640D01*
X8541D01*
X8528Y58886D01*
X8489Y59134D01*
X8423Y59383D01*
X8331Y59633D01*
X8212Y59884D01*
X8067Y60136D01*
X7896Y60390D01*
X7699Y60645D01*
X7475Y60901D01*
X7224Y61159D01*
X11358D01*
X11108Y60901D01*
D02*
G37*
G36*
X10054Y57649D02*
X10094Y57402D01*
X10160Y57153D01*
X10252Y56903D01*
X10371Y56652D01*
X10515Y56399D01*
X10687Y56145D01*
X10884Y55890D01*
X11108Y55634D01*
X11358Y55376D01*
X7224D01*
X7475Y55634D01*
X7699Y55890D01*
X7896Y56145D01*
X8067Y56399D01*
X8212Y56652D01*
X8331Y56903D01*
X8423Y57153D01*
X8489Y57402D01*
X8528Y57649D01*
X8541Y57895D01*
X10041D01*
X10054Y57649D01*
D02*
G37*
D13*
X36811Y155315D02*
X41535D01*
X36417Y154921D02*
X36811Y155315D01*
X120276Y106496D02*
X125197D01*
X120079Y106693D02*
X120276Y106496D01*
X50394Y81102D02*
X50787D01*
X45658Y76367D02*
X50394Y81102D01*
X45658Y75776D02*
Y76367D01*
X45276Y75394D02*
X45658Y75776D01*
X114114Y134630D02*
Y135024D01*
X78740Y138386D02*
X78859Y138267D01*
X77756Y117520D02*
X77953D01*
X75394Y119882D02*
X77756Y117520D01*
X74552Y126891D02*
X75394Y126049D01*
Y119882D02*
Y126049D01*
X71188Y126891D02*
X74552D01*
X74516Y143595D02*
X75394Y142717D01*
X74516Y143595D02*
Y145169D01*
X74410Y145276D02*
X74516Y145169D01*
X68073Y151740D02*
X74410Y145404D01*
Y145276D02*
Y145404D01*
X81693Y142323D02*
X86614D01*
X81299Y142717D02*
X81693Y142323D01*
X97409Y157142D02*
X97464Y157087D01*
X77977Y157480D02*
X78315Y157142D01*
X121260Y123031D02*
X121646Y123417D01*
X124008D01*
X124606Y124016D01*
X127297D02*
X127362Y123950D01*
X124606Y124016D02*
X127297D01*
X121260Y116732D02*
X121646Y116347D01*
X124008D01*
X124606Y115748D01*
X127297D02*
X127362Y115814D01*
X124606Y115748D02*
X127297D01*
X126821Y115814D02*
X127362D01*
X58153Y151740D02*
X68073D01*
X86614Y142323D02*
X86917D01*
X87795Y141445D01*
Y139764D02*
Y141445D01*
X85308Y139202D02*
X87233D01*
X87795Y139764D01*
X82874Y132827D02*
Y136768D01*
X85308Y139202D01*
X91142Y142323D02*
X91535D01*
X90264Y141445D02*
X91142Y142323D01*
X90264Y139673D02*
Y141445D01*
X87992Y137402D02*
X90264Y139673D01*
X84842Y132827D02*
X84921Y132905D01*
Y136269D01*
X86053Y137402D01*
X87992D01*
X90421Y149106D02*
Y155882D01*
Y149106D02*
X91299Y148228D01*
X91535D01*
X87862Y149106D02*
Y155882D01*
X86984Y148228D02*
X87862Y149106D01*
X86614Y148228D02*
X86984D01*
X94043Y167575D02*
X94161Y167693D01*
X82114D02*
X82232Y167575D01*
X104737Y133661D02*
X105142D01*
X104331D02*
X104737D01*
X69307Y91870D02*
X69504D01*
X69110D02*
X69307D01*
X80984Y129385D02*
Y132749D01*
X80905Y132827D02*
X80984Y132749D01*
X114575Y119882D02*
X114961D01*
X64813Y95817D02*
X65163D01*
X48819Y139518D02*
Y140157D01*
X130315Y72638D02*
X130698Y73020D01*
X98713Y97835D02*
X104528D01*
Y101772D02*
Y105268D01*
X41437Y149311D02*
X41535Y149409D01*
X36122Y149311D02*
X41437D01*
X36024Y149213D02*
X36122Y149311D01*
X47047Y129528D02*
X47441D01*
X46665Y129910D02*
X47047Y129528D01*
Y125394D02*
X50197Y128543D01*
X46665Y125776D02*
X47047Y125394D01*
Y121260D02*
X47047D01*
X42604D02*
X47047D01*
Y117126D02*
X47430Y117509D01*
X41198Y117126D02*
X47047D01*
X50795Y125008D02*
X53158D01*
X47047Y121260D02*
X50795Y125008D01*
X49213Y155398D02*
X49295Y155480D01*
X41618Y155398D02*
X49213D01*
X41535Y155315D02*
X41618Y155398D01*
X80984Y129385D02*
X84198Y126170D01*
X84854D01*
X85236Y125787D01*
X99951Y107283D02*
X104480D01*
X98376Y108858D02*
X99951Y107283D01*
X97835Y108858D02*
X98376D01*
X97933Y118996D02*
X98130D01*
X86811Y128740D02*
Y132827D01*
Y128740D02*
X89764Y125787D01*
X88779Y132827D02*
X88858Y132749D01*
Y129385D02*
Y132749D01*
Y129385D02*
X89655Y128587D01*
X90924D01*
X93701Y125810D01*
Y125591D02*
Y125810D01*
X104431Y119045D02*
X104480Y119095D01*
X104402Y119017D02*
X104431Y119045D01*
X98130Y118996D02*
X98179Y119045D01*
X104431D01*
X88779Y99457D02*
Y106102D01*
X71110Y113189D02*
X77953D01*
X53248Y97933D02*
X53543Y97638D01*
X47539Y97933D02*
X53248D01*
X47244Y98228D02*
X47539Y97933D01*
X40945Y92688D02*
Y92885D01*
X45905Y97846D01*
X46861D01*
X47244Y98228D01*
Y106693D02*
X50000Y103937D01*
X42857Y106693D02*
X47244D01*
Y102559D02*
X47785D01*
X44882D02*
X47244D01*
X50000Y103937D02*
X53543D01*
X42095Y98409D02*
Y99772D01*
X44882Y102559D01*
X40945Y104781D02*
Y104978D01*
X42020Y106052D01*
X42217D01*
X42857Y106693D01*
X40945Y110827D02*
X47244D01*
X49557Y100787D02*
X53543D01*
X47785Y102559D02*
X49557Y100787D01*
X49497Y110444D02*
X52854Y107087D01*
X47627Y110444D02*
X49497D01*
X47244Y110827D02*
X47627Y110444D01*
X40945Y134814D02*
Y135011D01*
Y134814D02*
X45849Y129910D01*
X46665D01*
X40945Y128768D02*
Y128965D01*
Y128768D02*
X42020Y127693D01*
X42217D01*
X44134Y125776D01*
X46665D01*
X40945Y122722D02*
Y122919D01*
Y122722D02*
X42020Y121647D01*
X42217D01*
X42604Y121260D01*
X40945Y116873D02*
X41198Y117126D01*
X47441Y129528D02*
X49606Y131693D01*
X53543D01*
X52854Y122244D02*
X53543D01*
X48119Y117509D02*
X52854Y122244D01*
X47430Y117509D02*
X48119D01*
X53158Y125008D02*
X53543Y125394D01*
X50197Y128543D02*
X53543D01*
X59842Y131693D02*
X60228Y131307D01*
X61409D01*
X61614Y131102D01*
X61644D02*
X67668Y125078D01*
X61614Y131102D02*
X61644D01*
X59842Y128543D02*
X60228Y128157D01*
X62043D01*
X67091Y123109D01*
X59842Y122244D02*
X62598D01*
X65748Y119095D02*
X71110D01*
X62598Y122244D02*
X65748Y119095D01*
X59842Y125394D02*
X60228Y125008D01*
X62394D01*
X66339Y121063D02*
X71110D01*
X62394Y125008D02*
X66339Y121063D01*
X67668Y125078D02*
X71032D01*
X67091Y123109D02*
X71032D01*
X71032Y121141D02*
X71110Y121063D01*
X71032Y123109D02*
X71110Y123031D01*
X71032Y117048D02*
X71110Y117126D01*
X67062Y117048D02*
X71032D01*
X60917Y110904D02*
X67062Y117048D01*
X60917Y107472D02*
Y110904D01*
X60532Y107087D02*
X60917Y107472D01*
X59842Y107087D02*
X60532D01*
X66909Y111221D02*
X71110D01*
X65107Y109418D02*
X66909Y111221D01*
X67668Y109174D02*
X71032D01*
X66907Y108413D02*
X67668Y109174D01*
X63189Y110630D02*
X67639Y115079D01*
X59842Y97638D02*
X60532D01*
X61495Y98602D01*
X62184D01*
X66907Y103324D02*
Y108413D01*
X62184Y98602D02*
X66907Y103324D01*
X62197Y101173D02*
X65107Y104083D01*
Y109418D01*
X59842Y100787D02*
X60228Y101173D01*
X62197D01*
X71032Y115079D02*
X71110Y115157D01*
X67639Y115079D02*
X71032D01*
X62000Y104323D02*
X63189Y105512D01*
Y110630D01*
X59842Y103937D02*
X60228Y104323D01*
X62000D01*
X71032Y111143D02*
X71110Y111221D01*
X104331Y133661D02*
X104421Y133752D01*
X104480Y105315D02*
X104528Y105268D01*
X98622Y97744D02*
Y99457D01*
X89626Y60571D02*
Y76000D01*
Y60571D02*
X95276Y54921D01*
X103150D01*
X82028Y61358D02*
Y75968D01*
X75590Y54921D02*
X82028Y61358D01*
X67716Y54921D02*
X75590D01*
X86811Y79012D02*
Y99457D01*
Y79012D02*
X89626Y76197D01*
Y76000D02*
Y76197D01*
X84842Y78980D02*
Y99457D01*
X82028Y76165D02*
X84842Y78980D01*
X82028Y75968D02*
Y76165D01*
X134449Y90595D02*
X134843Y90201D01*
X134433Y90610D02*
X134449Y90595D01*
Y83858D02*
Y90595D01*
X127543Y95441D02*
X133752D01*
X126461D02*
X127543D01*
X133752D02*
X134433Y96122D01*
X134130Y96425D02*
X134433Y96122D01*
X120079Y100575D02*
Y106693D01*
X118685Y99181D02*
X120079Y100575D01*
X117602Y99181D02*
X118685D01*
X104480Y111221D02*
X110039D01*
X114173Y107087D01*
Y106693D02*
Y107087D01*
X126983Y119882D02*
X127366Y120265D01*
X121260Y113583D02*
X124984D01*
X126821Y111745D01*
X127362D01*
X121260Y119882D02*
X126983D01*
X126983Y119882D01*
X127362Y111745D02*
X133014D01*
X129625Y117535D02*
X133130D01*
X127969Y115879D02*
X129625Y117535D01*
X133130Y123244D02*
Y123441D01*
X130150Y120265D02*
X133130Y123244D01*
X127366Y120265D02*
X130150D01*
X133130Y129150D02*
Y129347D01*
X128313Y124333D02*
X133130Y129150D01*
X127366Y124333D02*
X128313D01*
X111133Y113583D02*
X114961D01*
X109558Y115157D02*
X111133Y113583D01*
X104480Y115157D02*
X109558D01*
X114645Y117048D02*
X114961Y116732D01*
X104558Y117048D02*
X114645D01*
X104480Y117126D02*
X104558Y117048D01*
X110936Y119882D02*
X114575D01*
X109755Y121063D02*
X110936Y119882D01*
X104480Y121063D02*
X109755D01*
X104480Y123031D02*
X114961D01*
X114575Y120268D02*
X114961Y119882D01*
X133014Y111745D02*
X133130Y111630D01*
X71032Y109174D02*
X71110Y109252D01*
X71032Y125078D02*
X71110Y125000D01*
Y126969D02*
X71188Y126891D01*
X71110Y113189D02*
X71188Y113267D01*
X127543Y95441D02*
X128240Y94744D01*
X116535Y99862D02*
X117217Y99181D01*
X117602D01*
D14*
X30512Y154921D02*
D03*
X36417D02*
D03*
X131102Y106496D02*
D03*
X125197D02*
D03*
X81299Y142717D02*
D03*
X120079Y106693D02*
D03*
X114173D02*
D03*
X75394Y142717D02*
D03*
D15*
X50787Y81102D02*
D03*
Y87008D02*
D03*
X91535Y148228D02*
D03*
X86614D02*
D03*
X91535Y142323D02*
D03*
X86614D02*
D03*
X134449Y77953D02*
D03*
Y83858D02*
D03*
X41535Y149409D02*
D03*
Y155315D02*
D03*
D16*
X90421Y155882D02*
D03*
X87862D02*
D03*
X85303D02*
D03*
X92980D02*
D03*
X82744D02*
D03*
D17*
X82874Y132827D02*
D03*
X84842D02*
D03*
X76968Y99457D02*
D03*
X78937D02*
D03*
X80905D02*
D03*
X82874D02*
D03*
X84842D02*
D03*
X86811D02*
D03*
X88779D02*
D03*
X90748D02*
D03*
X92716D02*
D03*
X94685D02*
D03*
X96653D02*
D03*
X98622D02*
D03*
Y132827D02*
D03*
X96653D02*
D03*
X94685D02*
D03*
X92716D02*
D03*
X90748D02*
D03*
X88779D02*
D03*
X86811D02*
D03*
X80905D02*
D03*
X78937D02*
D03*
X76968D02*
D03*
D18*
X82232Y167575D02*
D03*
X94043D02*
D03*
D19*
X112189Y84024D02*
D03*
Y78512D02*
D03*
X74425Y86358D02*
D03*
Y91870D02*
D03*
X69307Y86358D02*
D03*
Y91870D02*
D03*
X65764Y139508D02*
D03*
Y145020D02*
D03*
X134433Y90610D02*
D03*
Y96122D02*
D03*
X98835Y90295D02*
D03*
Y84784D02*
D03*
D20*
X104480Y105315D02*
D03*
Y107283D02*
D03*
Y109252D02*
D03*
Y111221D02*
D03*
Y113189D02*
D03*
Y115157D02*
D03*
Y117126D02*
D03*
Y119095D02*
D03*
Y121063D02*
D03*
Y123031D02*
D03*
Y125000D02*
D03*
Y126969D02*
D03*
X71110D02*
D03*
Y125000D02*
D03*
Y123031D02*
D03*
Y121063D02*
D03*
Y119095D02*
D03*
Y117126D02*
D03*
Y115157D02*
D03*
Y113189D02*
D03*
Y111221D02*
D03*
Y109252D02*
D03*
Y107283D02*
D03*
Y105315D02*
D03*
D21*
X67716Y54921D02*
D03*
X103150D02*
D03*
D22*
X35433Y135011D02*
D03*
X40945D02*
D03*
X35433Y128965D02*
D03*
X40945D02*
D03*
X35433Y122919D02*
D03*
X40945D02*
D03*
X35433Y116873D02*
D03*
X40945D02*
D03*
X35433Y110827D02*
D03*
X40945D02*
D03*
X35433Y104781D02*
D03*
X40945D02*
D03*
X35433Y92688D02*
D03*
X40945D02*
D03*
X114311Y135024D02*
D03*
X119823D02*
D03*
X35433Y98735D02*
D03*
X40945D02*
D03*
X133130Y117535D02*
D03*
X138642D02*
D03*
X133130Y111630D02*
D03*
X138642D02*
D03*
X133130Y129347D02*
D03*
X138642D02*
D03*
X133130Y123441D02*
D03*
X138642D02*
D03*
X82028Y75968D02*
D03*
X76516D02*
D03*
X89626Y76000D02*
D03*
X95138D02*
D03*
D23*
X59842Y122244D02*
D03*
Y125394D02*
D03*
Y128543D02*
D03*
Y131693D02*
D03*
X53543D02*
D03*
Y128543D02*
D03*
Y125394D02*
D03*
Y122244D02*
D03*
X59842Y97638D02*
D03*
Y100787D02*
D03*
Y103937D02*
D03*
Y107087D02*
D03*
X53543D02*
D03*
Y103937D02*
D03*
Y100787D02*
D03*
Y97638D02*
D03*
X114961Y123031D02*
D03*
Y119882D02*
D03*
Y116732D02*
D03*
Y113583D02*
D03*
X121260D02*
D03*
Y116732D02*
D03*
Y119882D02*
D03*
Y123031D02*
D03*
D24*
X117602Y99181D02*
D03*
Y91701D02*
D03*
X126461Y95441D02*
D03*
X58153Y151740D02*
D03*
X49295Y148000D02*
D03*
Y155480D02*
D03*
D25*
X105512Y89736D02*
D03*
Y79106D02*
D03*
D42*
X30512Y149803D02*
Y154921D01*
Y149803D02*
X34449Y145866D01*
X43110D02*
X48819Y140157D01*
X34449Y145866D02*
X43110D01*
X56043Y91870D02*
X69110D01*
X50787Y87008D02*
X51181D01*
X56043Y91870D01*
X168268Y103583D02*
Y113583D01*
Y123583D01*
Y133583D01*
X9291Y53268D02*
Y63268D01*
Y73268D01*
Y83268D02*
Y93268D01*
Y73268D02*
Y83268D01*
Y93268D02*
Y103268D01*
Y113268D01*
Y123268D01*
Y133268D01*
X69504Y91870D02*
X74425D01*
X69504D02*
X73228Y95595D01*
Y101575D01*
X112189Y78512D02*
X124441D01*
X130315Y72638D01*
X81193Y151181D02*
X82744Y152732D01*
X74213Y151181D02*
X81193D01*
X138642Y123441D02*
Y129347D01*
Y117535D02*
Y123441D01*
Y111630D02*
Y117535D01*
X35433Y92688D02*
Y98735D01*
Y104781D01*
Y110827D01*
Y116873D01*
Y122919D01*
Y128965D01*
Y135011D01*
X82744Y152732D02*
Y155882D01*
X73228Y101575D02*
X75564Y103910D01*
X58476Y139902D02*
X65370D01*
X48819Y147569D02*
X50809D01*
X58476Y139902D01*
X49250Y148000D02*
X49295D01*
X48819Y147569D02*
X49250Y148000D01*
X48819Y140157D02*
Y147569D01*
X65163Y95817D02*
X69110Y91870D01*
X79941Y106053D02*
X80347D01*
X77798Y103910D02*
X79941Y106053D01*
X75564Y103910D02*
X77798D01*
X130315Y72638D02*
X130709D01*
X134055Y77953D02*
X134449D01*
X133427Y77325D02*
X134055Y77953D01*
X133427Y75356D02*
Y77325D01*
X130709Y72638D02*
X133427Y75356D01*
X134169Y78232D02*
X134449Y77953D01*
X134843D02*
X140067Y83178D01*
Y85343D01*
X140354Y85630D01*
X106099Y135024D02*
X114114D01*
X104737Y133661D02*
X106099Y135024D01*
D43*
X108465Y125000D02*
X113583Y130118D01*
X74425Y91870D02*
X74622D01*
X76968Y94217D01*
Y99457D01*
X111221Y84992D02*
Y87348D01*
X105512Y89736D02*
X107127Y88121D01*
X110447D01*
X111221Y87348D01*
Y84992D02*
X112189Y84024D01*
X104953Y90295D02*
X105512Y89736D01*
X98835Y90295D02*
X104953D01*
X99016Y90476D02*
Y91929D01*
X72835Y131769D02*
Y132283D01*
Y131699D02*
Y131769D01*
X74606Y129453D02*
X75486Y128573D01*
X78909Y129364D02*
Y132799D01*
X78118Y128573D02*
X78909Y129364D01*
X75486Y128573D02*
X78118D01*
X74606Y129453D02*
Y129998D01*
X72835Y131769D02*
X74606Y129998D01*
X98835Y90295D02*
X99016Y90476D01*
X97047Y93898D02*
X99016Y91929D01*
X94685Y93898D02*
X97047D01*
X92716Y99457D02*
X92744Y99429D01*
Y95838D02*
Y99429D01*
Y95838D02*
X94685Y93898D01*
X72835Y132283D02*
X73198Y131920D01*
X78909Y132799D02*
X78937Y132827D01*
X78909Y132855D02*
X78937Y132827D01*
X78909Y132855D02*
Y138217D01*
X97810Y91320D02*
X98835Y90295D01*
X114114Y134630D02*
X114311Y134827D01*
X113286Y133802D02*
X114114Y134630D01*
X104480Y126969D02*
Y129283D01*
X107874Y132677D01*
X114311Y134827D02*
Y135024D01*
X113089Y133802D02*
X113286D01*
X111965Y132677D02*
X113089Y133802D01*
X107874Y132677D02*
X111965D01*
X104480Y125000D02*
X108465D01*
X65764Y139508D02*
X66295Y138976D01*
X65370Y139902D02*
X65764Y139508D01*
X76968Y132827D02*
Y135140D01*
X73132Y138976D02*
X76968Y135140D01*
X66295Y138976D02*
X73132D01*
X78859Y138267D02*
X78909Y138217D01*
X69348Y105315D02*
X71110D01*
X69307Y105274D02*
X69348Y105315D01*
X69307Y91870D02*
Y105274D01*
X107480Y89736D02*
X107508Y89764D01*
X106921Y90295D02*
X107480Y89736D01*
D44*
X113583Y130118D02*
X113976D01*
X78909Y138217D02*
X78937Y138189D01*
X91142Y110039D02*
X91486Y109695D01*
D45*
X73590Y158300D02*
Y167693D01*
Y158300D02*
X74410Y157480D01*
X102134Y158433D02*
Y167693D01*
X100787Y157087D02*
X102134Y158433D01*
X97464Y157087D02*
X100787D01*
X74410Y157480D02*
X77977D01*
X94161Y167693D02*
X102134D01*
X82232Y167575D02*
X94043D01*
X73590Y167693D02*
X82114D01*
D46*
X157212Y144639D02*
X158268Y143583D01*
X101499Y144639D02*
X157212D01*
X92980Y153157D02*
X101499Y144639D01*
D47*
X19291Y53268D02*
D03*
X158268Y143583D02*
D03*
D48*
X9291Y53268D02*
D03*
X19291Y63268D02*
D03*
X9291D02*
D03*
X19291Y73268D02*
D03*
X9291D02*
D03*
X19291Y83268D02*
D03*
X9291D02*
D03*
X19291Y93268D02*
D03*
X9291D02*
D03*
X19291Y103268D02*
D03*
X9291D02*
D03*
X19291Y113268D02*
D03*
X9291D02*
D03*
X19291Y123268D02*
D03*
X9291D02*
D03*
X19291Y133268D02*
D03*
X9291D02*
D03*
X19291Y143268D02*
D03*
X9291D02*
D03*
X168268Y143583D02*
D03*
X158268Y133583D02*
D03*
X168268D02*
D03*
X158268Y123583D02*
D03*
X168268D02*
D03*
X158268Y113583D02*
D03*
X168268D02*
D03*
X158268Y103583D02*
D03*
X168268D02*
D03*
X158268Y93583D02*
D03*
X168268D02*
D03*
X158268Y83583D02*
D03*
X168268D02*
D03*
X158268Y73583D02*
D03*
X168268D02*
D03*
X158268Y63583D02*
D03*
X168268D02*
D03*
X158268Y53583D02*
D03*
X168268D02*
D03*
D49*
X73590Y167693D02*
D03*
X102134D02*
D03*
D50*
X78315Y157142D02*
D03*
X97409D02*
D03*
D51*
X150197Y153150D02*
D03*
X113976Y130118D02*
D03*
X117323Y81693D02*
D03*
X72835Y132283D02*
D03*
X74213Y151181D02*
D03*
X47835Y44882D02*
D03*
X126575Y58465D02*
D03*
X141142Y58661D02*
D03*
X48031Y54527D02*
D03*
X68504Y70276D02*
D03*
Y79724D02*
D03*
X122047Y70079D02*
D03*
X111024D02*
D03*
X46850Y135236D02*
D03*
X42520Y139370D02*
D03*
X35433D02*
D03*
X70866Y143504D02*
D03*
X78740Y138386D02*
D03*
X69685Y135433D02*
D03*
X88090Y162598D02*
D03*
X94095D02*
D03*
X82087D02*
D03*
X60433Y117323D02*
D03*
X80347Y106053D02*
D03*
X140551Y106496D02*
D03*
X136221D02*
D03*
X121063Y81693D02*
D03*
X143701Y138583D02*
D03*
X27953Y45472D02*
D03*
Y56168D02*
D03*
Y66864D02*
D03*
Y75984D02*
D03*
X27756Y89961D02*
D03*
Y99311D02*
D03*
Y108661D02*
D03*
X28346Y129527D02*
D03*
Y139370D02*
D03*
X42520Y166339D02*
D03*
X34449D02*
D03*
X119685Y164173D02*
D03*
X124409D02*
D03*
X134449Y141142D02*
D03*
X128609D02*
D03*
X122769D02*
D03*
X116929D02*
D03*
X134449Y148425D02*
D03*
X128445D02*
D03*
X122441D02*
D03*
X146850Y79724D02*
D03*
X144882Y106496D02*
D03*
X146850Y90551D02*
D03*
Y85138D02*
D03*
X100591Y70079D02*
D03*
X98819Y80315D02*
D03*
X45276Y75394D02*
D03*
Y81496D02*
D03*
Y87598D02*
D03*
X56299Y117323D02*
D03*
X52165D02*
D03*
X81890Y110039D02*
D03*
X86516D02*
D03*
Y114764D02*
D03*
X81890Y119488D02*
D03*
Y114764D02*
D03*
X91142Y110039D02*
D03*
X145948Y35433D02*
D03*
X136286D02*
D03*
X126624D02*
D03*
X116962D02*
D03*
X107300D02*
D03*
X97638D02*
D03*
X87976D02*
D03*
X78314D02*
D03*
X68652D02*
D03*
X58990D02*
D03*
X49327D02*
D03*
X39665D02*
D03*
X30003D02*
D03*
X64813Y95817D02*
D03*
X48819Y140157D02*
D03*
X130315Y72638D02*
D03*
X104528Y97835D02*
D03*
Y101772D02*
D03*
X36024Y149213D02*
D03*
X47047Y129528D02*
D03*
Y125394D02*
D03*
Y121260D02*
D03*
Y117126D02*
D03*
X77953Y117520D02*
D03*
X85236Y125787D02*
D03*
X97835Y108858D02*
D03*
X97933Y118996D02*
D03*
X89764Y125787D02*
D03*
X93701Y125591D02*
D03*
X77953Y113189D02*
D03*
X88779Y106102D02*
D03*
X47244Y106693D02*
D03*
Y102559D02*
D03*
Y98228D02*
D03*
Y110827D02*
D03*
X104331Y133661D02*
D03*
X140354Y85630D02*
D03*
X127362Y119882D02*
D03*
Y115814D02*
D03*
Y111745D02*
D03*
Y123950D02*
D03*
M02*
