G04*
G04 #@! TF.GenerationSoftware,Altium Limited,Altium Designer,20.0.2 (26)*
G04*
G04 Layer_Color=32896*
%FSLAX25Y25*%
%MOIN*%
G70*
G01*
G75*
%ADD10C,0.00984*%
%ADD11C,0.00787*%
%ADD12C,0.00394*%
%ADD13C,0.01000*%
D10*
X62878Y81921D02*
G03*
X62878Y81921I-492J0D01*
G01*
D11*
X52362Y120472D02*
G03*
X52362Y120079I0J-197D01*
G01*
D02*
G03*
X52362Y120472I0J197D01*
G01*
D02*
G03*
X52362Y120079I0J-197D01*
G01*
Y95866D02*
G03*
X52362Y95472I0J-197D01*
G01*
D02*
G03*
X52362Y95866I0J197D01*
G01*
D02*
G03*
X52362Y95472I0J-197D01*
G01*
X122441Y124803D02*
G03*
X122441Y125197I0J197D01*
G01*
D02*
G03*
X122441Y124803I0J-197D01*
G01*
D02*
G03*
X122441Y125197I0J197D01*
G01*
X53543Y120472D02*
X59842D01*
X56693Y123819D02*
Y130118D01*
X53543Y133465D02*
X59842D01*
X53543Y95866D02*
X59842D01*
X56693Y99213D02*
Y105512D01*
X53543Y108858D02*
X59842D01*
X55693Y79953D02*
X59236D01*
Y83102D01*
X55693Y91764D02*
X59236D01*
Y88614D02*
Y91764D01*
X107087Y143898D02*
Y147047D01*
X102362Y143898D02*
Y147047D01*
X145276Y151969D02*
Y155118D01*
X140551Y151969D02*
Y155118D01*
X111417Y137598D02*
Y151378D01*
Y137598D02*
X136614D01*
Y151378D01*
X111417D02*
X136614D01*
X111417Y153347D02*
Y160236D01*
X114961Y111811D02*
X121260D01*
X118110Y115157D02*
Y121457D01*
X114961Y124803D02*
X121260D01*
D12*
X61614Y168504D02*
X62598D01*
X61614Y166535D02*
X62598D01*
X61221Y162205D02*
X62795D01*
X61221Y160236D02*
X62795D01*
X84842Y101575D02*
X85827D01*
X84842Y99606D02*
X85827D01*
X49803Y71653D02*
Y73228D01*
X51772Y71653D02*
Y73228D01*
X71063Y90748D02*
X72638D01*
X71063Y92716D02*
X72638D01*
X92716Y102165D02*
Y103740D01*
X94685Y102165D02*
Y103740D01*
X100197Y123031D02*
X101772D01*
X100197Y125000D02*
X101772D01*
X95669Y141732D02*
Y142717D01*
X97638Y141732D02*
Y142717D01*
X132874Y163583D02*
X133858D01*
X132874Y165551D02*
X133858D01*
D13*
X150591Y56058D02*
Y53142D01*
X150007Y52559D01*
X148841D01*
X148258Y53142D01*
Y56058D01*
X144759Y55475D02*
X145342Y56058D01*
X146509D01*
X147092Y55475D01*
Y54892D01*
X146509Y54308D01*
X145342D01*
X144759Y53725D01*
Y53142D01*
X145342Y52559D01*
X146509D01*
X147092Y53142D01*
X143593Y52559D02*
Y54892D01*
X142427Y56058D01*
X141260Y54892D01*
Y52559D01*
Y54308D01*
X143593D01*
X140094Y52559D02*
Y56058D01*
X138345D01*
X137761Y55475D01*
Y54308D01*
X138345Y53725D01*
X140094D01*
X138928D02*
X137761Y52559D01*
X136595Y56058D02*
X134263D01*
X135429D01*
Y52559D01*
X130764D02*
X133096D01*
X130764Y54892D01*
Y55475D01*
X131347Y56058D01*
X132513D01*
X133096Y55475D01*
X129597Y51976D02*
X127265D01*
X126099Y56058D02*
X123766D01*
X124932D01*
Y52559D01*
X122600Y54892D02*
X120267Y52559D01*
X121433Y53725D01*
X120267Y54892D01*
X122600Y52559D01*
X119101D02*
X116768Y54892D01*
X115602Y52559D02*
Y56058D01*
X113852D01*
X113269Y55475D01*
Y54308D01*
X113852Y53725D01*
X115602D01*
X114436D02*
X113269Y52559D01*
X112103Y54892D02*
X109770Y52559D01*
X110937Y53725D01*
X109770Y54892D01*
X112103Y52559D01*
X150591Y65113D02*
Y62197D01*
X150007Y61614D01*
X148841D01*
X148258Y62197D01*
Y65113D01*
X144759Y64530D02*
X145342Y65113D01*
X146509D01*
X147092Y64530D01*
Y63947D01*
X146509Y63364D01*
X145342D01*
X144759Y62780D01*
Y62197D01*
X145342Y61614D01*
X146509D01*
X147092Y62197D01*
X143593Y61614D02*
Y63947D01*
X142427Y65113D01*
X141260Y63947D01*
Y61614D01*
Y63364D01*
X143593D01*
X140094Y61614D02*
Y65113D01*
X138345D01*
X137761Y64530D01*
Y63364D01*
X138345Y62780D01*
X140094D01*
X138928D02*
X137761Y61614D01*
X136595Y65113D02*
X134263D01*
X135429D01*
Y61614D01*
X133096D02*
X131930D01*
X132513D01*
Y65113D01*
X133096Y64530D01*
X130181Y61031D02*
X127848D01*
X126682Y65113D02*
X124349D01*
X125515D01*
Y61614D01*
X123183Y63947D02*
X120850Y61614D01*
X122017Y62780D01*
X120850Y63947D01*
X123183Y61614D01*
X119684D02*
X117351Y63947D01*
X116185Y61614D02*
Y65113D01*
X114436D01*
X113852Y64530D01*
Y63364D01*
X114436Y62780D01*
X116185D01*
X115019D02*
X113852Y61614D01*
X112686Y63947D02*
X110354Y61614D01*
X111520Y62780D01*
X110354Y63947D01*
X112686Y61614D01*
X150591Y105467D02*
Y102552D01*
X150007Y101969D01*
X148841D01*
X148258Y102552D01*
Y105467D01*
X147092Y101969D02*
Y105467D01*
X145342D01*
X144759Y104884D01*
Y103718D01*
X145342Y103135D01*
X147092D01*
X150591Y115359D02*
Y111860D01*
X148841D01*
X148258Y112443D01*
Y114776D01*
X148841Y115359D01*
X150591D01*
X145342D02*
X146509D01*
X147092Y114776D01*
Y112443D01*
X146509Y111860D01*
X145342D01*
X144759Y112443D01*
Y114776D01*
X145342Y115359D01*
X143593D02*
Y111860D01*
X142427Y113026D01*
X141260Y111860D01*
Y115359D01*
X140094Y111860D02*
Y115359D01*
X137761Y111860D01*
Y115359D01*
X150591Y125251D02*
Y121752D01*
X148258D01*
X144759Y125251D02*
X147092D01*
Y121752D01*
X144759D01*
X147092Y123501D02*
X145925D01*
X141260Y125251D02*
X143593D01*
Y123501D01*
X142427D01*
X143593D01*
Y121752D01*
X140094Y125251D02*
X137761D01*
X138928D01*
Y121752D01*
X150591Y131644D02*
Y135143D01*
X148841D01*
X148258Y134559D01*
Y133393D01*
X148841Y132810D01*
X150591D01*
X149424D02*
X148258Y131644D01*
X147092Y135143D02*
X145925D01*
X146509D01*
Y131644D01*
X147092D01*
X145925D01*
X141843Y134559D02*
X142427Y135143D01*
X143593D01*
X144176Y134559D01*
Y132227D01*
X143593Y131644D01*
X142427D01*
X141843Y132227D01*
Y133393D01*
X143010D01*
X140677Y135143D02*
Y131644D01*
Y133393D01*
X138345D01*
Y135143D01*
Y131644D01*
X137178Y135143D02*
X134846D01*
X136012D01*
Y131644D01*
X148258Y145034D02*
X150591D01*
Y143285D01*
X149424Y143868D01*
X148841D01*
X148258Y143285D01*
Y142119D01*
X148841Y141535D01*
X150007D01*
X150591Y142119D01*
X147092Y145034D02*
Y142702D01*
X145925Y141535D01*
X144759Y142702D01*
Y145034D01*
X40005Y54877D02*
Y51378D01*
X38256D01*
X37672Y51961D01*
Y52544D01*
X38256Y53127D01*
X40005D01*
X38256D01*
X37672Y53711D01*
Y54294D01*
X38256Y54877D01*
X40005D01*
X34757D02*
X35923D01*
X36506Y54294D01*
Y51961D01*
X35923Y51378D01*
X34757D01*
X34174Y51961D01*
Y54294D01*
X34757Y54877D01*
X31258D02*
X32424D01*
X33007Y54294D01*
Y51961D01*
X32424Y51378D01*
X31258D01*
X30675Y51961D01*
Y54294D01*
X31258Y54877D01*
X29509D02*
X27176D01*
X28342D01*
Y51378D01*
X43504Y65609D02*
Y62110D01*
Y63276D01*
X41171Y65609D01*
X42921Y63859D01*
X41171Y62110D01*
X37672Y65609D02*
X40005D01*
Y62110D01*
X37672D01*
X40005Y63859D02*
X38839D01*
X36506Y65609D02*
Y65026D01*
X35340Y63859D01*
X34174Y65026D01*
Y65609D01*
X35340Y63859D02*
Y62110D01*
X33007Y61527D02*
X30675D01*
X27176Y62110D02*
X29509D01*
X27176Y64442D01*
Y65026D01*
X27759Y65609D01*
X28925D01*
X29509Y65026D01*
X42338Y75757D02*
Y72259D01*
Y73425D01*
X40005Y75757D01*
X41754Y74008D01*
X40005Y72259D01*
X36506Y75757D02*
X38839D01*
Y72259D01*
X36506D01*
X38839Y74008D02*
X37672D01*
X35340Y75757D02*
Y75174D01*
X34174Y74008D01*
X33007Y75174D01*
Y75757D01*
X34174Y74008D02*
Y72259D01*
X31841Y71675D02*
X29509D01*
X28342Y72259D02*
X27176D01*
X27759D01*
Y75757D01*
X28342Y75174D01*
X27176Y85323D02*
X29509D01*
Y83574D01*
X28342D01*
X29509D01*
Y81824D01*
X27176Y95472D02*
X29509D01*
Y91973D01*
X27176D01*
X29509Y93722D02*
X28342D01*
X29509Y105621D02*
Y102122D01*
X27759D01*
X27176Y102705D01*
Y105037D01*
X27759Y105621D01*
X29509D01*
X27176Y115186D02*
X27759Y115769D01*
X28925D01*
X29509Y115186D01*
Y112854D01*
X28925Y112270D01*
X27759D01*
X27176Y112854D01*
X29509Y125918D02*
Y122419D01*
X27759D01*
X27176Y123002D01*
Y123585D01*
X27759Y124169D01*
X29509D01*
X27759D01*
X27176Y124752D01*
Y125335D01*
X27759Y125918D01*
X29509D01*
Y132568D02*
Y134900D01*
X28342Y136067D01*
X27176Y134900D01*
Y132568D01*
Y134317D01*
X29509D01*
X54584Y145632D02*
X55167Y146215D01*
X56333D01*
X56916Y145632D01*
Y145049D01*
X56333Y144466D01*
X55167D01*
X54584Y143883D01*
Y143300D01*
X55167Y142717D01*
X56333D01*
X56916Y143300D01*
X53417Y146215D02*
Y142717D01*
X52251Y143883D01*
X51085Y142717D01*
Y146215D01*
X47586Y145632D02*
X48169Y146215D01*
X49335D01*
X49918Y145632D01*
Y143300D01*
X49335Y142717D01*
X48169D01*
X47586Y143300D01*
X46420Y146215D02*
Y142717D01*
X44087D01*
X42921Y146215D02*
Y142717D01*
Y143883D01*
X40588Y146215D01*
X42338Y144466D01*
X40588Y142717D01*
X39422D02*
X37089Y145049D01*
X35923Y146215D02*
Y142717D01*
X34174D01*
X33590Y143300D01*
Y145632D01*
X34174Y146215D01*
X35923D01*
X32424D02*
X31258D01*
X31841D01*
Y142717D01*
X32424D01*
X31258D01*
X27759Y146215D02*
X28925D01*
X29509Y145632D01*
Y143300D01*
X28925Y142717D01*
X27759D01*
X27176Y143300D01*
Y145632D01*
X27759Y146215D01*
X55118Y159449D02*
Y162948D01*
X53369D01*
X52785Y162364D01*
Y161198D01*
X53369Y160615D01*
X55118D01*
X53952D02*
X52785Y159449D01*
X51619D02*
X50453D01*
X51036D01*
Y162948D01*
X51619Y162364D01*
X48704Y159449D02*
X47537D01*
X48120D01*
Y162948D01*
X48704Y162364D01*
X52982Y168073D02*
X53566Y168656D01*
X54732D01*
X55315Y168073D01*
Y165741D01*
X54732Y165157D01*
X53566D01*
X52982Y165741D01*
X49483Y165157D02*
X51816D01*
X49483Y167490D01*
Y168073D01*
X50067Y168656D01*
X51233D01*
X51816Y168073D01*
X45985Y168656D02*
X47151Y168073D01*
X48317Y166907D01*
Y165741D01*
X47734Y165157D01*
X46568D01*
X45985Y165741D01*
Y166324D01*
X46568Y166907D01*
X48317D01*
X97638Y91929D02*
Y95428D01*
X95888D01*
X95305Y94845D01*
Y93679D01*
X95888Y93095D01*
X97638D01*
X96472D02*
X95305Y91929D01*
X94139Y94845D02*
X93556Y95428D01*
X92390D01*
X91806Y94845D01*
Y94262D01*
X92390Y93679D01*
X91806Y93095D01*
Y92512D01*
X92390Y91929D01*
X93556D01*
X94139Y92512D01*
Y93095D01*
X93556Y93679D01*
X94139Y94262D01*
Y94845D01*
X93556Y93679D02*
X92390D01*
X86644Y95042D02*
X87227Y95625D01*
X88393D01*
X88976Y95042D01*
Y92709D01*
X88393Y92126D01*
X87227D01*
X86644Y92709D01*
X85478Y95625D02*
X83145D01*
Y95042D01*
X85478Y92709D01*
Y92126D01*
X60433Y111614D02*
Y115113D01*
X58684D01*
X58100Y114530D01*
Y113364D01*
X58684Y112780D01*
X60433D01*
X59267D02*
X58100Y111614D01*
X56934D02*
Y115113D01*
X54602Y111614D01*
Y115113D01*
X53435Y114530D02*
X52852Y115113D01*
X51686D01*
X51103Y114530D01*
Y113947D01*
X51686Y113364D01*
X52269D01*
X51686D01*
X51103Y112780D01*
Y112197D01*
X51686Y111614D01*
X52852D01*
X53435Y112197D01*
X61221Y136614D02*
Y140113D01*
X59471D01*
X58888Y139530D01*
Y138364D01*
X59471Y137780D01*
X61221D01*
X60054D02*
X58888Y136614D01*
X57722D02*
Y140113D01*
X55389Y136614D01*
Y140113D01*
X51890Y136614D02*
X54223D01*
X51890Y138947D01*
Y139530D01*
X52473Y140113D01*
X53640D01*
X54223Y139530D01*
X123425Y105512D02*
Y109011D01*
X121676D01*
X121093Y108428D01*
Y107261D01*
X121676Y106678D01*
X123425D01*
X122259D02*
X121093Y105512D01*
X119926D02*
Y109011D01*
X117594Y105512D01*
Y109011D01*
X116428Y105512D02*
X115261D01*
X115844D01*
Y109011D01*
X116428Y108428D01*
X75984Y95079D02*
Y98578D01*
X74235D01*
X73652Y97995D01*
Y96828D01*
X74235Y96245D01*
X75984D01*
X74818D02*
X73652Y95079D01*
X70153Y98578D02*
X71319Y97995D01*
X72485Y96828D01*
Y95662D01*
X71902Y95079D01*
X70736D01*
X70153Y95662D01*
Y96245D01*
X70736Y96828D01*
X72485D01*
X52559Y62402D02*
Y65900D01*
X50810D01*
X50226Y65317D01*
Y64151D01*
X50810Y63568D01*
X52559D01*
X51393D02*
X50226Y62402D01*
X46728Y65900D02*
X49060D01*
Y64151D01*
X47894Y64734D01*
X47311D01*
X46728Y64151D01*
Y62985D01*
X47311Y62402D01*
X48477D01*
X49060Y62985D01*
X102165Y127756D02*
Y131255D01*
X100416D01*
X99833Y130672D01*
Y129505D01*
X100416Y128922D01*
X102165D01*
X100999D02*
X99833Y127756D01*
X98667Y131255D02*
X96334D01*
Y130672D01*
X98667Y128339D01*
Y127756D01*
X61250Y74205D02*
Y76538D01*
X61833Y77121D01*
X62999D01*
X63583Y76538D01*
Y74205D01*
X62999Y73622D01*
X61833D01*
X62416Y74788D02*
X61250Y73622D01*
X61833D02*
X61250Y74205D01*
X57751Y73622D02*
X60084D01*
X57751Y75955D01*
Y76538D01*
X58334Y77121D01*
X59501D01*
X60084Y76538D01*
X114961Y166294D02*
X113794D01*
X114377D01*
Y162795D01*
X114961D01*
X113794D01*
X109712Y165711D02*
X110295Y166294D01*
X111462D01*
X112045Y165711D01*
Y163378D01*
X111462Y162795D01*
X110295D01*
X109712Y163378D01*
X106213Y162795D02*
X108546D01*
X106213Y165128D01*
Y165711D01*
X106797Y166294D01*
X107963D01*
X108546Y165711D01*
X96486Y152128D02*
X97070Y152711D01*
X98236D01*
X98819Y152128D01*
Y149796D01*
X98236Y149213D01*
X97070D01*
X96486Y149796D01*
X92988Y152711D02*
X94154Y152128D01*
X95320Y150962D01*
Y149796D01*
X94737Y149213D01*
X93571D01*
X92988Y149796D01*
Y150379D01*
X93571Y150962D01*
X95320D01*
X105345Y159018D02*
X105928Y159601D01*
X107094D01*
X107677Y159018D01*
Y156685D01*
X107094Y156102D01*
X105928D01*
X105345Y156685D01*
X101846Y159601D02*
X104178D01*
Y157852D01*
X103012Y158435D01*
X102429D01*
X101846Y157852D01*
Y156685D01*
X102429Y156102D01*
X103595D01*
X104178Y156685D01*
X134282Y171026D02*
X134865Y171609D01*
X136031D01*
X136614Y171026D01*
Y168693D01*
X136031Y168110D01*
X134865D01*
X134282Y168693D01*
X131366Y168110D02*
Y171609D01*
X133115Y169860D01*
X130783D01*
X143140Y165514D02*
X143723Y166097D01*
X144889D01*
X145473Y165514D01*
Y163182D01*
X144889Y162598D01*
X143723D01*
X143140Y163182D01*
X141974Y165514D02*
X141390Y166097D01*
X140224D01*
X139641Y165514D01*
Y164931D01*
X140224Y164348D01*
X140807D01*
X140224D01*
X139641Y163765D01*
Y163182D01*
X140224Y162598D01*
X141390D01*
X141974Y163182D01*
M02*
