G04*
G04 #@! TF.GenerationSoftware,Altium Limited,Altium Designer,20.0.2 (26)*
G04*
G04 Layer_Color=8388736*
%FSLAX25Y25*%
%MOIN*%
G70*
G01*
G75*
%ADD26R,0.03556X0.04343*%
%ADD27R,0.04343X0.03556*%
%ADD28R,0.02375X0.08674*%
%ADD29R,0.01981X0.06607*%
%ADD30R,0.05131X0.05131*%
%ADD31R,0.04343X0.03950*%
%ADD32R,0.06607X0.01981*%
%ADD33R,0.24422X0.08674*%
%ADD34R,0.03950X0.04343*%
%ADD35R,0.03950X0.02572*%
%ADD36R,0.05328X0.03162*%
%ADD37R,0.07493X0.05131*%
%ADD38R,0.06706X0.06706*%
%ADD39C,0.06706*%
%ADD40O,0.04737X0.07099*%
%ADD41C,0.05524*%
D26*
X30512Y154921D02*
D03*
X36417D02*
D03*
X131102Y106496D02*
D03*
X125197D02*
D03*
X81299Y142717D02*
D03*
X120079Y106693D02*
D03*
X114173D02*
D03*
X75394Y142717D02*
D03*
D27*
X50787Y81102D02*
D03*
Y87008D02*
D03*
X91535Y148228D02*
D03*
X86614D02*
D03*
X91535Y142323D02*
D03*
X86614D02*
D03*
X134449Y77953D02*
D03*
Y83858D02*
D03*
X41535Y149409D02*
D03*
Y155315D02*
D03*
D28*
X90421Y155882D02*
D03*
X87862D02*
D03*
X85303D02*
D03*
X92980D02*
D03*
X82744D02*
D03*
D29*
X82874Y132827D02*
D03*
X84842D02*
D03*
X76968Y99457D02*
D03*
X78937D02*
D03*
X80905D02*
D03*
X82874D02*
D03*
X84842D02*
D03*
X86811D02*
D03*
X88779D02*
D03*
X90748D02*
D03*
X92716D02*
D03*
X94685D02*
D03*
X96653D02*
D03*
X98622D02*
D03*
Y132827D02*
D03*
X96653D02*
D03*
X94685D02*
D03*
X92716D02*
D03*
X90748D02*
D03*
X88779D02*
D03*
X86811D02*
D03*
X80905D02*
D03*
X78937D02*
D03*
X76968D02*
D03*
D30*
X82232Y167575D02*
D03*
X94043D02*
D03*
D31*
X112189Y84024D02*
D03*
Y78512D02*
D03*
X74425Y86358D02*
D03*
Y91870D02*
D03*
X69307Y86358D02*
D03*
Y91870D02*
D03*
X65764Y139508D02*
D03*
Y145020D02*
D03*
X134433Y90610D02*
D03*
Y96122D02*
D03*
X98835Y90295D02*
D03*
Y84784D02*
D03*
D32*
X104480Y105315D02*
D03*
Y107283D02*
D03*
Y109252D02*
D03*
Y111221D02*
D03*
Y113189D02*
D03*
Y115157D02*
D03*
Y117126D02*
D03*
Y119095D02*
D03*
Y121063D02*
D03*
Y123031D02*
D03*
Y125000D02*
D03*
Y126969D02*
D03*
X71110D02*
D03*
Y125000D02*
D03*
Y123031D02*
D03*
Y121063D02*
D03*
Y119095D02*
D03*
Y117126D02*
D03*
Y115157D02*
D03*
Y113189D02*
D03*
Y111221D02*
D03*
Y109252D02*
D03*
Y107283D02*
D03*
Y105315D02*
D03*
D33*
X67716Y54921D02*
D03*
X103150D02*
D03*
D34*
X35433Y135011D02*
D03*
X40945D02*
D03*
X35433Y128965D02*
D03*
X40945D02*
D03*
X35433Y122919D02*
D03*
X40945D02*
D03*
X35433Y116873D02*
D03*
X40945D02*
D03*
X35433Y110827D02*
D03*
X40945D02*
D03*
X35433Y104781D02*
D03*
X40945D02*
D03*
X35433Y92688D02*
D03*
X40945D02*
D03*
X114311Y135024D02*
D03*
X119823D02*
D03*
X35433Y98735D02*
D03*
X40945D02*
D03*
X133130Y117535D02*
D03*
X138642D02*
D03*
X133130Y111630D02*
D03*
X138642D02*
D03*
X133130Y129347D02*
D03*
X138642D02*
D03*
X133130Y123441D02*
D03*
X138642D02*
D03*
X82028Y75968D02*
D03*
X76516D02*
D03*
X89626Y76000D02*
D03*
X95138D02*
D03*
D35*
X59842Y122244D02*
D03*
Y125394D02*
D03*
Y128543D02*
D03*
Y131693D02*
D03*
X53543D02*
D03*
Y128543D02*
D03*
Y125394D02*
D03*
Y122244D02*
D03*
X59842Y97638D02*
D03*
Y100787D02*
D03*
Y103937D02*
D03*
Y107087D02*
D03*
X53543D02*
D03*
Y103937D02*
D03*
Y100787D02*
D03*
Y97638D02*
D03*
X114961Y123031D02*
D03*
Y119882D02*
D03*
Y116732D02*
D03*
Y113583D02*
D03*
X121260D02*
D03*
Y116732D02*
D03*
Y119882D02*
D03*
Y123031D02*
D03*
D36*
X117602Y99181D02*
D03*
Y91701D02*
D03*
X126461Y95441D02*
D03*
X58153Y151740D02*
D03*
X49295Y148000D02*
D03*
Y155480D02*
D03*
D37*
X105512Y89736D02*
D03*
Y79106D02*
D03*
D38*
X19291Y53268D02*
D03*
X158268Y143583D02*
D03*
D39*
X9291Y53268D02*
D03*
X19291Y63268D02*
D03*
X9291D02*
D03*
X19291Y73268D02*
D03*
X9291D02*
D03*
X19291Y83268D02*
D03*
X9291D02*
D03*
X19291Y93268D02*
D03*
X9291D02*
D03*
X19291Y103268D02*
D03*
X9291D02*
D03*
X19291Y113268D02*
D03*
X9291D02*
D03*
X19291Y123268D02*
D03*
X9291D02*
D03*
X19291Y133268D02*
D03*
X9291D02*
D03*
X19291Y143268D02*
D03*
X9291D02*
D03*
X168268Y143583D02*
D03*
X158268Y133583D02*
D03*
X168268D02*
D03*
X158268Y123583D02*
D03*
X168268D02*
D03*
X158268Y113583D02*
D03*
X168268D02*
D03*
X158268Y103583D02*
D03*
X168268D02*
D03*
X158268Y93583D02*
D03*
X168268D02*
D03*
X158268Y83583D02*
D03*
X168268D02*
D03*
X158268Y73583D02*
D03*
X168268D02*
D03*
X158268Y63583D02*
D03*
X168268D02*
D03*
X158268Y53583D02*
D03*
X168268D02*
D03*
D40*
X73590Y167693D02*
D03*
X102134D02*
D03*
D41*
X78315Y157142D02*
D03*
X97409D02*
D03*
M02*
