M48
;Layer_Color=9474304
;FILE_FORMAT=2:5
INCH,TZ
;TYPE=PLATED
T1F00S00C0.01500
T3F00S00C0.03150
T4F00S00C0.03543
%
T01
X97638Y35433
X107300
X116962
X126624
X136286
X145948
X141142Y58661
X126575Y58465
X122047Y70079
X130315Y72638
X111024Y70079
X100591
X68504Y70276
X45276Y75394
X27953Y75984
Y66864
Y56168
Y45472
X30003Y35433
X39665
X49327
X58990
X68652
X78314
X87976
X47835Y44882
X48031Y54527
X45276Y81496
Y87598
X47244Y98228
Y102559
Y106693
Y110827
X47047Y117126
Y121260
Y125394
Y129528
X46850Y135236
X48819Y140157
X42520Y139370
X35433
X28346
Y129527
X27756Y108661
Y99311
Y89961
X64813Y95817
X68504Y79724
X80347Y106053
X81890Y110039
X86516
Y114764
X81890
Y119488
X77953Y117520
Y113189
X88779Y106102
X89764Y125787
X85236
X72835Y132283
X69685Y135433
X70866Y143504
X74213Y151181
X78740Y138386
X82087Y162598
X88090
X42520Y166339
X34449
X36024Y149213
X52165Y117323
X56299
X60433
X91142Y110039
X97835Y108858
X97933Y118996
X93701Y125591
X104331Y133661
X113976Y130118
X116929Y141142
X122769
X128609
X134449
X134449Y148425
X128445
X122441
X124409Y164173
X119685
X94095Y162598
X150197Y153150
X143701Y138583
X127362Y123950
Y119882
Y115814
Y111745
X136221Y106496
X140551
X144882
X146850Y90551
Y85138
Y79724
X140354Y85630
X121063Y81693
X117323
X98819Y80315
X104528Y97835
Y101772
T03
X78315Y157142
X97409
T04
X158268Y53583
Y63583
Y73583
X168268
Y63583
Y53583
X19291Y53268
X9291
Y63268
X19291
Y73268
X9291
Y83268
X19291
Y93268
X9291
Y103268
X19291
Y113268
X9291
Y123268
X19291
Y133268
X9291
Y143268
X19291
X158268Y143583
X168268
Y133583
X158268
Y123583
X168268
Y113583
X158268
Y103583
X168268
Y93583
X158268
Y83583
X168268
M30
